<?xml version="1.0" encoding="UTF-8" standalone="no"?>
<!DOCTYPE svg PUBLIC "-//W3C//DTD SVG 1.1//EN"
 "http://www.w3.org/Graphics/SVG/1.1/DTD/svg11.dtd">
<!-- Generated by graphviz version 2.40.1 (20161225.0304)
 -->
<!-- Title: dependencies Pages: 1 -->
<svg width="887pt" height="211pt"
 viewBox="0.00 0.00 887.00 211.00" xmlns="http://www.w3.org/2000/svg" xmlns:xlink="http://www.w3.org/1999/xlink">
<g id="graph0" class="graph" transform="scale(1 1) rotate(0) translate(4 207)">
<title>dependencies</title>
<polygon fill="#ffffff" stroke="transparent" points="-4,4 -4,-207 883,-207 883,4 -4,4"/>
<text text-anchor="start" x="418.5091" y="-42.4" font-family="sans-serif" font-weight="bold" font-size="14.00" fill="#000000">Legend</text>
<polygon fill="#ffffb3" stroke="transparent" points="205.5,-10 205.5,-30 225.5,-30 225.5,-10 205.5,-10"/>
<text text-anchor="start" x="229.129" y="-15.4" font-family="sans-serif" font-size="14.00" fill="#000000"> &#160;Declarations</text>
<polygon fill="#8dd3c7" stroke="transparent" points="318.5,-10 318.5,-30 338.5,-30 338.5,-10 318.5,-10"/>
<text text-anchor="start" x="342.2251" y="-15.4" font-family="sans-serif" font-size="14.00" fill="#000000"> &#160;Module</text>
<polygon fill="#80b1d3" stroke="transparent" points="404.5,-10 404.5,-30 424.5,-30 424.5,-10 404.5,-10"/>
<text text-anchor="start" x="428.2812" y="-15.4" font-family="sans-serif" font-size="14.00" fill="#000000"> &#160;Bootstrap</text>
<polygon fill="#fdb462" stroke="transparent" points="501.5,-10 501.5,-30 521.5,-30 521.5,-10 501.5,-10"/>
<text text-anchor="start" x="525.1732" y="-15.4" font-family="sans-serif" font-size="14.00" fill="#000000"> &#160;Providers</text>
<polygon fill="#fb8072" stroke="transparent" points="597.5,-10 597.5,-30 617.5,-30 617.5,-10 597.5,-10"/>
<text text-anchor="start" x="621.2258" y="-15.4" font-family="sans-serif" font-size="14.00" fill="#000000"> &#160;Exports</text>
<g id="clust1" class="cluster">
<title>cluster_ProjectsModule</title>
<polygon fill="none" stroke="#000000" stroke-dasharray="1,5" points="8,-70 8,-195 871,-195 871,-70 8,-70"/>
</g>
<g id="clust2" class="cluster">
<title>cluster_ProjectsModule_declarations</title>
<polygon fill="none" stroke="#000000" points="545,-78 545,-130 863,-130 863,-78 545,-78"/>
</g>
<g id="clust5" class="cluster">
<title>cluster_ProjectsModule_imports</title>
<polygon fill="none" stroke="#000000" points="16,-78 16,-130 537,-130 537,-78 16,-78"/>
</g>
<!-- CreateProjectComponent -->
<g id="node1" class="node">
<title>CreateProjectComponent</title>
<polygon fill="#ffffb3" stroke="#000000" points="854.5183,-122 697.4817,-122 697.4817,-86 854.5183,-86 854.5183,-122"/>
<text text-anchor="middle" x="776" y="-99.8" font-family="Times,serif" font-size="14.00" fill="#000000">CreateProjectComponent</text>
</g>
<!-- ProjectsModule -->
<g id="node3" class="node">
<title>ProjectsModule</title>
<polygon fill="#8dd3c7" stroke="#000000" points="472.1486,-187 469.1486,-191 448.1486,-191 445.1486,-187 367.8514,-187 367.8514,-151 472.1486,-151 472.1486,-187"/>
<text text-anchor="middle" x="420" y="-164.8" font-family="Times,serif" font-size="14.00" fill="#000000">ProjectsModule</text>
</g>
<!-- CreateProjectComponent&#45;&gt;ProjectsModule -->
<g id="edge1" class="edge">
<title>CreateProjectComponent&#45;&gt;ProjectsModule</title>
<path fill="none" stroke="#000000" d="M776,-122.2843C776,-143.3211 776,-175 776,-175 776,-175 482.529,-175 482.529,-175"/>
<polygon fill="#000000" stroke="#000000" points="482.5291,-171.5001 472.529,-175 482.529,-178.5001 482.5291,-171.5001"/>
</g>
<!-- ProjectsComponent -->
<g id="node2" class="node">
<title>ProjectsComponent</title>
<polygon fill="#ffffb3" stroke="#000000" points="679.4313,-122 552.5687,-122 552.5687,-86 679.4313,-86 679.4313,-122"/>
<text text-anchor="middle" x="616" y="-99.8" font-family="Times,serif" font-size="14.00" fill="#000000">ProjectsComponent</text>
</g>
<!-- ProjectsComponent&#45;&gt;ProjectsModule -->
<g id="edge2" class="edge">
<title>ProjectsComponent&#45;&gt;ProjectsModule</title>
<path fill="none" stroke="#000000" d="M616,-122.0225C616,-139.3734 616,-163 616,-163 616,-163 482.2669,-163 482.2669,-163"/>
<polygon fill="#000000" stroke="#000000" points="482.267,-159.5001 472.2669,-163 482.2669,-166.5001 482.267,-159.5001"/>
</g>
<!-- DialogModule -->
<g id="node4" class="node">
<title>DialogModule</title>
<polygon fill="#8dd3c7" stroke="#000000" points="528.6528,-122 525.6528,-126 504.6528,-126 501.6528,-122 431.3472,-122 431.3472,-86 528.6528,-86 528.6528,-122"/>
<text text-anchor="middle" x="480" y="-99.8" font-family="Times,serif" font-size="14.00" fill="#000000">DialogModule</text>
</g>
<!-- DialogModule&#45;&gt;ProjectsModule -->
<g id="edge3" class="edge">
<title>DialogModule&#45;&gt;ProjectsModule</title>
<path fill="none" stroke="#000000" d="M451.749,-122.1061C451.749,-122.1061 451.749,-140.991 451.749,-140.991"/>
<polygon fill="#000000" stroke="#000000" points="448.249,-140.9909 451.749,-150.991 455.249,-140.991 448.249,-140.9909"/>
</g>
<!-- MaterialModule -->
<g id="node5" class="node">
<title>MaterialModule</title>
<polygon fill="#8dd3c7" stroke="#000000" points="413.4706,-122 410.4706,-126 389.4706,-126 386.4706,-122 306.5294,-122 306.5294,-86 413.4706,-86 413.4706,-122"/>
<text text-anchor="middle" x="360" y="-99.8" font-family="Times,serif" font-size="14.00" fill="#000000">MaterialModule</text>
</g>
<!-- MaterialModule&#45;&gt;ProjectsModule -->
<g id="edge4" class="edge">
<title>MaterialModule&#45;&gt;ProjectsModule</title>
<path fill="none" stroke="#000000" d="M390.5807,-122.1061C390.5807,-122.1061 390.5807,-140.991 390.5807,-140.991"/>
<polygon fill="#000000" stroke="#000000" points="387.0807,-140.9909 390.5807,-150.991 394.0807,-140.991 387.0807,-140.9909"/>
</g>
<!-- ModalModule -->
<g id="node6" class="node">
<title>ModalModule</title>
<polygon fill="#8dd3c7" stroke="#000000" points="288.0997,-122 285.0997,-126 264.0997,-126 261.0997,-122 191.9003,-122 191.9003,-86 288.0997,-86 288.0997,-122"/>
<text text-anchor="middle" x="240" y="-99.8" font-family="Times,serif" font-size="14.00" fill="#000000">ModalModule</text>
</g>
<!-- ModalModule&#45;&gt;ProjectsModule -->
<g id="edge5" class="edge">
<title>ModalModule&#45;&gt;ProjectsModule</title>
<path fill="none" stroke="#000000" d="M240,-122.0225C240,-139.3734 240,-163 240,-163 240,-163 357.4527,-163 357.4527,-163"/>
<polygon fill="#000000" stroke="#000000" points="357.4527,-166.5001 367.4527,-163 357.4526,-159.5001 357.4527,-166.5001"/>
</g>
<!-- ProjectsRoutingModule -->
<g id="node7" class="node">
<title>ProjectsRoutingModule</title>
<polygon fill="#8dd3c7" stroke="#000000" points="173.766,-122 170.766,-126 149.766,-126 146.766,-122 24.234,-122 24.234,-86 173.766,-86 173.766,-122"/>
<text text-anchor="middle" x="99" y="-99.8" font-family="Times,serif" font-size="14.00" fill="#000000">ProjectsRoutingModule</text>
</g>
<!-- ProjectsRoutingModule&#45;&gt;ProjectsModule -->
<g id="edge6" class="edge">
<title>ProjectsRoutingModule&#45;&gt;ProjectsModule</title>
<path fill="none" stroke="#000000" d="M99,-122.2843C99,-143.3211 99,-175 99,-175 99,-175 357.7114,-175 357.7114,-175"/>
<polygon fill="#000000" stroke="#000000" points="357.7114,-178.5001 367.7114,-175 357.7113,-171.5001 357.7114,-178.5001"/>
</g>
</g>
</svg>
