<?xml version="1.0" encoding="UTF-8" standalone="no"?>
<!DOCTYPE svg PUBLIC "-//W3C//DTD SVG 1.1//EN"
 "http://www.w3.org/Graphics/SVG/1.1/DTD/svg11.dtd">
<!-- Generated by graphviz version 2.40.1 (20161225.0304)
 -->
<!-- Title: dependencies Pages: 1 -->
<svg width="1342pt" height="211pt"
 viewBox="0.00 0.00 1342.00 211.00" xmlns="http://www.w3.org/2000/svg" xmlns:xlink="http://www.w3.org/1999/xlink">
<g id="graph0" class="graph" transform="scale(1 1) rotate(0) translate(4 207)">
<title>dependencies</title>
<polygon fill="#ffffff" stroke="transparent" points="-4,4 -4,-207 1338,-207 1338,4 -4,4"/>
<text text-anchor="start" x="646.0091" y="-42.4" font-family="sans-serif" font-weight="bold" font-size="14.00" fill="#000000">Legend</text>
<polygon fill="#ffffb3" stroke="transparent" points="433,-10 433,-30 453,-30 453,-10 433,-10"/>
<text text-anchor="start" x="456.629" y="-15.4" font-family="sans-serif" font-size="14.00" fill="#000000"> &#160;Declarations</text>
<polygon fill="#8dd3c7" stroke="transparent" points="546,-10 546,-30 566,-30 566,-10 546,-10"/>
<text text-anchor="start" x="569.7251" y="-15.4" font-family="sans-serif" font-size="14.00" fill="#000000"> &#160;Module</text>
<polygon fill="#80b1d3" stroke="transparent" points="632,-10 632,-30 652,-30 652,-10 632,-10"/>
<text text-anchor="start" x="655.7812" y="-15.4" font-family="sans-serif" font-size="14.00" fill="#000000"> &#160;Bootstrap</text>
<polygon fill="#fdb462" stroke="transparent" points="729,-10 729,-30 749,-30 749,-10 729,-10"/>
<text text-anchor="start" x="752.6732" y="-15.4" font-family="sans-serif" font-size="14.00" fill="#000000"> &#160;Providers</text>
<polygon fill="#fb8072" stroke="transparent" points="825,-10 825,-30 845,-30 845,-10 825,-10"/>
<text text-anchor="start" x="848.7258" y="-15.4" font-family="sans-serif" font-size="14.00" fill="#000000"> &#160;Exports</text>
<g id="clust1" class="cluster">
<title>cluster_BoardModule</title>
<polygon fill="none" stroke="#000000" stroke-dasharray="1,5" points="8,-70 8,-195 1326,-195 1326,-70 8,-70"/>
</g>
<g id="clust2" class="cluster">
<title>cluster_BoardModule_declarations</title>
<polygon fill="none" stroke="#000000" points="303,-78 303,-130 1318,-130 1318,-78 303,-78"/>
</g>
<g id="clust10" class="cluster">
<title>cluster_BoardModule_imports</title>
<polygon fill="none" stroke="#000000" points="16,-78 16,-130 295,-130 295,-78 16,-78"/>
</g>
<!-- BoardComponent -->
<g id="node1" class="node">
<title>BoardComponent</title>
<polygon fill="#ffffb3" stroke="#000000" points="1309.5451,-122 1194.4549,-122 1194.4549,-86 1309.5451,-86 1309.5451,-122"/>
<text text-anchor="middle" x="1252" y="-99.8" font-family="Times,serif" font-size="14.00" fill="#000000">BoardComponent</text>
</g>
<!-- BoardModule -->
<g id="node8" class="node">
<title>BoardModule</title>
<polygon fill="#8dd3c7" stroke="#000000" points="729.7619,-187 726.7619,-191 705.7619,-191 702.7619,-187 636.2381,-187 636.2381,-151 729.7619,-151 729.7619,-187"/>
<text text-anchor="middle" x="683" y="-164.8" font-family="Times,serif" font-size="14.00" fill="#000000">BoardModule</text>
</g>
<!-- BoardComponent&#45;&gt;BoardModule -->
<g id="edge1" class="edge">
<title>BoardComponent&#45;&gt;BoardModule</title>
<path fill="none" stroke="#000000" d="M1252,-122.0109C1252,-144.4852 1252,-180 1252,-180 1252,-180 740.0477,-180 740.0477,-180"/>
<polygon fill="#000000" stroke="#000000" points="740.0478,-176.5001 730.0477,-180 740.0477,-183.5001 740.0478,-176.5001"/>
</g>
<!-- CreateTaskComponent -->
<g id="node2" class="node">
<title>CreateTaskComponent</title>
<polygon fill="#ffffb3" stroke="#000000" points="1176.5758,-122 1031.4242,-122 1031.4242,-86 1176.5758,-86 1176.5758,-122"/>
<text text-anchor="middle" x="1104" y="-99.8" font-family="Times,serif" font-size="14.00" fill="#000000">CreateTaskComponent</text>
</g>
<!-- CreateTaskComponent&#45;&gt;BoardModule -->
<g id="edge2" class="edge">
<title>CreateTaskComponent&#45;&gt;BoardModule</title>
<path fill="none" stroke="#000000" d="M1104,-122.1289C1104,-142.5724 1104,-173 1104,-173 1104,-173 740.0686,-173 740.0686,-173"/>
<polygon fill="#000000" stroke="#000000" points="740.0686,-169.5001 730.0686,-173 740.0686,-176.5001 740.0686,-169.5001"/>
</g>
<!-- DoingComponent -->
<g id="node3" class="node">
<title>DoingComponent</title>
<polygon fill="#ffffb3" stroke="#000000" points="1013.3301,-122 896.6699,-122 896.6699,-86 1013.3301,-86 1013.3301,-122"/>
<text text-anchor="middle" x="955" y="-99.8" font-family="Times,serif" font-size="14.00" fill="#000000">DoingComponent</text>
</g>
<!-- DoingComponent&#45;&gt;BoardModule -->
<g id="edge3" class="edge">
<title>DoingComponent&#45;&gt;BoardModule</title>
<path fill="none" stroke="#000000" d="M955,-122.2667C955,-140.5552 955,-166 955,-166 955,-166 740.0683,-166 740.0683,-166"/>
<polygon fill="#000000" stroke="#000000" points="740.0683,-162.5001 730.0683,-166 740.0682,-169.5001 740.0683,-162.5001"/>
</g>
<!-- DoneComponent -->
<g id="node4" class="node">
<title>DoneComponent</title>
<polygon fill="#ffffb3" stroke="#000000" points="878.6541,-122 767.3459,-122 767.3459,-86 878.6541,-86 878.6541,-122"/>
<text text-anchor="middle" x="823" y="-99.8" font-family="Times,serif" font-size="14.00" fill="#000000">DoneComponent</text>
</g>
<!-- DoneComponent&#45;&gt;BoardModule -->
<g id="edge4" class="edge">
<title>DoneComponent&#45;&gt;BoardModule</title>
<path fill="none" stroke="#000000" d="M823,-122.0091C823,-138.0494 823,-159 823,-159 823,-159 740.0074,-159 740.0074,-159"/>
<polygon fill="#000000" stroke="#000000" points="740.0075,-155.5001 730.0074,-159 740.0074,-162.5001 740.0075,-155.5001"/>
</g>
<!-- EditTaskComponent -->
<g id="node5" class="node">
<title>EditTaskComponent</title>
<polygon fill="#ffffb3" stroke="#000000" points="748.8781,-122 617.1219,-122 617.1219,-86 748.8781,-86 748.8781,-122"/>
<text text-anchor="middle" x="683" y="-99.8" font-family="Times,serif" font-size="14.00" fill="#000000">EditTaskComponent</text>
</g>
<!-- EditTaskComponent&#45;&gt;BoardModule -->
<g id="edge5" class="edge">
<title>EditTaskComponent&#45;&gt;BoardModule</title>
<path fill="none" stroke="#000000" d="M683,-122.1061C683,-122.1061 683,-140.991 683,-140.991"/>
<polygon fill="#000000" stroke="#000000" points="679.5001,-140.9909 683,-150.991 686.5001,-140.991 679.5001,-140.9909"/>
</g>
<!-- TodoComponent -->
<g id="node6" class="node">
<title>TodoComponent</title>
<polygon fill="#ffffb3" stroke="#000000" points="599.3851,-122 488.6149,-122 488.6149,-86 599.3851,-86 599.3851,-122"/>
<text text-anchor="middle" x="544" y="-99.8" font-family="Times,serif" font-size="14.00" fill="#000000">TodoComponent</text>
</g>
<!-- TodoComponent&#45;&gt;BoardModule -->
<g id="edge6" class="edge">
<title>TodoComponent&#45;&gt;BoardModule</title>
<path fill="none" stroke="#000000" d="M544,-122.0091C544,-138.0494 544,-159 544,-159 544,-159 625.9409,-159 625.9409,-159"/>
<polygon fill="#000000" stroke="#000000" points="625.941,-162.5001 635.9409,-159 625.9409,-155.5001 625.941,-162.5001"/>
</g>
<!-- UppercaseFirstLetterPipe -->
<g id="node7" class="node">
<title>UppercaseFirstLetterPipe</title>
<polygon fill="#ffffb3" stroke="#000000" points="470.5506,-122 311.4494,-122 311.4494,-86 470.5506,-86 470.5506,-122"/>
<text text-anchor="middle" x="391" y="-99.8" font-family="Times,serif" font-size="14.00" fill="#000000">UppercaseFirstLetterPipe</text>
</g>
<!-- UppercaseFirstLetterPipe&#45;&gt;BoardModule -->
<g id="edge7" class="edge">
<title>UppercaseFirstLetterPipe&#45;&gt;BoardModule</title>
<path fill="none" stroke="#000000" d="M391,-122.2667C391,-140.5552 391,-166 391,-166 391,-166 626.0851,-166 626.0851,-166"/>
<polygon fill="#000000" stroke="#000000" points="626.0852,-169.5001 636.0851,-166 626.0851,-162.5001 626.0852,-169.5001"/>
</g>
<!-- BoardRoutingModule -->
<g id="node9" class="node">
<title>BoardRoutingModule</title>
<polygon fill="#8dd3c7" stroke="#000000" points="287.3795,-122 284.3795,-126 263.3795,-126 260.3795,-122 148.6205,-122 148.6205,-86 287.3795,-86 287.3795,-122"/>
<text text-anchor="middle" x="218" y="-99.8" font-family="Times,serif" font-size="14.00" fill="#000000">BoardRoutingModule</text>
</g>
<!-- BoardRoutingModule&#45;&gt;BoardModule -->
<g id="edge8" class="edge">
<title>BoardRoutingModule&#45;&gt;BoardModule</title>
<path fill="none" stroke="#000000" d="M218,-122.1289C218,-142.5724 218,-173 218,-173 218,-173 625.8543,-173 625.8543,-173"/>
<polygon fill="#000000" stroke="#000000" points="625.8544,-176.5001 635.8543,-173 625.8543,-169.5001 625.8544,-176.5001"/>
</g>
<!-- MaterialModule -->
<g id="node10" class="node">
<title>MaterialModule</title>
<polygon fill="#8dd3c7" stroke="#000000" points="130.4706,-122 127.4706,-126 106.4706,-126 103.4706,-122 23.5294,-122 23.5294,-86 130.4706,-86 130.4706,-122"/>
<text text-anchor="middle" x="77" y="-99.8" font-family="Times,serif" font-size="14.00" fill="#000000">MaterialModule</text>
</g>
<!-- MaterialModule&#45;&gt;BoardModule -->
<g id="edge9" class="edge">
<title>MaterialModule&#45;&gt;BoardModule</title>
<path fill="none" stroke="#000000" d="M77,-122.0109C77,-144.4852 77,-180 77,-180 77,-180 626.2037,-180 626.2037,-180"/>
<polygon fill="#000000" stroke="#000000" points="626.2038,-183.5001 636.2037,-180 626.2037,-176.5001 626.2038,-183.5001"/>
</g>
</g>
</svg>
