<?xml version="1.0" encoding="UTF-8" standalone="no"?>
<!DOCTYPE svg PUBLIC "-//W3C//DTD SVG 1.1//EN"
 "http://www.w3.org/Graphics/SVG/1.1/DTD/svg11.dtd">
<!-- Generated by graphviz version 2.40.1 (20161225.0304)
 -->
<!-- Title: dependencies Pages: 1 -->
<svg width="1342pt" height="211pt"
 viewBox="0.00 0.00 1342.00 211.00" xmlns="http://www.w3.org/2000/svg" xmlns:xlink="http://www.w3.org/1999/xlink">
<g id="graph0" class="graph" transform="scale(1 1) rotate(0) translate(4 207)">
<title>dependencies</title>
<polygon fill="#ffffff" stroke="transparent" points="-4,4 -4,-207 1338,-207 1338,4 -4,4"/>
<text text-anchor="start" x="646.0091" y="-42.4" font-family="sans-serif" font-weight="bold" font-size="14.00" fill="#000000">Legend</text>
<polygon fill="#ffffb3" stroke="transparent" points="433,-10 433,-30 453,-30 453,-10 433,-10"/>
<text text-anchor="start" x="456.629" y="-15.4" font-family="sans-serif" font-size="14.00" fill="#000000"> &#160;Declarations</text>
<polygon fill="#8dd3c7" stroke="transparent" points="546,-10 546,-30 566,-30 566,-10 546,-10"/>
<text text-anchor="start" x="569.7251" y="-15.4" font-family="sans-serif" font-size="14.00" fill="#000000"> &#160;Module</text>
<polygon fill="#80b1d3" stroke="transparent" points="632,-10 632,-30 652,-30 652,-10 632,-10"/>
<text text-anchor="start" x="655.7812" y="-15.4" font-family="sans-serif" font-size="14.00" fill="#000000"> &#160;Bootstrap</text>
<polygon fill="#fdb462" stroke="transparent" points="729,-10 729,-30 749,-30 749,-10 729,-10"/>
<text text-anchor="start" x="752.6732" y="-15.4" font-family="sans-serif" font-size="14.00" fill="#000000"> &#160;Providers</text>
<polygon fill="#fb8072" stroke="transparent" points="825,-10 825,-30 845,-30 845,-10 825,-10"/>
<text text-anchor="start" x="848.7258" y="-15.4" font-family="sans-serif" font-size="14.00" fill="#000000"> &#160;Exports</text>
<g id="clust1" class="cluster">
<title>cluster_BoardModule</title>
<polygon fill="none" stroke="#000000" stroke-dasharray="1,5" points="8,-70 8,-195 1326,-195 1326,-70 8,-70"/>
</g>
<g id="clust2" class="cluster">
<title>cluster_BoardModule_declarations</title>
<polygon fill="none" stroke="#000000" points="533,-78 533,-130 1318,-130 1318,-78 533,-78"/>
</g>
<g id="clust8" class="cluster">
<title>cluster_BoardModule_imports</title>
<polygon fill="none" stroke="#000000" points="16,-78 16,-130 525,-130 525,-78 16,-78"/>
</g>
<!-- BoardComponent -->
<g id="node1" class="node">
<title>BoardComponent</title>
<polygon fill="#ffffb3" stroke="#000000" points="1309.5451,-122 1194.4549,-122 1194.4549,-86 1309.5451,-86 1309.5451,-122"/>
<text text-anchor="middle" x="1252" y="-99.8" font-family="Times,serif" font-size="14.00" fill="#000000">BoardComponent</text>
</g>
<!-- BoardModule -->
<g id="node6" class="node">
<title>BoardModule</title>
<polygon fill="#8dd3c7" stroke="#000000" points="667.7619,-187 664.7619,-191 643.7619,-191 640.7619,-187 574.2381,-187 574.2381,-151 667.7619,-151 667.7619,-187"/>
<text text-anchor="middle" x="621" y="-164.8" font-family="Times,serif" font-size="14.00" fill="#000000">BoardModule</text>
</g>
<!-- BoardComponent&#45;&gt;BoardModule -->
<g id="edge1" class="edge">
<title>BoardComponent&#45;&gt;BoardModule</title>
<path fill="none" stroke="#000000" d="M1252,-122.0109C1252,-144.4852 1252,-180 1252,-180 1252,-180 677.912,-180 677.912,-180"/>
<polygon fill="#000000" stroke="#000000" points="677.9121,-176.5001 667.912,-180 677.912,-183.5001 677.9121,-176.5001"/>
</g>
<!-- CreateTaskComponent -->
<g id="node2" class="node">
<title>CreateTaskComponent</title>
<polygon fill="#ffffb3" stroke="#000000" points="1176.5758,-122 1031.4242,-122 1031.4242,-86 1176.5758,-86 1176.5758,-122"/>
<text text-anchor="middle" x="1104" y="-99.8" font-family="Times,serif" font-size="14.00" fill="#000000">CreateTaskComponent</text>
</g>
<!-- CreateTaskComponent&#45;&gt;BoardModule -->
<g id="edge2" class="edge">
<title>CreateTaskComponent&#45;&gt;BoardModule</title>
<path fill="none" stroke="#000000" d="M1104,-122.1289C1104,-142.5724 1104,-173 1104,-173 1104,-173 678.1915,-173 678.1915,-173"/>
<polygon fill="#000000" stroke="#000000" points="678.1915,-169.5001 668.1915,-173 678.1915,-176.5001 678.1915,-169.5001"/>
</g>
<!-- TasksCardListComponent -->
<g id="node3" class="node">
<title>TasksCardListComponent</title>
<polygon fill="#ffffb3" stroke="#000000" points="1013.479,-122 850.521,-122 850.521,-86 1013.479,-86 1013.479,-122"/>
<text text-anchor="middle" x="932" y="-99.8" font-family="Times,serif" font-size="14.00" fill="#000000">TasksCardListComponent</text>
</g>
<!-- TasksCardListComponent&#45;&gt;BoardModule -->
<g id="edge3" class="edge">
<title>TasksCardListComponent&#45;&gt;BoardModule</title>
<path fill="none" stroke="#000000" d="M932,-122.2667C932,-140.5552 932,-166 932,-166 932,-166 677.8966,-166 677.8966,-166"/>
<polygon fill="#000000" stroke="#000000" points="677.8966,-162.5001 667.8966,-166 677.8965,-169.5001 677.8966,-162.5001"/>
</g>
<!-- TasksComponent -->
<g id="node4" class="node">
<title>TasksComponent</title>
<polygon fill="#ffffb3" stroke="#000000" points="832.9888,-122 719.0112,-122 719.0112,-86 832.9888,-86 832.9888,-122"/>
<text text-anchor="middle" x="776" y="-99.8" font-family="Times,serif" font-size="14.00" fill="#000000">TasksComponent</text>
</g>
<!-- TasksComponent&#45;&gt;BoardModule -->
<g id="edge4" class="edge">
<title>TasksComponent&#45;&gt;BoardModule</title>
<path fill="none" stroke="#000000" d="M776,-122.0091C776,-138.0494 776,-159 776,-159 776,-159 677.9257,-159 677.9257,-159"/>
<polygon fill="#000000" stroke="#000000" points="677.9258,-155.5001 667.9257,-159 677.9257,-162.5001 677.9258,-155.5001"/>
</g>
<!-- UppercaseFirstLetterPipe -->
<g id="node5" class="node">
<title>UppercaseFirstLetterPipe</title>
<polygon fill="#ffffb3" stroke="#000000" points="700.5506,-122 541.4494,-122 541.4494,-86 700.5506,-86 700.5506,-122"/>
<text text-anchor="middle" x="621" y="-99.8" font-family="Times,serif" font-size="14.00" fill="#000000">UppercaseFirstLetterPipe</text>
</g>
<!-- UppercaseFirstLetterPipe&#45;&gt;BoardModule -->
<g id="edge5" class="edge">
<title>UppercaseFirstLetterPipe&#45;&gt;BoardModule</title>
<path fill="none" stroke="#000000" d="M621,-122.1061C621,-122.1061 621,-140.991 621,-140.991"/>
<polygon fill="#000000" stroke="#000000" points="617.5001,-140.9909 621,-150.991 624.5001,-140.991 617.5001,-140.9909"/>
</g>
<!-- BoardRoutingModule -->
<g id="node7" class="node">
<title>BoardRoutingModule</title>
<polygon fill="#8dd3c7" stroke="#000000" points="517.3795,-122 514.3795,-126 493.3795,-126 490.3795,-122 378.6205,-122 378.6205,-86 517.3795,-86 517.3795,-122"/>
<text text-anchor="middle" x="448" y="-99.8" font-family="Times,serif" font-size="14.00" fill="#000000">BoardRoutingModule</text>
</g>
<!-- BoardRoutingModule&#45;&gt;BoardModule -->
<g id="edge6" class="edge">
<title>BoardRoutingModule&#45;&gt;BoardModule</title>
<path fill="none" stroke="#000000" d="M448,-122.0091C448,-138.0494 448,-159 448,-159 448,-159 564.1837,-159 564.1837,-159"/>
<polygon fill="#000000" stroke="#000000" points="564.1837,-162.5001 574.1837,-159 564.1837,-155.5001 564.1837,-162.5001"/>
</g>
<!-- DialogModule -->
<g id="node8" class="node">
<title>DialogModule</title>
<polygon fill="#8dd3c7" stroke="#000000" points="360.6528,-122 357.6528,-126 336.6528,-126 333.6528,-122 263.3472,-122 263.3472,-86 360.6528,-86 360.6528,-122"/>
<text text-anchor="middle" x="312" y="-99.8" font-family="Times,serif" font-size="14.00" fill="#000000">DialogModule</text>
</g>
<!-- DialogModule&#45;&gt;BoardModule -->
<g id="edge7" class="edge">
<title>DialogModule&#45;&gt;BoardModule</title>
<path fill="none" stroke="#000000" d="M312,-122.2667C312,-140.5552 312,-166 312,-166 312,-166 564.0696,-166 564.0696,-166"/>
<polygon fill="#000000" stroke="#000000" points="564.0696,-169.5001 574.0696,-166 564.0695,-162.5001 564.0696,-169.5001"/>
</g>
<!-- MaterialModule -->
<g id="node9" class="node">
<title>MaterialModule</title>
<polygon fill="#8dd3c7" stroke="#000000" points="245.4706,-122 242.4706,-126 221.4706,-126 218.4706,-122 138.5294,-122 138.5294,-86 245.4706,-86 245.4706,-122"/>
<text text-anchor="middle" x="192" y="-99.8" font-family="Times,serif" font-size="14.00" fill="#000000">MaterialModule</text>
</g>
<!-- MaterialModule&#45;&gt;BoardModule -->
<g id="edge8" class="edge">
<title>MaterialModule&#45;&gt;BoardModule</title>
<path fill="none" stroke="#000000" d="M192,-122.1289C192,-142.5724 192,-173 192,-173 192,-173 563.8623,-173 563.8623,-173"/>
<polygon fill="#000000" stroke="#000000" points="563.8624,-176.5001 573.8623,-173 563.8623,-169.5001 563.8624,-176.5001"/>
</g>
<!-- ModalModule -->
<g id="node10" class="node">
<title>ModalModule</title>
<polygon fill="#8dd3c7" stroke="#000000" points="120.0997,-122 117.0997,-126 96.0997,-126 93.0997,-122 23.9003,-122 23.9003,-86 120.0997,-86 120.0997,-122"/>
<text text-anchor="middle" x="72" y="-99.8" font-family="Times,serif" font-size="14.00" fill="#000000">ModalModule</text>
</g>
<!-- ModalModule&#45;&gt;BoardModule -->
<g id="edge9" class="edge">
<title>ModalModule&#45;&gt;BoardModule</title>
<path fill="none" stroke="#000000" d="M72,-122.0109C72,-144.4852 72,-180 72,-180 72,-180 564.1926,-180 564.1926,-180"/>
<polygon fill="#000000" stroke="#000000" points="564.1926,-183.5001 574.1926,-180 564.1925,-176.5001 564.1926,-183.5001"/>
</g>
</g>
</svg>
