<?xml version="1.0" encoding="UTF-8" standalone="no"?>
<!DOCTYPE svg PUBLIC "-//W3C//DTD SVG 1.1//EN"
 "http://www.w3.org/Graphics/SVG/1.1/DTD/svg11.dtd">
<!-- Generated by graphviz version 2.40.1 (20161225.0304)
 -->
<!-- Title: dependencies Pages: 1 -->
<svg width="1261pt" height="211pt"
 viewBox="0.00 0.00 1261.00 211.00" xmlns="http://www.w3.org/2000/svg" xmlns:xlink="http://www.w3.org/1999/xlink">
<g id="graph0" class="graph" transform="scale(1 1) rotate(0) translate(4 207)">
<title>dependencies</title>
<polygon fill="#ffffff" stroke="transparent" points="-4,4 -4,-207 1257,-207 1257,4 -4,4"/>
<text text-anchor="start" x="605.5091" y="-42.4" font-family="sans-serif" font-weight="bold" font-size="14.00" fill="#000000">Legend</text>
<polygon fill="#ffffb3" stroke="transparent" points="392.5,-10 392.5,-30 412.5,-30 412.5,-10 392.5,-10"/>
<text text-anchor="start" x="416.129" y="-15.4" font-family="sans-serif" font-size="14.00" fill="#000000"> &#160;Declarations</text>
<polygon fill="#8dd3c7" stroke="transparent" points="505.5,-10 505.5,-30 525.5,-30 525.5,-10 505.5,-10"/>
<text text-anchor="start" x="529.2251" y="-15.4" font-family="sans-serif" font-size="14.00" fill="#000000"> &#160;Module</text>
<polygon fill="#80b1d3" stroke="transparent" points="591.5,-10 591.5,-30 611.5,-30 611.5,-10 591.5,-10"/>
<text text-anchor="start" x="615.2812" y="-15.4" font-family="sans-serif" font-size="14.00" fill="#000000"> &#160;Bootstrap</text>
<polygon fill="#fdb462" stroke="transparent" points="688.5,-10 688.5,-30 708.5,-30 708.5,-10 688.5,-10"/>
<text text-anchor="start" x="712.1732" y="-15.4" font-family="sans-serif" font-size="14.00" fill="#000000"> &#160;Providers</text>
<polygon fill="#fb8072" stroke="transparent" points="784.5,-10 784.5,-30 804.5,-30 804.5,-10 784.5,-10"/>
<text text-anchor="start" x="808.2258" y="-15.4" font-family="sans-serif" font-size="14.00" fill="#000000"> &#160;Exports</text>
<g id="clust1" class="cluster">
<title>cluster_BoardModule</title>
<polygon fill="none" stroke="#000000" stroke-dasharray="1,5" points="8,-70 8,-195 1245,-195 1245,-70 8,-70"/>
</g>
<g id="clust2" class="cluster">
<title>cluster_BoardModule_declarations</title>
<polygon fill="none" stroke="#000000" points="303,-78 303,-130 1237,-130 1237,-78 303,-78"/>
</g>
<g id="clust9" class="cluster">
<title>cluster_BoardModule_imports</title>
<polygon fill="none" stroke="#000000" points="16,-78 16,-130 295,-130 295,-78 16,-78"/>
</g>
<!-- BoardComponent -->
<g id="node1" class="node">
<title>BoardComponent</title>
<polygon fill="#ffffb3" stroke="#000000" points="1228.5451,-122 1113.4549,-122 1113.4549,-86 1228.5451,-86 1228.5451,-122"/>
<text text-anchor="middle" x="1171" y="-99.8" font-family="Times,serif" font-size="14.00" fill="#000000">BoardComponent</text>
</g>
<!-- BoardModule -->
<g id="node7" class="node">
<title>BoardModule</title>
<polygon fill="#8dd3c7" stroke="#000000" points="670.7619,-187 667.7619,-191 646.7619,-191 643.7619,-187 577.2381,-187 577.2381,-151 670.7619,-151 670.7619,-187"/>
<text text-anchor="middle" x="624" y="-164.8" font-family="Times,serif" font-size="14.00" fill="#000000">BoardModule</text>
</g>
<!-- BoardComponent&#45;&gt;BoardModule -->
<g id="edge1" class="edge">
<title>BoardComponent&#45;&gt;BoardModule</title>
<path fill="none" stroke="#000000" d="M1171,-122.2921C1171,-144.2057 1171,-178 1171,-178 1171,-178 681.1103,-178 681.1103,-178"/>
<polygon fill="#000000" stroke="#000000" points="681.1104,-174.5001 671.1103,-178 681.1103,-181.5001 681.1104,-174.5001"/>
</g>
<!-- CreateTaskComponent -->
<g id="node2" class="node">
<title>CreateTaskComponent</title>
<polygon fill="#ffffb3" stroke="#000000" points="1095.5758,-122 950.4242,-122 950.4242,-86 1095.5758,-86 1095.5758,-122"/>
<text text-anchor="middle" x="1023" y="-99.8" font-family="Times,serif" font-size="14.00" fill="#000000">CreateTaskComponent</text>
</g>
<!-- CreateTaskComponent&#45;&gt;BoardModule -->
<g id="edge2" class="edge">
<title>CreateTaskComponent&#45;&gt;BoardModule</title>
<path fill="none" stroke="#000000" d="M1023,-122.1061C1023,-141.3391 1023,-169 1023,-169 1023,-169 680.9437,-169 680.9437,-169"/>
<polygon fill="#000000" stroke="#000000" points="680.9437,-165.5001 670.9437,-169 680.9436,-172.5001 680.9437,-165.5001"/>
</g>
<!-- EditTaskComponent -->
<g id="node3" class="node">
<title>EditTaskComponent</title>
<polygon fill="#ffffb3" stroke="#000000" points="932.8781,-122 801.1219,-122 801.1219,-86 932.8781,-86 932.8781,-122"/>
<text text-anchor="middle" x="867" y="-99.8" font-family="Times,serif" font-size="14.00" fill="#000000">EditTaskComponent</text>
</g>
<!-- EditTaskComponent&#45;&gt;BoardModule -->
<g id="edge3" class="edge">
<title>EditTaskComponent&#45;&gt;BoardModule</title>
<path fill="none" stroke="#000000" d="M867,-122.027C867,-138.3976 867,-160 867,-160 867,-160 680.8528,-160 680.8528,-160"/>
<polygon fill="#000000" stroke="#000000" points="680.8529,-156.5001 670.8528,-160 680.8528,-163.5001 680.8529,-156.5001"/>
</g>
<!-- TasksCardListComponent -->
<g id="node4" class="node">
<title>TasksCardListComponent</title>
<polygon fill="#ffffb3" stroke="#000000" points="783.479,-122 620.521,-122 620.521,-86 783.479,-86 783.479,-122"/>
<text text-anchor="middle" x="702" y="-99.8" font-family="Times,serif" font-size="14.00" fill="#000000">TasksCardListComponent</text>
</g>
<!-- TasksCardListComponent&#45;&gt;BoardModule -->
<g id="edge4" class="edge">
<title>TasksCardListComponent&#45;&gt;BoardModule</title>
<path fill="none" stroke="#000000" d="M645.6957,-122.1061C645.6957,-122.1061 645.6957,-140.991 645.6957,-140.991"/>
<polygon fill="#000000" stroke="#000000" points="642.1957,-140.9909 645.6957,-150.991 649.1957,-140.991 642.1957,-140.9909"/>
</g>
<!-- TasksComponent -->
<g id="node5" class="node">
<title>TasksComponent</title>
<polygon fill="#ffffb3" stroke="#000000" points="602.9888,-122 489.0112,-122 489.0112,-86 602.9888,-86 602.9888,-122"/>
<text text-anchor="middle" x="546" y="-99.8" font-family="Times,serif" font-size="14.00" fill="#000000">TasksComponent</text>
</g>
<!-- TasksComponent&#45;&gt;BoardModule -->
<g id="edge5" class="edge">
<title>TasksComponent&#45;&gt;BoardModule</title>
<path fill="none" stroke="#000000" d="M590.0568,-122.1061C590.0568,-122.1061 590.0568,-140.991 590.0568,-140.991"/>
<polygon fill="#000000" stroke="#000000" points="586.5569,-140.9909 590.0568,-150.991 593.5569,-140.991 586.5569,-140.9909"/>
</g>
<!-- UppercaseFirstLetterPipe -->
<g id="node6" class="node">
<title>UppercaseFirstLetterPipe</title>
<polygon fill="#ffffb3" stroke="#000000" points="470.5506,-122 311.4494,-122 311.4494,-86 470.5506,-86 470.5506,-122"/>
<text text-anchor="middle" x="391" y="-99.8" font-family="Times,serif" font-size="14.00" fill="#000000">UppercaseFirstLetterPipe</text>
</g>
<!-- UppercaseFirstLetterPipe&#45;&gt;BoardModule -->
<g id="edge6" class="edge">
<title>UppercaseFirstLetterPipe&#45;&gt;BoardModule</title>
<path fill="none" stroke="#000000" d="M391,-122.027C391,-138.3976 391,-160 391,-160 391,-160 567.1293,-160 567.1293,-160"/>
<polygon fill="#000000" stroke="#000000" points="567.1293,-163.5001 577.1293,-160 567.1292,-156.5001 567.1293,-163.5001"/>
</g>
<!-- BoardRoutingModule -->
<g id="node8" class="node">
<title>BoardRoutingModule</title>
<polygon fill="#8dd3c7" stroke="#000000" points="287.3795,-122 284.3795,-126 263.3795,-126 260.3795,-122 148.6205,-122 148.6205,-86 287.3795,-86 287.3795,-122"/>
<text text-anchor="middle" x="218" y="-99.8" font-family="Times,serif" font-size="14.00" fill="#000000">BoardRoutingModule</text>
</g>
<!-- BoardRoutingModule&#45;&gt;BoardModule -->
<g id="edge7" class="edge">
<title>BoardRoutingModule&#45;&gt;BoardModule</title>
<path fill="none" stroke="#000000" d="M218,-122.1061C218,-141.3391 218,-169 218,-169 218,-169 567.03,-169 567.03,-169"/>
<polygon fill="#000000" stroke="#000000" points="567.03,-172.5001 577.03,-169 567.03,-165.5001 567.03,-172.5001"/>
</g>
<!-- MaterialModule -->
<g id="node9" class="node">
<title>MaterialModule</title>
<polygon fill="#8dd3c7" stroke="#000000" points="130.4706,-122 127.4706,-126 106.4706,-126 103.4706,-122 23.5294,-122 23.5294,-86 130.4706,-86 130.4706,-122"/>
<text text-anchor="middle" x="77" y="-99.8" font-family="Times,serif" font-size="14.00" fill="#000000">MaterialModule</text>
</g>
<!-- MaterialModule&#45;&gt;BoardModule -->
<g id="edge8" class="edge">
<title>MaterialModule&#45;&gt;BoardModule</title>
<path fill="none" stroke="#000000" d="M77,-122.2921C77,-144.2057 77,-178 77,-178 77,-178 566.8897,-178 566.8897,-178"/>
<polygon fill="#000000" stroke="#000000" points="566.8897,-181.5001 576.8897,-178 566.8896,-174.5001 566.8897,-181.5001"/>
</g>
</g>
</svg>
