<?xml version="1.0" encoding="UTF-8" standalone="no"?>
<!DOCTYPE svg PUBLIC "-//W3C//DTD SVG 1.1//EN"
 "http://www.w3.org/Graphics/SVG/1.1/DTD/svg11.dtd">
<!-- Generated by graphviz version 2.40.1 (20161225.0304)
 -->
<!-- Title: dependencies Pages: 1 -->
<svg width="3252pt" height="436pt"
 viewBox="0.00 0.00 3252.00 436.00" xmlns="http://www.w3.org/2000/svg" xmlns:xlink="http://www.w3.org/1999/xlink">
<g id="graph0" class="graph" transform="scale(1 1) rotate(0) translate(4 432)">
<title>dependencies</title>
<polygon fill="#ffffff" stroke="transparent" points="-4,4 -4,-432 3248,-432 3248,4 -4,4"/>
<text text-anchor="start" x="1601.0091" y="-42.4" font-family="sans-serif" font-weight="bold" font-size="14.00" fill="#000000">Legend</text>
<polygon fill="#ffffb3" stroke="transparent" points="1388,-10 1388,-30 1408,-30 1408,-10 1388,-10"/>
<text text-anchor="start" x="1411.629" y="-15.4" font-family="sans-serif" font-size="14.00" fill="#000000"> &#160;Declarations</text>
<polygon fill="#8dd3c7" stroke="transparent" points="1501,-10 1501,-30 1521,-30 1521,-10 1501,-10"/>
<text text-anchor="start" x="1524.7251" y="-15.4" font-family="sans-serif" font-size="14.00" fill="#000000"> &#160;Module</text>
<polygon fill="#80b1d3" stroke="transparent" points="1587,-10 1587,-30 1607,-30 1607,-10 1587,-10"/>
<text text-anchor="start" x="1610.7812" y="-15.4" font-family="sans-serif" font-size="14.00" fill="#000000"> &#160;Bootstrap</text>
<polygon fill="#fdb462" stroke="transparent" points="1684,-10 1684,-30 1704,-30 1704,-10 1684,-10"/>
<text text-anchor="start" x="1707.6732" y="-15.4" font-family="sans-serif" font-size="14.00" fill="#000000"> &#160;Providers</text>
<polygon fill="#fb8072" stroke="transparent" points="1780,-10 1780,-30 1800,-30 1800,-10 1780,-10"/>
<text text-anchor="start" x="1803.7258" y="-15.4" font-family="sans-serif" font-size="14.00" fill="#000000"> &#160;Exports</text>
<g id="clust1" class="cluster">
<title>cluster_AppModule</title>
<polygon fill="none" stroke="#000000" stroke-dasharray="1,5" points="8,-146 8,-420 633,-420 633,-146 8,-146"/>
</g>
<g id="clust2" class="cluster">
<title>cluster_AppModule_declarations</title>
<polygon fill="none" stroke="#000000" points="503,-230 503,-282 625,-282 625,-230 503,-230"/>
</g>
<g id="clust4" class="cluster">
<title>cluster_AppModule_imports</title>
<polygon fill="none" stroke="#000000" points="351,-154 351,-282 495,-282 495,-154 351,-154"/>
</g>
<g id="clust6" class="cluster">
<title>cluster_AppModule_bootstrap</title>
<polygon fill="none" stroke="#000000" points="320,-360 320,-412 444,-412 444,-360 320,-360"/>
</g>
<g id="clust7" class="cluster">
<title>cluster_AppModule_providers</title>
<polygon fill="none" stroke="#000000" points="16,-230 16,-282 343,-282 343,-230 16,-230"/>
</g>
<g id="clust14" class="cluster">
<title>cluster_AuthModule</title>
<polygon fill="none" stroke="#000000" stroke-dasharray="1,5" points="1276,-70 1276,-206 1843,-206 1843,-70 1276,-70"/>
</g>
<g id="clust15" class="cluster">
<title>cluster_AuthModule_declarations</title>
<polygon fill="none" stroke="#000000" points="1565,-78 1565,-130 1835,-130 1835,-78 1565,-78"/>
</g>
<g id="clust18" class="cluster">
<title>cluster_AuthModule_imports</title>
<polygon fill="none" stroke="#000000" points="1284,-78 1284,-130 1557,-130 1557,-78 1284,-78"/>
</g>
<g id="clust28" class="cluster">
<title>cluster_BoardModule</title>
<polygon fill="none" stroke="#000000" stroke-dasharray="1,5" points="1851,-146 1851,-282 2930,-282 2930,-146 1851,-146"/>
</g>
<g id="clust29" class="cluster">
<title>cluster_BoardModule_declarations</title>
<polygon fill="none" stroke="#000000" points="1859,-154 1859,-206 2644,-206 2644,-154 1859,-154"/>
</g>
<g id="clust35" class="cluster">
<title>cluster_BoardModule_imports</title>
<polygon fill="none" stroke="#000000" points="2652,-154 2652,-206 2922,-206 2922,-154 2652,-154"/>
</g>
<g id="clust45" class="cluster">
<title>cluster_CoreModule</title>
<polygon fill="none" stroke="#000000" stroke-dasharray="1,5" points="641,-146 641,-214 1268,-214 1268,-146 641,-146"/>
</g>
<g id="clust46" class="cluster">
<title>cluster_CoreModule_declarations</title>
<polygon fill="none" stroke="#000000" points="945,-154 945,-206 1260,-206 1260,-154 945,-154"/>
</g>
<g id="clust49" class="cluster">
<title>cluster_CoreModule_imports</title>
<polygon fill="none" stroke="#000000" points="799,-154 799,-206 937,-206 937,-154 799,-154"/>
</g>
<g id="clust50" class="cluster">
<title>cluster_CoreModule_exports</title>
<polygon fill="none" stroke="#000000" points="649,-154 649,-206 791,-206 791,-154 649,-154"/>
</g>
<g id="clust53" class="cluster">
<title>cluster_DialogModule</title>
<polygon fill="none" stroke="#000000" stroke-dasharray="1,5" points="2938,-222 2938,-290 3236,-290 3236,-222 2938,-222"/>
</g>
<g id="clust54" class="cluster">
<title>cluster_DialogModule_declarations</title>
<polygon fill="none" stroke="#000000" points="3092,-230 3092,-282 3228,-282 3228,-230 3092,-230"/>
</g>
<g id="clust57" class="cluster">
<title>cluster_DialogModule_exports</title>
<polygon fill="none" stroke="#000000" points="2946,-230 2946,-282 3084,-282 3084,-230 2946,-230"/>
</g>
<g id="clust66" class="cluster">
<title>cluster_NavigationModule</title>
<polygon fill="none" stroke="#000000" stroke-dasharray="1,5" points="636,-70 636,-138 1090,-138 1090,-70 636,-70"/>
</g>
<g id="clust67" class="cluster">
<title>cluster_NavigationModule_declarations</title>
<polygon fill="none" stroke="#000000" points="798,-78 798,-130 1082,-130 1082,-78 798,-78"/>
</g>
<g id="clust71" class="cluster">
<title>cluster_NavigationModule_exports</title>
<polygon fill="none" stroke="#000000" points="644,-78 644,-130 790,-130 790,-78 644,-78"/>
</g>
<!-- AppComponent -->
<g id="node1" class="node">
<title>AppComponent</title>
<polygon fill="#ffffb3" stroke="#000000" points="616.9399,-274 511.0601,-274 511.0601,-238 616.9399,-238 616.9399,-274"/>
<text text-anchor="middle" x="564" y="-251.8" font-family="Times,serif" font-size="14.00" fill="#000000">AppComponent</text>
</g>
<!-- AppModule -->
<g id="node2" class="node">
<title>AppModule</title>
<polygon fill="#8dd3c7" stroke="#000000" points="423.6571,-339 420.6571,-343 399.6571,-343 396.6571,-339 340.3429,-339 340.3429,-303 423.6571,-303 423.6571,-339"/>
<text text-anchor="middle" x="382" y="-316.8" font-family="Times,serif" font-size="14.00" fill="#000000">AppModule</text>
</g>
<!-- AppComponent&#45;&gt;AppModule -->
<g id="edge1" class="edge">
<title>AppComponent&#45;&gt;AppModule</title>
<path fill="none" stroke="#000000" d="M564,-274.1061C564,-293.3391 564,-321 564,-321 564,-321 433.7545,-321 433.7545,-321"/>
<polygon fill="#000000" stroke="#000000" points="433.7545,-317.5001 423.7545,-321 433.7544,-324.5001 433.7545,-317.5001"/>
</g>
<!-- AppComponent  -->
<g id="node5" class="node">
<title>AppComponent </title>
<polygon fill="#80b1d3" stroke="#000000" points="436.439,-404 327.561,-404 327.561,-368 436.439,-368 436.439,-404"/>
<text text-anchor="middle" x="382" y="-381.8" font-family="Times,serif" font-size="14.00" fill="#000000">AppComponent </text>
</g>
<!-- AppModule&#45;&gt;AppComponent  -->
<g id="edge4" class="edge">
<title>AppModule&#45;&gt;AppComponent </title>
<path fill="none" stroke="#000000" stroke-dasharray="1,5" d="M382,-339.1061C382,-339.1061 382,-357.991 382,-357.991"/>
<polygon fill="#000000" stroke="#000000" points="378.5001,-357.9909 382,-367.991 385.5001,-357.991 378.5001,-357.9909"/>
</g>
<!-- AppRoutingModule -->
<g id="node3" class="node">
<title>AppRoutingModule</title>
<polygon fill="#8dd3c7" stroke="#000000" points="487.2744,-198 484.2744,-202 463.2744,-202 460.2744,-198 358.7256,-198 358.7256,-162 487.2744,-162 487.2744,-198"/>
<text text-anchor="middle" x="423" y="-175.8" font-family="Times,serif" font-size="14.00" fill="#000000">AppRoutingModule</text>
</g>
<!-- AppRoutingModule&#45;&gt;AppModule -->
<g id="edge2" class="edge">
<title>AppRoutingModule&#45;&gt;AppModule</title>
<path fill="none" stroke="#000000" d="M379.6161,-198.1446C379.6161,-198.1446 379.6161,-292.925 379.6161,-292.925"/>
<polygon fill="#000000" stroke="#000000" points="376.1161,-292.925 379.6161,-302.925 383.1161,-292.925 376.1161,-292.925"/>
</g>
<!-- CoreModule -->
<g id="node4" class="node">
<title>CoreModule</title>
<polygon fill="#8dd3c7" stroke="#000000" points="487.2619,-274 484.2619,-278 463.2619,-278 460.2619,-274 400.7381,-274 400.7381,-238 487.2619,-238 487.2619,-274"/>
<text text-anchor="middle" x="444" y="-251.8" font-family="Times,serif" font-size="14.00" fill="#000000">CoreModule</text>
</g>
<!-- AppRoutingModule&#45;&gt;CoreModule -->
<g id="edge21" class="edge">
<title>AppRoutingModule&#45;&gt;CoreModule</title>
<path fill="none" stroke="#000000" d="M413.0137,-198.0109C413.0137,-198.0109 413.0137,-227.855 413.0137,-227.855"/>
<polygon fill="#000000" stroke="#000000" points="409.5138,-227.8549 413.0137,-237.855 416.5138,-227.855 409.5138,-227.8549"/>
</g>
<!-- NavigationModule -->
<g id="node23" class="node">
<title>NavigationModule</title>
<polygon fill="#8dd3c7" stroke="#000000" points="928.7576,-198 925.7576,-202 904.7576,-202 901.7576,-198 807.2424,-198 807.2424,-162 928.7576,-162 928.7576,-198"/>
<text text-anchor="middle" x="868" y="-175.8" font-family="Times,serif" font-size="14.00" fill="#000000">NavigationModule</text>
</g>
<!-- AppRoutingModule&#45;&gt;NavigationModule -->
<g id="edge30" class="edge">
<title>AppRoutingModule&#45;&gt;NavigationModule</title>
<path fill="none" stroke="#000000" d="M425.4082,-198.1686C425.4082,-202.0459 425.4082,-205 425.4082,-205 425.4082,-205 847.7071,-205 847.7071,-205 847.7071,-205 847.7071,-204.3169 847.7071,-204.3169"/>
<polygon fill="#000000" stroke="#000000" points="851.2073,-208.1686 847.7071,-198.1686 844.2073,-208.1687 851.2073,-208.1686"/>
</g>
<!-- CoreModule&#45;&gt;AppModule -->
<g id="edge3" class="edge">
<title>CoreModule&#45;&gt;AppModule</title>
<path fill="none" stroke="#000000" d="M412.2237,-274.1061C412.2237,-274.1061 412.2237,-292.991 412.2237,-292.991"/>
<polygon fill="#000000" stroke="#000000" points="408.7238,-292.9909 412.2237,-302.991 415.7238,-292.991 408.7238,-292.9909"/>
</g>
<!-- NavigationModule  -->
<g id="node24" class="node">
<title>NavigationModule </title>
<polygon fill="#fb8072" stroke="#000000" points="782.7577,-198 657.2423,-198 657.2423,-162 782.7577,-162 782.7577,-198"/>
<text text-anchor="middle" x="720" y="-175.8" font-family="Times,serif" font-size="14.00" fill="#000000">NavigationModule </text>
</g>
<!-- CoreModule&#45;&gt;NavigationModule  -->
<g id="edge24" class="edge">
<title>CoreModule&#45;&gt;NavigationModule </title>
<path fill="none" stroke="#000000" stroke-dasharray="5,2" d="M487.3272,-256C494.3278,-256 499.3338,-256 499.3338,-256 499.3338,-256 499.3338,-180 499.3338,-180 499.3338,-180 647.3562,-180 647.3562,-180"/>
<polygon fill="#000000" stroke="#000000" points="647.3562,-183.5001 657.3562,-180 647.3561,-176.5001 647.3562,-183.5001"/>
</g>
<!-- AuthInterceptor -->
<g id="node6" class="node">
<title>AuthInterceptor</title>
<ellipse fill="#fdb462" stroke="#000000" cx="262" cy="-256" rx="72.9121" ry="18"/>
<text text-anchor="middle" x="262" y="-251.8" font-family="Times,serif" font-size="14.00" fill="#000000">AuthInterceptor</text>
</g>
<!-- AuthInterceptor&#45;&gt;AppModule -->
<g id="edge5" class="edge">
<title>AuthInterceptor&#45;&gt;AppModule</title>
<path fill="none" stroke="#000000" d="M331.1181,-261.8728C331.1181,-276.7962 331.1181,-315 331.1181,-315 331.1181,-315 332.0044,-315 332.0044,-315"/>
<polygon fill="#000000" stroke="#000000" points="329.9811,-318.5001 339.9811,-315 329.981,-311.5001 329.9811,-318.5001"/>
</g>
<!-- ErrorInterceptor -->
<g id="node7" class="node">
<title>ErrorInterceptor</title>
<ellipse fill="#fdb462" stroke="#000000" cx="98" cy="-256" rx="73.5329" ry="18"/>
<text text-anchor="middle" x="98" y="-251.8" font-family="Times,serif" font-size="14.00" fill="#000000">ErrorInterceptor</text>
</g>
<!-- ErrorInterceptor&#45;&gt;AppModule -->
<g id="edge6" class="edge">
<title>ErrorInterceptor&#45;&gt;AppModule</title>
<path fill="none" stroke="#000000" d="M98,-274.2843C98,-295.3211 98,-327 98,-327 98,-327 330.0948,-327 330.0948,-327"/>
<polygon fill="#000000" stroke="#000000" points="330.0949,-330.5001 340.0948,-327 330.0948,-323.5001 330.0949,-330.5001"/>
</g>
<!-- LoginComponent -->
<g id="node8" class="node">
<title>LoginComponent</title>
<polygon fill="#ffffb3" stroke="#000000" points="1827.2758,-122 1712.7242,-122 1712.7242,-86 1827.2758,-86 1827.2758,-122"/>
<text text-anchor="middle" x="1770" y="-99.8" font-family="Times,serif" font-size="14.00" fill="#000000">LoginComponent</text>
</g>
<!-- AuthModule -->
<g id="node10" class="node">
<title>AuthModule</title>
<polygon fill="#8dd3c7" stroke="#000000" points="1597.5482,-198 1594.5482,-202 1573.5482,-202 1570.5482,-198 1510.4518,-198 1510.4518,-162 1597.5482,-162 1597.5482,-198"/>
<text text-anchor="middle" x="1554" y="-175.8" font-family="Times,serif" font-size="14.00" fill="#000000">AuthModule</text>
</g>
<!-- LoginComponent&#45;&gt;AuthModule -->
<g id="edge7" class="edge">
<title>LoginComponent&#45;&gt;AuthModule</title>
<path fill="none" stroke="#000000" d="M1770,-122.0109C1770,-144.4852 1770,-180 1770,-180 1770,-180 1607.7108,-180 1607.7108,-180"/>
<polygon fill="#000000" stroke="#000000" points="1607.7109,-176.5001 1597.7108,-180 1607.7108,-183.5001 1607.7109,-176.5001"/>
</g>
<!-- SignupComponent -->
<g id="node9" class="node">
<title>SignupComponent</title>
<polygon fill="#ffffb3" stroke="#000000" points="1694.5056,-122 1573.4944,-122 1573.4944,-86 1694.5056,-86 1694.5056,-122"/>
<text text-anchor="middle" x="1634" y="-99.8" font-family="Times,serif" font-size="14.00" fill="#000000">SignupComponent</text>
</g>
<!-- SignupComponent&#45;&gt;AuthModule -->
<g id="edge8" class="edge">
<title>SignupComponent&#45;&gt;AuthModule</title>
<path fill="none" stroke="#000000" d="M1585.6354,-122.0109C1585.6354,-122.0109 1585.6354,-151.855 1585.6354,-151.855"/>
<polygon fill="#000000" stroke="#000000" points="1582.1354,-151.8549 1585.6354,-161.855 1589.1354,-151.855 1582.1354,-151.8549"/>
</g>
<!-- AuthRoutingModule -->
<g id="node11" class="node">
<title>AuthRoutingModule</title>
<polygon fill="#8dd3c7" stroke="#000000" points="1549.1652,-122 1546.1652,-126 1525.1652,-126 1522.1652,-122 1416.8348,-122 1416.8348,-86 1549.1652,-86 1549.1652,-122"/>
<text text-anchor="middle" x="1483" y="-99.8" font-family="Times,serif" font-size="14.00" fill="#000000">AuthRoutingModule</text>
</g>
<!-- AuthRoutingModule&#45;&gt;AuthModule -->
<g id="edge9" class="edge">
<title>AuthRoutingModule&#45;&gt;AuthModule</title>
<path fill="none" stroke="#000000" d="M1529.7795,-122.0109C1529.7795,-122.0109 1529.7795,-151.855 1529.7795,-151.855"/>
<polygon fill="#000000" stroke="#000000" points="1526.2795,-151.8549 1529.7795,-161.855 1533.2795,-151.855 1526.2795,-151.8549"/>
</g>
<!-- MaterialModule -->
<g id="node12" class="node">
<title>MaterialModule</title>
<polygon fill="#8dd3c7" stroke="#000000" points="1398.4706,-122 1395.4706,-126 1374.4706,-126 1371.4706,-122 1291.5294,-122 1291.5294,-86 1398.4706,-86 1398.4706,-122"/>
<text text-anchor="middle" x="1345" y="-99.8" font-family="Times,serif" font-size="14.00" fill="#000000">MaterialModule</text>
</g>
<!-- MaterialModule&#45;&gt;CoreModule -->
<g id="edge22" class="edge">
<title>MaterialModule&#45;&gt;CoreModule</title>
<path fill="none" stroke="#000000" d="M1345,-122.0678C1345,-157.3511 1345,-232 1345,-232 1345,-232 474.9863,-232 474.9863,-232 474.9863,-232 474.9863,-232.581 474.9863,-232.581"/>
<polygon fill="#000000" stroke="#000000" points="471.4865,-227.8097 474.9863,-237.8097 478.4865,-227.8098 471.4865,-227.8097"/>
</g>
<!-- MaterialModule&#45;&gt;AuthModule -->
<g id="edge10" class="edge">
<title>MaterialModule&#45;&gt;AuthModule</title>
<path fill="none" stroke="#000000" d="M1380.6569,-122.0109C1380.6569,-144.4852 1380.6569,-180 1380.6569,-180 1380.6569,-180 1500.2582,-180 1500.2582,-180"/>
<polygon fill="#000000" stroke="#000000" points="1500.2582,-183.5001 1510.2582,-180 1500.2582,-176.5001 1500.2582,-183.5001"/>
</g>
<!-- BoardModule -->
<g id="node18" class="node">
<title>BoardModule</title>
<polygon fill="#8dd3c7" stroke="#000000" points="2390.7619,-274 2387.7619,-278 2366.7619,-278 2363.7619,-274 2297.2381,-274 2297.2381,-238 2390.7619,-238 2390.7619,-274"/>
<text text-anchor="middle" x="2344" y="-251.8" font-family="Times,serif" font-size="14.00" fill="#000000">BoardModule</text>
</g>
<!-- MaterialModule&#45;&gt;BoardModule -->
<g id="edge18" class="edge">
<title>MaterialModule&#45;&gt;BoardModule</title>
<path fill="none" stroke="#000000" d="M1362.8284,-122.1558C1362.8284,-164.2614 1362.8284,-265 1362.8284,-265 1362.8284,-265 2287.0066,-265 2287.0066,-265"/>
<polygon fill="#000000" stroke="#000000" points="2287.0066,-268.5001 2297.0066,-265 2287.0066,-261.5001 2287.0066,-268.5001"/>
</g>
<!-- DialogModule -->
<g id="node20" class="node">
<title>DialogModule</title>
<polygon fill="#8dd3c7" stroke="#000000" points="2913.6528,-198 2910.6528,-202 2889.6528,-202 2886.6528,-198 2816.3472,-198 2816.3472,-162 2913.6528,-162 2913.6528,-198"/>
<text text-anchor="middle" x="2865" y="-175.8" font-family="Times,serif" font-size="14.00" fill="#000000">DialogModule</text>
</g>
<!-- MaterialModule&#45;&gt;DialogModule -->
<g id="edge26" class="edge">
<title>MaterialModule&#45;&gt;DialogModule</title>
<path fill="none" stroke="#000000" d="M1327.1716,-122.2434C1327.1716,-129.4297 1327.1716,-136 1327.1716,-136 1327.1716,-136 2865,-136 2865,-136 2865,-136 2865,-151.8495 2865,-151.8495"/>
<polygon fill="#000000" stroke="#000000" points="2861.5001,-151.8494 2865,-161.8495 2868.5001,-151.8495 2861.5001,-151.8494"/>
</g>
<!-- MaterialModule&#45;&gt;NavigationModule -->
<g id="edge31" class="edge">
<title>MaterialModule&#45;&gt;NavigationModule</title>
<path fill="none" stroke="#000000" d="M1309.3431,-122.0439C1309.3431,-134.5633 1309.3431,-149 1309.3431,-149 1309.3431,-149 888.2929,-149 888.2929,-149 888.2929,-149 888.2929,-151.9672 888.2929,-151.9672"/>
<polygon fill="#000000" stroke="#000000" points="884.793,-151.9671 888.2929,-161.9672 891.793,-151.9672 884.793,-151.9671"/>
</g>
<!-- BoardComponent -->
<g id="node13" class="node">
<title>BoardComponent</title>
<polygon fill="#ffffb3" stroke="#000000" points="2635.5451,-198 2520.4549,-198 2520.4549,-162 2635.5451,-162 2635.5451,-198"/>
<text text-anchor="middle" x="2578" y="-175.8" font-family="Times,serif" font-size="14.00" fill="#000000">BoardComponent</text>
</g>
<!-- BoardComponent&#45;&gt;BoardModule -->
<g id="edge11" class="edge">
<title>BoardComponent&#45;&gt;BoardModule</title>
<path fill="none" stroke="#000000" d="M2578,-198.0348C2578,-217.5762 2578,-246 2578,-246 2578,-246 2400.791,-246 2400.791,-246"/>
<polygon fill="#000000" stroke="#000000" points="2400.791,-242.5001 2390.791,-246 2400.791,-249.5001 2400.791,-242.5001"/>
</g>
<!-- CreateTaskComponent -->
<g id="node14" class="node">
<title>CreateTaskComponent</title>
<polygon fill="#ffffb3" stroke="#000000" points="2502.5758,-198 2357.4242,-198 2357.4242,-162 2502.5758,-162 2502.5758,-198"/>
<text text-anchor="middle" x="2430" y="-175.8" font-family="Times,serif" font-size="14.00" fill="#000000">CreateTaskComponent</text>
</g>
<!-- CreateTaskComponent&#45;&gt;BoardModule -->
<g id="edge12" class="edge">
<title>CreateTaskComponent&#45;&gt;BoardModule</title>
<path fill="none" stroke="#000000" d="M2374.1715,-198.0109C2374.1715,-198.0109 2374.1715,-227.855 2374.1715,-227.855"/>
<polygon fill="#000000" stroke="#000000" points="2370.6715,-227.8549 2374.1715,-237.855 2377.6715,-227.855 2370.6715,-227.8549"/>
</g>
<!-- TasksCardListComponent -->
<g id="node15" class="node">
<title>TasksCardListComponent</title>
<polygon fill="#ffffb3" stroke="#000000" points="2339.479,-198 2176.521,-198 2176.521,-162 2339.479,-162 2339.479,-198"/>
<text text-anchor="middle" x="2258" y="-175.8" font-family="Times,serif" font-size="14.00" fill="#000000">TasksCardListComponent</text>
</g>
<!-- TasksCardListComponent&#45;&gt;BoardModule -->
<g id="edge13" class="edge">
<title>TasksCardListComponent&#45;&gt;BoardModule</title>
<path fill="none" stroke="#000000" d="M2318.3044,-198.0109C2318.3044,-198.0109 2318.3044,-227.855 2318.3044,-227.855"/>
<polygon fill="#000000" stroke="#000000" points="2314.8044,-227.8549 2318.3044,-237.855 2321.8044,-227.855 2314.8044,-227.8549"/>
</g>
<!-- TasksComponent -->
<g id="node16" class="node">
<title>TasksComponent</title>
<polygon fill="#ffffb3" stroke="#000000" points="2158.9888,-198 2045.0112,-198 2045.0112,-162 2158.9888,-162 2158.9888,-198"/>
<text text-anchor="middle" x="2102" y="-175.8" font-family="Times,serif" font-size="14.00" fill="#000000">TasksComponent</text>
</g>
<!-- TasksComponent&#45;&gt;BoardModule -->
<g id="edge14" class="edge">
<title>TasksComponent&#45;&gt;BoardModule</title>
<path fill="none" stroke="#000000" d="M2102,-198.308C2102,-218.1455 2102,-247 2102,-247 2102,-247 2287.053,-247 2287.053,-247"/>
<polygon fill="#000000" stroke="#000000" points="2287.0531,-250.5001 2297.053,-247 2287.053,-243.5001 2287.0531,-250.5001"/>
</g>
<!-- UppercaseFirstLetterPipe -->
<g id="node17" class="node">
<title>UppercaseFirstLetterPipe</title>
<polygon fill="#ffffb3" stroke="#000000" points="2026.5506,-198 1867.4494,-198 1867.4494,-162 2026.5506,-162 2026.5506,-198"/>
<text text-anchor="middle" x="1947" y="-175.8" font-family="Times,serif" font-size="14.00" fill="#000000">UppercaseFirstLetterPipe</text>
</g>
<!-- UppercaseFirstLetterPipe&#45;&gt;BoardModule -->
<g id="edge15" class="edge">
<title>UppercaseFirstLetterPipe&#45;&gt;BoardModule</title>
<path fill="none" stroke="#000000" d="M1947,-198.0109C1947,-220.4852 1947,-256 1947,-256 1947,-256 2286.8999,-256 2286.8999,-256"/>
<polygon fill="#000000" stroke="#000000" points="2286.8999,-259.5001 2296.8999,-256 2286.8999,-252.5001 2286.8999,-259.5001"/>
</g>
<!-- BoardRoutingModule -->
<g id="node19" class="node">
<title>BoardRoutingModule</title>
<polygon fill="#8dd3c7" stroke="#000000" points="2798.3795,-198 2795.3795,-202 2774.3795,-202 2771.3795,-198 2659.6205,-198 2659.6205,-162 2798.3795,-162 2798.3795,-198"/>
<text text-anchor="middle" x="2729" y="-175.8" font-family="Times,serif" font-size="14.00" fill="#000000">BoardRoutingModule</text>
</g>
<!-- BoardRoutingModule&#45;&gt;BoardModule -->
<g id="edge16" class="edge">
<title>BoardRoutingModule&#45;&gt;BoardModule</title>
<path fill="none" stroke="#000000" d="M2729,-198.0449C2729,-219.6623 2729,-253 2729,-253 2729,-253 2400.8237,-253 2400.8237,-253"/>
<polygon fill="#000000" stroke="#000000" points="2400.8237,-249.5001 2390.8237,-253 2400.8236,-256.5001 2400.8237,-249.5001"/>
</g>
<!-- DialogModule&#45;&gt;BoardModule -->
<g id="edge17" class="edge">
<title>DialogModule&#45;&gt;BoardModule</title>
<path fill="none" stroke="#000000" d="M2848.7246,-198.1532C2848.7246,-221.7566 2848.7246,-260 2848.7246,-260 2848.7246,-260 2401.03,-260 2401.03,-260"/>
<polygon fill="#000000" stroke="#000000" points="2401.0301,-256.5001 2391.03,-260 2401.03,-263.5001 2401.0301,-256.5001"/>
</g>
<!-- DialogComponent  -->
<g id="node26" class="node">
<title>DialogComponent </title>
<polygon fill="#fb8072" stroke="#000000" points="3076.4348,-274 2953.5652,-274 2953.5652,-238 3076.4348,-238 3076.4348,-274"/>
<text text-anchor="middle" x="3015" y="-251.8" font-family="Times,serif" font-size="14.00" fill="#000000">DialogComponent </text>
</g>
<!-- DialogModule&#45;&gt;DialogComponent  -->
<g id="edge27" class="edge">
<title>DialogModule&#45;&gt;DialogComponent </title>
<path fill="none" stroke="#000000" stroke-dasharray="5,2" d="M2881.2754,-198.0265C2881.2754,-223.5093 2881.2754,-267 2881.2754,-267 2881.2754,-267 2943.2263,-267 2943.2263,-267"/>
<polygon fill="#000000" stroke="#000000" points="2943.2264,-270.5001 2953.2263,-267 2943.2263,-263.5001 2943.2264,-270.5001"/>
</g>
<!-- HomeComponent -->
<g id="node21" class="node">
<title>HomeComponent</title>
<polygon fill="#ffffb3" stroke="#000000" points="1251.5451,-198 1136.4549,-198 1136.4549,-162 1251.5451,-162 1251.5451,-198"/>
<text text-anchor="middle" x="1194" y="-175.8" font-family="Times,serif" font-size="14.00" fill="#000000">HomeComponent</text>
</g>
<!-- HomeComponent&#45;&gt;CoreModule -->
<g id="edge19" class="edge">
<title>HomeComponent&#45;&gt;CoreModule</title>
<path fill="none" stroke="#000000" d="M1194,-198.0439C1194,-210.5633 1194,-225 1194,-225 1194,-225 462.5918,-225 462.5918,-225 462.5918,-225 462.5918,-227.9672 462.5918,-227.9672"/>
<polygon fill="#000000" stroke="#000000" points="459.0919,-227.9671 462.5918,-237.9672 466.0919,-227.9672 459.0919,-227.9671"/>
</g>
<!-- PageNotFoundComponent -->
<g id="node22" class="node">
<title>PageNotFoundComponent</title>
<polygon fill="#ffffb3" stroke="#000000" points="1118.8243,-198 953.1757,-198 953.1757,-162 1118.8243,-162 1118.8243,-198"/>
<text text-anchor="middle" x="1036" y="-175.8" font-family="Times,serif" font-size="14.00" fill="#000000">PageNotFoundComponent</text>
</g>
<!-- PageNotFoundComponent&#45;&gt;CoreModule -->
<g id="edge20" class="edge">
<title>PageNotFoundComponent&#45;&gt;CoreModule</title>
<path fill="none" stroke="#000000" d="M1036,-198.1097C1036,-207.897 1036,-218 1036,-218 1036,-218 450.1973,-218 450.1973,-218 450.1973,-218 450.1973,-227.8903 450.1973,-227.8903"/>
<polygon fill="#000000" stroke="#000000" points="446.6974,-227.8903 450.1973,-237.8903 453.6974,-227.8904 446.6974,-227.8903"/>
</g>
<!-- NavigationModule&#45;&gt;CoreModule -->
<g id="edge23" class="edge">
<title>NavigationModule&#45;&gt;CoreModule</title>
<path fill="none" stroke="#000000" d="M888.2929,-198.2434C888.2929,-205.4297 888.2929,-212 888.2929,-212 888.2929,-212 437.8027,-212 437.8027,-212 437.8027,-212 437.8027,-227.8495 437.8027,-227.8495"/>
<polygon fill="#000000" stroke="#000000" points="434.3028,-227.8494 437.8027,-237.8495 441.3028,-227.8495 434.3028,-227.8494"/>
</g>
<!-- SidenavComponent  -->
<g id="node29" class="node">
<title>SidenavComponent </title>
<polygon fill="#fb8072" stroke="#000000" points="781.9348,-122 652.0652,-122 652.0652,-86 781.9348,-86 781.9348,-122"/>
<text text-anchor="middle" x="717" y="-99.8" font-family="Times,serif" font-size="14.00" fill="#000000">SidenavComponent </text>
</g>
<!-- NavigationModule&#45;&gt;SidenavComponent  -->
<g id="edge32" class="edge">
<title>NavigationModule&#45;&gt;SidenavComponent </title>
<path fill="none" stroke="#000000" stroke-dasharray="5,2" d="M807.1288,-180C799.4902,-180 794.2895,-180 794.2895,-180 794.2895,-180 794.2895,-104 794.2895,-104 794.2895,-104 792.213,-104 792.213,-104"/>
<polygon fill="#000000" stroke="#000000" points="792.213,-100.5001 782.213,-104 792.2129,-107.5001 792.213,-100.5001"/>
</g>
<!-- DialogComponent -->
<g id="node25" class="node">
<title>DialogComponent</title>
<polygon fill="#ffffb3" stroke="#000000" points="3219.9356,-274 3100.0644,-274 3100.0644,-238 3219.9356,-238 3219.9356,-274"/>
<text text-anchor="middle" x="3160" y="-251.8" font-family="Times,serif" font-size="14.00" fill="#000000">DialogComponent</text>
</g>
<!-- DialogComponent&#45;&gt;DialogModule -->
<g id="edge25" class="edge">
<title>DialogComponent&#45;&gt;DialogModule</title>
<path fill="none" stroke="#000000" d="M3160,-237.9891C3160,-215.5148 3160,-180 3160,-180 3160,-180 2923.7133,-180 2923.7133,-180"/>
<polygon fill="#000000" stroke="#000000" points="2923.7133,-176.5001 2913.7133,-180 2923.7132,-183.5001 2923.7133,-176.5001"/>
</g>
<!-- SidenavComponent -->
<g id="node27" class="node">
<title>SidenavComponent</title>
<polygon fill="#ffffb3" stroke="#000000" points="1074.4356,-122 947.5644,-122 947.5644,-86 1074.4356,-86 1074.4356,-122"/>
<text text-anchor="middle" x="1011" y="-99.8" font-family="Times,serif" font-size="14.00" fill="#000000">SidenavComponent</text>
</g>
<!-- SidenavComponent&#45;&gt;NavigationModule -->
<g id="edge28" class="edge">
<title>SidenavComponent&#45;&gt;NavigationModule</title>
<path fill="none" stroke="#000000" d="M947.7551,-104C942.3655,-104 938.9162,-104 938.9162,-104 938.9162,-104 938.9162,-180 938.9162,-180 938.9162,-180 937.9301,-180 937.9301,-180"/>
<polygon fill="#000000" stroke="#000000" points="939.0556,-176.5001 929.0556,-180 939.0556,-183.5001 939.0556,-176.5001"/>
</g>
<!-- TopnavComponent -->
<g id="node28" class="node">
<title>TopnavComponent</title>
<polygon fill="#ffffb3" stroke="#000000" points="930.0996,-122 805.9004,-122 805.9004,-86 930.0996,-86 930.0996,-122"/>
<text text-anchor="middle" x="868" y="-99.8" font-family="Times,serif" font-size="14.00" fill="#000000">TopnavComponent</text>
</g>
<!-- TopnavComponent&#45;&gt;NavigationModule -->
<g id="edge29" class="edge">
<title>TopnavComponent&#45;&gt;NavigationModule</title>
<path fill="none" stroke="#000000" d="M847.7071,-122.0109C847.7071,-122.0109 847.7071,-151.855 847.7071,-151.855"/>
<polygon fill="#000000" stroke="#000000" points="844.2072,-151.8549 847.7071,-161.855 851.2072,-151.855 844.2072,-151.8549"/>
</g>
</g>
</svg>
