<?xml version="1.0" encoding="UTF-8" standalone="no"?>
<!DOCTYPE svg PUBLIC "-//W3C//DTD SVG 1.1//EN"
 "http://www.w3.org/Graphics/SVG/1.1/DTD/svg11.dtd">
<!-- Generated by graphviz version 2.40.1 (20161225.0304)
 -->
<!-- Title: dependencies Pages: 1 -->
<svg width="3015pt" height="352pt"
 viewBox="0.00 0.00 3015.00 352.00" xmlns="http://www.w3.org/2000/svg" xmlns:xlink="http://www.w3.org/1999/xlink">
<g id="graph0" class="graph" transform="scale(1 1) rotate(0) translate(4 348)">
<title>dependencies</title>
<polygon fill="#ffffff" stroke="transparent" points="-4,4 -4,-348 3011,-348 3011,4 -4,4"/>
<text text-anchor="start" x="1482.5091" y="-42.4" font-family="sans-serif" font-weight="bold" font-size="14.00" fill="#000000">Legend</text>
<polygon fill="#ffffb3" stroke="transparent" points="1269.5,-10 1269.5,-30 1289.5,-30 1289.5,-10 1269.5,-10"/>
<text text-anchor="start" x="1293.129" y="-15.4" font-family="sans-serif" font-size="14.00" fill="#000000"> &#160;Declarations</text>
<polygon fill="#8dd3c7" stroke="transparent" points="1382.5,-10 1382.5,-30 1402.5,-30 1402.5,-10 1382.5,-10"/>
<text text-anchor="start" x="1406.2251" y="-15.4" font-family="sans-serif" font-size="14.00" fill="#000000"> &#160;Module</text>
<polygon fill="#80b1d3" stroke="transparent" points="1468.5,-10 1468.5,-30 1488.5,-30 1488.5,-10 1468.5,-10"/>
<text text-anchor="start" x="1492.2812" y="-15.4" font-family="sans-serif" font-size="14.00" fill="#000000"> &#160;Bootstrap</text>
<polygon fill="#fdb462" stroke="transparent" points="1565.5,-10 1565.5,-30 1585.5,-30 1585.5,-10 1565.5,-10"/>
<text text-anchor="start" x="1589.1732" y="-15.4" font-family="sans-serif" font-size="14.00" fill="#000000"> &#160;Providers</text>
<polygon fill="#fb8072" stroke="transparent" points="1661.5,-10 1661.5,-30 1681.5,-30 1681.5,-10 1661.5,-10"/>
<text text-anchor="start" x="1685.2258" y="-15.4" font-family="sans-serif" font-size="14.00" fill="#000000"> &#160;Exports</text>
<g id="clust1" class="cluster">
<title>cluster_AppModule</title>
<polygon fill="none" stroke="#000000" stroke-dasharray="1,5" points="8,-70 8,-336 633,-336 633,-70 8,-70"/>
</g>
<g id="clust2" class="cluster">
<title>cluster_AppModule_declarations</title>
<polygon fill="none" stroke="#000000" points="503,-146 503,-198 625,-198 625,-146 503,-146"/>
</g>
<g id="clust4" class="cluster">
<title>cluster_AppModule_imports</title>
<polygon fill="none" stroke="#000000" points="351,-78 351,-198 495,-198 495,-78 351,-78"/>
</g>
<g id="clust6" class="cluster">
<title>cluster_AppModule_bootstrap</title>
<polygon fill="none" stroke="#000000" points="320,-276 320,-328 444,-328 444,-276 320,-276"/>
</g>
<g id="clust7" class="cluster">
<title>cluster_AppModule_providers</title>
<polygon fill="none" stroke="#000000" points="16,-146 16,-198 343,-198 343,-146 16,-146"/>
</g>
<g id="clust14" class="cluster">
<title>cluster_AuthModule</title>
<polygon fill="none" stroke="#000000" stroke-dasharray="1,5" points="1313,-70 1313,-198 1880,-198 1880,-70 1313,-70"/>
</g>
<g id="clust15" class="cluster">
<title>cluster_AuthModule_declarations</title>
<polygon fill="none" stroke="#000000" points="1602,-78 1602,-130 1872,-130 1872,-78 1602,-78"/>
</g>
<g id="clust18" class="cluster">
<title>cluster_AuthModule_imports</title>
<polygon fill="none" stroke="#000000" points="1321,-78 1321,-130 1594,-130 1594,-78 1321,-78"/>
</g>
<g id="clust28" class="cluster">
<title>cluster_BoardModule</title>
<polygon fill="none" stroke="#000000" stroke-dasharray="1,5" points="1888,-70 1888,-198 2999,-198 2999,-70 1888,-70"/>
</g>
<g id="clust29" class="cluster">
<title>cluster_BoardModule_declarations</title>
<polygon fill="none" stroke="#000000" points="2058,-78 2058,-130 2991,-130 2991,-78 2058,-78"/>
</g>
<g id="clust36" class="cluster">
<title>cluster_BoardModule_imports</title>
<polygon fill="none" stroke="#000000" points="1896,-78 1896,-130 2050,-130 2050,-78 1896,-78"/>
</g>
<g id="clust46" class="cluster">
<title>cluster_CoreModule</title>
<polygon fill="none" stroke="#000000" stroke-dasharray="1,5" points="641,-70 641,-138 1305,-138 1305,-70 641,-70"/>
</g>
<g id="clust47" class="cluster">
<title>cluster_CoreModule_declarations</title>
<polygon fill="none" stroke="#000000" points="821,-78 821,-130 1297,-130 1297,-78 821,-78"/>
</g>
<g id="clust52" class="cluster">
<title>cluster_CoreModule_exports</title>
<polygon fill="none" stroke="#000000" points="649,-78 649,-130 813,-130 813,-78 649,-78"/>
</g>
<!-- AppComponent -->
<g id="node1" class="node">
<title>AppComponent</title>
<polygon fill="#ffffb3" stroke="#000000" points="616.9399,-190 511.0601,-190 511.0601,-154 616.9399,-154 616.9399,-190"/>
<text text-anchor="middle" x="564" y="-167.8" font-family="Times,serif" font-size="14.00" fill="#000000">AppComponent</text>
</g>
<!-- AppModule -->
<g id="node2" class="node">
<title>AppModule</title>
<polygon fill="#8dd3c7" stroke="#000000" points="423.6571,-255 420.6571,-259 399.6571,-259 396.6571,-255 340.3429,-255 340.3429,-219 423.6571,-219 423.6571,-255"/>
<text text-anchor="middle" x="382" y="-232.8" font-family="Times,serif" font-size="14.00" fill="#000000">AppModule</text>
</g>
<!-- AppComponent&#45;&gt;AppModule -->
<g id="edge1" class="edge">
<title>AppComponent&#45;&gt;AppModule</title>
<path fill="none" stroke="#000000" d="M564,-190.1061C564,-209.3391 564,-237 564,-237 564,-237 433.7545,-237 433.7545,-237"/>
<polygon fill="#000000" stroke="#000000" points="433.7545,-233.5001 423.7545,-237 433.7544,-240.5001 433.7545,-233.5001"/>
</g>
<!-- AppComponent  -->
<g id="node5" class="node">
<title>AppComponent </title>
<polygon fill="#80b1d3" stroke="#000000" points="436.439,-320 327.561,-320 327.561,-284 436.439,-284 436.439,-320"/>
<text text-anchor="middle" x="382" y="-297.8" font-family="Times,serif" font-size="14.00" fill="#000000">AppComponent </text>
</g>
<!-- AppModule&#45;&gt;AppComponent  -->
<g id="edge4" class="edge">
<title>AppModule&#45;&gt;AppComponent </title>
<path fill="none" stroke="#000000" stroke-dasharray="1,5" d="M382,-255.1061C382,-255.1061 382,-273.991 382,-273.991"/>
<polygon fill="#000000" stroke="#000000" points="378.5001,-273.9909 382,-283.991 385.5001,-273.991 378.5001,-273.9909"/>
</g>
<!-- AppRoutingModule -->
<g id="node3" class="node">
<title>AppRoutingModule</title>
<polygon fill="#8dd3c7" stroke="#000000" points="487.2744,-122 484.2744,-126 463.2744,-126 460.2744,-122 358.7256,-122 358.7256,-86 487.2744,-86 487.2744,-122"/>
<text text-anchor="middle" x="423" y="-99.8" font-family="Times,serif" font-size="14.00" fill="#000000">AppRoutingModule</text>
</g>
<!-- AppRoutingModule&#45;&gt;AppModule -->
<g id="edge2" class="edge">
<title>AppRoutingModule&#45;&gt;AppModule</title>
<path fill="none" stroke="#000000" d="M379.616,-122.2142C379.616,-122.2142 379.616,-208.579 379.616,-208.579"/>
<polygon fill="#000000" stroke="#000000" points="376.1161,-208.5789 379.616,-218.579 383.1161,-208.579 376.1161,-208.5789"/>
</g>
<!-- CoreModule -->
<g id="node4" class="node">
<title>CoreModule</title>
<polygon fill="#8dd3c7" stroke="#000000" points="487.2619,-190 484.2619,-194 463.2619,-194 460.2619,-190 400.7381,-190 400.7381,-154 487.2619,-154 487.2619,-190"/>
<text text-anchor="middle" x="444" y="-167.8" font-family="Times,serif" font-size="14.00" fill="#000000">CoreModule</text>
</g>
<!-- AppRoutingModule&#45;&gt;CoreModule -->
<g id="edge22" class="edge">
<title>AppRoutingModule&#45;&gt;CoreModule</title>
<path fill="none" stroke="#000000" d="M415.0795,-122.2228C415.0795,-122.2228 415.0795,-143.7269 415.0795,-143.7269"/>
<polygon fill="#000000" stroke="#000000" points="411.5796,-143.7269 415.0795,-153.7269 418.5796,-143.727 411.5796,-143.7269"/>
</g>
<!-- CoreModule&#45;&gt;AppModule -->
<g id="edge3" class="edge">
<title>CoreModule&#45;&gt;AppModule</title>
<path fill="none" stroke="#000000" d="M412.2237,-190.1061C412.2237,-190.1061 412.2237,-208.991 412.2237,-208.991"/>
<polygon fill="#000000" stroke="#000000" points="408.7238,-208.9909 412.2237,-218.991 415.7238,-208.991 408.7238,-208.9909"/>
</g>
<!-- NavigationComponent  -->
<g id="node24" class="node">
<title>NavigationComponent </title>
<polygon fill="#fb8072" stroke="#000000" points="804.54,-122 657.46,-122 657.46,-86 804.54,-86 804.54,-122"/>
<text text-anchor="middle" x="731" y="-99.8" font-family="Times,serif" font-size="14.00" fill="#000000">NavigationComponent </text>
</g>
<!-- CoreModule&#45;&gt;NavigationComponent  -->
<g id="edge24" class="edge">
<title>CoreModule&#45;&gt;NavigationComponent </title>
<path fill="none" stroke="#000000" stroke-dasharray="5,2" d="M487.3272,-172C494.3278,-172 499.3338,-172 499.3338,-172 499.3338,-172 499.3338,-104 499.3338,-104 499.3338,-104 647.3811,-104 647.3811,-104"/>
<polygon fill="#000000" stroke="#000000" points="647.3811,-107.5001 657.3811,-104 647.381,-100.5001 647.3811,-107.5001"/>
</g>
<!-- AuthInterceptor -->
<g id="node6" class="node">
<title>AuthInterceptor</title>
<ellipse fill="#fdb462" stroke="#000000" cx="262" cy="-172" rx="72.9121" ry="18"/>
<text text-anchor="middle" x="262" y="-167.8" font-family="Times,serif" font-size="14.00" fill="#000000">AuthInterceptor</text>
</g>
<!-- AuthInterceptor&#45;&gt;AppModule -->
<g id="edge5" class="edge">
<title>AuthInterceptor&#45;&gt;AppModule</title>
<path fill="none" stroke="#000000" d="M331.1181,-177.8728C331.1181,-192.7962 331.1181,-231 331.1181,-231 331.1181,-231 332.0044,-231 332.0044,-231"/>
<polygon fill="#000000" stroke="#000000" points="329.9811,-234.5001 339.9811,-231 329.981,-227.5001 329.9811,-234.5001"/>
</g>
<!-- ErrorInterceptor -->
<g id="node7" class="node">
<title>ErrorInterceptor</title>
<ellipse fill="#fdb462" stroke="#000000" cx="98" cy="-172" rx="73.5329" ry="18"/>
<text text-anchor="middle" x="98" y="-167.8" font-family="Times,serif" font-size="14.00" fill="#000000">ErrorInterceptor</text>
</g>
<!-- ErrorInterceptor&#45;&gt;AppModule -->
<g id="edge6" class="edge">
<title>ErrorInterceptor&#45;&gt;AppModule</title>
<path fill="none" stroke="#000000" d="M98,-190.2843C98,-211.3211 98,-243 98,-243 98,-243 330.0948,-243 330.0948,-243"/>
<polygon fill="#000000" stroke="#000000" points="330.0949,-246.5001 340.0948,-243 330.0948,-239.5001 330.0949,-246.5001"/>
</g>
<!-- LoginComponent -->
<g id="node8" class="node">
<title>LoginComponent</title>
<polygon fill="#ffffb3" stroke="#000000" points="1864.2758,-122 1749.7242,-122 1749.7242,-86 1864.2758,-86 1864.2758,-122"/>
<text text-anchor="middle" x="1807" y="-99.8" font-family="Times,serif" font-size="14.00" fill="#000000">LoginComponent</text>
</g>
<!-- AuthModule -->
<g id="node10" class="node">
<title>AuthModule</title>
<polygon fill="#8dd3c7" stroke="#000000" points="1638.5482,-190 1635.5482,-194 1614.5482,-194 1611.5482,-190 1551.4518,-190 1551.4518,-154 1638.5482,-154 1638.5482,-190"/>
<text text-anchor="middle" x="1595" y="-167.8" font-family="Times,serif" font-size="14.00" fill="#000000">AuthModule</text>
</g>
<!-- LoginComponent&#45;&gt;AuthModule -->
<g id="edge7" class="edge">
<title>LoginComponent&#45;&gt;AuthModule</title>
<path fill="none" stroke="#000000" d="M1807,-122.2479C1807,-145.0179 1807,-181 1807,-181 1807,-181 1648.6695,-181 1648.6695,-181"/>
<polygon fill="#000000" stroke="#000000" points="1648.6695,-177.5001 1638.6695,-181 1648.6694,-184.5001 1648.6695,-177.5001"/>
</g>
<!-- SignupComponent -->
<g id="node9" class="node">
<title>SignupComponent</title>
<polygon fill="#ffffb3" stroke="#000000" points="1731.5056,-122 1610.4944,-122 1610.4944,-86 1731.5056,-86 1731.5056,-122"/>
<text text-anchor="middle" x="1671" y="-99.8" font-family="Times,serif" font-size="14.00" fill="#000000">SignupComponent</text>
</g>
<!-- SignupComponent&#45;&gt;AuthModule -->
<g id="edge8" class="edge">
<title>SignupComponent&#45;&gt;AuthModule</title>
<path fill="none" stroke="#000000" d="M1624.6354,-122.2228C1624.6354,-122.2228 1624.6354,-143.7269 1624.6354,-143.7269"/>
<polygon fill="#000000" stroke="#000000" points="1621.1354,-143.7269 1624.6354,-153.7269 1628.1354,-143.727 1621.1354,-143.7269"/>
</g>
<!-- AuthRoutingModule -->
<g id="node11" class="node">
<title>AuthRoutingModule</title>
<polygon fill="#8dd3c7" stroke="#000000" points="1586.1652,-122 1583.1652,-126 1562.1652,-126 1559.1652,-122 1453.8348,-122 1453.8348,-86 1586.1652,-86 1586.1652,-122"/>
<text text-anchor="middle" x="1520" y="-99.8" font-family="Times,serif" font-size="14.00" fill="#000000">AuthRoutingModule</text>
</g>
<!-- AuthRoutingModule&#45;&gt;AuthModule -->
<g id="edge9" class="edge">
<title>AuthRoutingModule&#45;&gt;AuthModule</title>
<path fill="none" stroke="#000000" d="M1568.7795,-122.2228C1568.7795,-122.2228 1568.7795,-143.7269 1568.7795,-143.7269"/>
<polygon fill="#000000" stroke="#000000" points="1565.2795,-143.7269 1568.7795,-153.7269 1572.2795,-143.727 1565.2795,-143.7269"/>
</g>
<!-- MaterialModule -->
<g id="node12" class="node">
<title>MaterialModule</title>
<polygon fill="#8dd3c7" stroke="#000000" points="1435.4706,-122 1432.4706,-126 1411.4706,-126 1408.4706,-122 1328.5294,-122 1328.5294,-86 1435.4706,-86 1435.4706,-122"/>
<text text-anchor="middle" x="1382" y="-99.8" font-family="Times,serif" font-size="14.00" fill="#000000">MaterialModule</text>
</g>
<!-- MaterialModule&#45;&gt;CoreModule -->
<g id="edge23" class="edge">
<title>MaterialModule&#45;&gt;CoreModule</title>
<path fill="none" stroke="#000000" d="M1355.2573,-122.0439C1355.2573,-134.5633 1355.2573,-149 1355.2573,-149 1355.2573,-149 472.9205,-149 472.9205,-149 472.9205,-149 472.9205,-149.4878 472.9205,-149.4878"/>
<polygon fill="#000000" stroke="#000000" points="469.4208,-143.8776 472.9205,-153.8777 476.4208,-143.8778 469.4208,-143.8776"/>
</g>
<!-- MaterialModule&#45;&gt;AuthModule -->
<g id="edge10" class="edge">
<title>MaterialModule&#45;&gt;AuthModule</title>
<path fill="none" stroke="#000000" d="M1408.7427,-122.2228C1408.7427,-142.3652 1408.7427,-172 1408.7427,-172 1408.7427,-172 1541.3309,-172 1541.3309,-172"/>
<polygon fill="#000000" stroke="#000000" points="1541.331,-175.5001 1551.3309,-172 1541.3309,-168.5001 1541.331,-175.5001"/>
</g>
<!-- BoardModule -->
<g id="node19" class="node">
<title>BoardModule</title>
<polygon fill="#8dd3c7" stroke="#000000" points="2436.7619,-190 2433.7619,-194 2412.7619,-194 2409.7619,-190 2343.2381,-190 2343.2381,-154 2436.7619,-154 2436.7619,-190"/>
<text text-anchor="middle" x="2390" y="-167.8" font-family="Times,serif" font-size="14.00" fill="#000000">BoardModule</text>
</g>
<!-- MaterialModule&#45;&gt;BoardModule -->
<g id="edge18" class="edge">
<title>MaterialModule&#45;&gt;BoardModule</title>
<path fill="none" stroke="#000000" d="M1382,-122.1903C1382,-125.5376 1382,-128 1382,-128 1382,-128 2354.7258,-128 2354.7258,-128 2354.7258,-128 2354.7258,-143.8495 2354.7258,-143.8495"/>
<polygon fill="#000000" stroke="#000000" points="2351.2259,-143.8494 2354.7258,-153.8495 2358.2259,-143.8495 2351.2259,-143.8494"/>
</g>
<!-- BoardComponent -->
<g id="node13" class="node">
<title>BoardComponent</title>
<polygon fill="#ffffb3" stroke="#000000" points="2673.5451,-122 2558.4549,-122 2558.4549,-86 2673.5451,-86 2673.5451,-122"/>
<text text-anchor="middle" x="2616" y="-99.8" font-family="Times,serif" font-size="14.00" fill="#000000">BoardComponent</text>
</g>
<!-- BoardComponent&#45;&gt;BoardModule -->
<g id="edge11" class="edge">
<title>BoardComponent&#45;&gt;BoardModule</title>
<path fill="none" stroke="#000000" d="M2616,-122.0225C2616,-139.3734 2616,-163 2616,-163 2616,-163 2446.8273,-163 2446.8273,-163"/>
<polygon fill="#000000" stroke="#000000" points="2446.8274,-159.5001 2436.8273,-163 2446.8273,-166.5001 2446.8274,-159.5001"/>
</g>
<!-- CreateTaskComponent -->
<g id="node14" class="node">
<title>CreateTaskComponent</title>
<polygon fill="#ffffb3" stroke="#000000" points="2540.5758,-122 2395.4242,-122 2395.4242,-86 2540.5758,-86 2540.5758,-122"/>
<text text-anchor="middle" x="2468" y="-99.8" font-family="Times,serif" font-size="14.00" fill="#000000">CreateTaskComponent</text>
</g>
<!-- CreateTaskComponent&#45;&gt;BoardModule -->
<g id="edge12" class="edge">
<title>CreateTaskComponent&#45;&gt;BoardModule</title>
<path fill="none" stroke="#000000" d="M2416.1715,-122.2228C2416.1715,-122.2228 2416.1715,-143.7269 2416.1715,-143.7269"/>
<polygon fill="#000000" stroke="#000000" points="2412.6715,-143.7269 2416.1715,-153.7269 2419.6715,-143.727 2412.6715,-143.7269"/>
</g>
<!-- EditTaskComponent -->
<g id="node15" class="node">
<title>EditTaskComponent</title>
<polygon fill="#ffffb3" stroke="#000000" points="2377.8781,-122 2246.1219,-122 2246.1219,-86 2377.8781,-86 2377.8781,-122"/>
<text text-anchor="middle" x="2312" y="-99.8" font-family="Times,serif" font-size="14.00" fill="#000000">EditTaskComponent</text>
</g>
<!-- EditTaskComponent&#45;&gt;BoardModule -->
<g id="edge13" class="edge">
<title>EditTaskComponent&#45;&gt;BoardModule</title>
<path fill="none" stroke="#000000" d="M2366.3324,-122.2228C2366.3324,-122.2228 2366.3324,-143.7269 2366.3324,-143.7269"/>
<polygon fill="#000000" stroke="#000000" points="2362.8325,-143.7269 2366.3324,-153.7269 2369.8325,-143.727 2362.8325,-143.7269"/>
</g>
<!-- TasksCardListComponent -->
<g id="node16" class="node">
<title>TasksCardListComponent</title>
<polygon fill="#ffffb3" stroke="#000000" points="2228.479,-122 2065.521,-122 2065.521,-86 2228.479,-86 2228.479,-122"/>
<text text-anchor="middle" x="2147" y="-99.8" font-family="Times,serif" font-size="14.00" fill="#000000">TasksCardListComponent</text>
</g>
<!-- TasksCardListComponent&#45;&gt;BoardModule -->
<g id="edge14" class="edge">
<title>TasksCardListComponent&#45;&gt;BoardModule</title>
<path fill="none" stroke="#000000" d="M2147,-122.0225C2147,-139.3734 2147,-163 2147,-163 2147,-163 2333.1472,-163 2333.1472,-163"/>
<polygon fill="#000000" stroke="#000000" points="2333.1472,-166.5001 2343.1472,-163 2333.1471,-159.5001 2333.1472,-166.5001"/>
</g>
<!-- TasksComponent -->
<g id="node17" class="node">
<title>TasksComponent</title>
<polygon fill="#ffffb3" stroke="#000000" points="2982.9888,-122 2869.0112,-122 2869.0112,-86 2982.9888,-86 2982.9888,-122"/>
<text text-anchor="middle" x="2926" y="-99.8" font-family="Times,serif" font-size="14.00" fill="#000000">TasksComponent</text>
</g>
<!-- TasksComponent&#45;&gt;BoardModule -->
<g id="edge15" class="edge">
<title>TasksComponent&#45;&gt;BoardModule</title>
<path fill="none" stroke="#000000" d="M2926,-122.2479C2926,-145.0179 2926,-181 2926,-181 2926,-181 2447.0967,-181 2447.0967,-181"/>
<polygon fill="#000000" stroke="#000000" points="2447.0967,-177.5001 2437.0967,-181 2447.0966,-184.5001 2447.0967,-177.5001"/>
</g>
<!-- UppercaseFirstLetterPipe -->
<g id="node18" class="node">
<title>UppercaseFirstLetterPipe</title>
<polygon fill="#ffffb3" stroke="#000000" points="2850.5506,-122 2691.4494,-122 2691.4494,-86 2850.5506,-86 2850.5506,-122"/>
<text text-anchor="middle" x="2771" y="-99.8" font-family="Times,serif" font-size="14.00" fill="#000000">UppercaseFirstLetterPipe</text>
</g>
<!-- UppercaseFirstLetterPipe&#45;&gt;BoardModule -->
<g id="edge16" class="edge">
<title>UppercaseFirstLetterPipe&#45;&gt;BoardModule</title>
<path fill="none" stroke="#000000" d="M2771,-122.2228C2771,-142.3652 2771,-172 2771,-172 2771,-172 2447.1002,-172 2447.1002,-172"/>
<polygon fill="#000000" stroke="#000000" points="2447.1002,-168.5001 2437.1002,-172 2447.1002,-175.5001 2447.1002,-168.5001"/>
</g>
<!-- BoardRoutingModule -->
<g id="node20" class="node">
<title>BoardRoutingModule</title>
<polygon fill="#8dd3c7" stroke="#000000" points="2042.3795,-122 2039.3795,-126 2018.3795,-126 2015.3795,-122 1903.6205,-122 1903.6205,-86 2042.3795,-86 2042.3795,-122"/>
<text text-anchor="middle" x="1973" y="-99.8" font-family="Times,serif" font-size="14.00" fill="#000000">BoardRoutingModule</text>
</g>
<!-- BoardRoutingModule&#45;&gt;BoardModule -->
<g id="edge17" class="edge">
<title>BoardRoutingModule&#45;&gt;BoardModule</title>
<path fill="none" stroke="#000000" d="M1973,-122.2228C1973,-142.3652 1973,-172 1973,-172 1973,-172 2332.9754,-172 2332.9754,-172"/>
<polygon fill="#000000" stroke="#000000" points="2332.9754,-175.5001 2342.9754,-172 2332.9754,-168.5001 2332.9754,-175.5001"/>
</g>
<!-- HomeComponent -->
<g id="node21" class="node">
<title>HomeComponent</title>
<polygon fill="#ffffb3" stroke="#000000" points="944.5451,-122 829.4549,-122 829.4549,-86 944.5451,-86 944.5451,-122"/>
<text text-anchor="middle" x="887" y="-99.8" font-family="Times,serif" font-size="14.00" fill="#000000">HomeComponent</text>
</g>
<!-- HomeComponent&#45;&gt;CoreModule -->
<g id="edge19" class="edge">
<title>HomeComponent&#45;&gt;CoreModule</title>
<path fill="none" stroke="#000000" d="M887,-122.2015C887,-128.028 887,-133 887,-133 887,-133 429.5397,-133 429.5397,-133 429.5397,-133 429.5397,-143.8701 429.5397,-143.8701"/>
<polygon fill="#000000" stroke="#000000" points="426.0398,-143.8701 429.5397,-153.8701 433.0398,-143.8701 426.0398,-143.8701"/>
</g>
<!-- NavigationComponent -->
<g id="node22" class="node">
<title>NavigationComponent</title>
<polygon fill="#ffffb3" stroke="#000000" points="1288.5407,-122 1145.4593,-122 1145.4593,-86 1288.5407,-86 1288.5407,-122"/>
<text text-anchor="middle" x="1217" y="-99.8" font-family="Times,serif" font-size="14.00" fill="#000000">NavigationComponent</text>
</g>
<!-- NavigationComponent&#45;&gt;CoreModule -->
<g id="edge20" class="edge">
<title>NavigationComponent&#45;&gt;CoreModule</title>
<path fill="none" stroke="#000000" d="M1217,-122.1274C1217,-132.7109 1217,-144 1217,-144 1217,-144 458.4603,-144 458.4603,-144 458.4603,-144 458.4603,-144.9793 458.4603,-144.9793"/>
<polygon fill="#000000" stroke="#000000" points="454.9604,-143.793 458.4603,-153.793 461.9604,-143.7931 454.9604,-143.793"/>
</g>
<!-- PageNotFoundComponent -->
<g id="node23" class="node">
<title>PageNotFoundComponent</title>
<polygon fill="#ffffb3" stroke="#000000" points="1127.8243,-122 962.1757,-122 962.1757,-86 1127.8243,-86 1127.8243,-122"/>
<text text-anchor="middle" x="1045" y="-99.8" font-family="Times,serif" font-size="14.00" fill="#000000">PageNotFoundComponent</text>
</g>
<!-- PageNotFoundComponent&#45;&gt;CoreModule -->
<g id="edge21" class="edge">
<title>PageNotFoundComponent&#45;&gt;CoreModule</title>
<path fill="none" stroke="#000000" d="M1045,-122.1944C1045,-130.2782 1045,-138 1045,-138 1045,-138 444,-138 444,-138 444,-138 444,-143.8056 444,-143.8056"/>
<polygon fill="#000000" stroke="#000000" points="440.5001,-143.8055 444,-153.8056 447.5001,-143.8056 440.5001,-143.8055"/>
</g>
</g>
</svg>
