<?xml version="1.0" encoding="UTF-8" standalone="no"?>
<!DOCTYPE svg PUBLIC "-//W3C//DTD SVG 1.1//EN"
 "http://www.w3.org/Graphics/SVG/1.1/DTD/svg11.dtd">
<!-- Generated by graphviz version 2.40.1 (20161225.0304)
 -->
<!-- Title: dependencies Pages: 1 -->
<svg width="4658pt" height="496pt"
 viewBox="0.00 0.00 4658.00 496.00" xmlns="http://www.w3.org/2000/svg" xmlns:xlink="http://www.w3.org/1999/xlink">
<g id="graph0" class="graph" transform="scale(1 1) rotate(0) translate(4 492)">
<title>dependencies</title>
<polygon fill="#ffffff" stroke="transparent" points="-4,4 -4,-492 4654,-492 4654,4 -4,4"/>
<text text-anchor="start" x="2304.0091" y="-42.4" font-family="sans-serif" font-weight="bold" font-size="14.00" fill="#000000">Legend</text>
<polygon fill="#ffffb3" stroke="transparent" points="2091,-10 2091,-30 2111,-30 2111,-10 2091,-10"/>
<text text-anchor="start" x="2114.629" y="-15.4" font-family="sans-serif" font-size="14.00" fill="#000000"> &#160;Declarations</text>
<polygon fill="#8dd3c7" stroke="transparent" points="2204,-10 2204,-30 2224,-30 2224,-10 2204,-10"/>
<text text-anchor="start" x="2227.7251" y="-15.4" font-family="sans-serif" font-size="14.00" fill="#000000"> &#160;Module</text>
<polygon fill="#80b1d3" stroke="transparent" points="2290,-10 2290,-30 2310,-30 2310,-10 2290,-10"/>
<text text-anchor="start" x="2313.7812" y="-15.4" font-family="sans-serif" font-size="14.00" fill="#000000"> &#160;Bootstrap</text>
<polygon fill="#fdb462" stroke="transparent" points="2387,-10 2387,-30 2407,-30 2407,-10 2387,-10"/>
<text text-anchor="start" x="2410.6732" y="-15.4" font-family="sans-serif" font-size="14.00" fill="#000000"> &#160;Providers</text>
<polygon fill="#fb8072" stroke="transparent" points="2483,-10 2483,-30 2503,-30 2503,-10 2483,-10"/>
<text text-anchor="start" x="2506.7258" y="-15.4" font-family="sans-serif" font-size="14.00" fill="#000000"> &#160;Exports</text>
<g id="clust1" class="cluster">
<title>cluster_AppModule</title>
<polygon fill="none" stroke="#000000" stroke-dasharray="1,5" points="3115,-214 3115,-480 3740,-480 3740,-214 3115,-214"/>
</g>
<g id="clust2" class="cluster">
<title>cluster_AppModule_declarations</title>
<polygon fill="none" stroke="#000000" points="3610,-290 3610,-342 3732,-342 3732,-290 3610,-290"/>
</g>
<g id="clust4" class="cluster">
<title>cluster_AppModule_imports</title>
<polygon fill="none" stroke="#000000" points="3458,-222 3458,-342 3602,-342 3602,-222 3458,-222"/>
</g>
<g id="clust6" class="cluster">
<title>cluster_AppModule_bootstrap</title>
<polygon fill="none" stroke="#000000" points="3447,-420 3447,-472 3571,-472 3571,-420 3447,-420"/>
</g>
<g id="clust7" class="cluster">
<title>cluster_AppModule_providers</title>
<polygon fill="none" stroke="#000000" points="3123,-290 3123,-342 3450,-342 3450,-290 3123,-290"/>
</g>
<g id="clust14" class="cluster">
<title>cluster_AuthModule</title>
<polygon fill="none" stroke="#000000" stroke-dasharray="1,5" points="1653,-70 1653,-274 2423,-274 2423,-70 1653,-70"/>
</g>
<g id="clust15" class="cluster">
<title>cluster_AuthModule_declarations</title>
<polygon fill="none" stroke="#000000" points="1942,-146 1942,-198 2403,-198 2403,-146 1942,-146"/>
</g>
<g id="clust19" class="cluster">
<title>cluster_AuthModule_imports</title>
<polygon fill="none" stroke="#000000" points="1661,-78 1661,-198 1934,-198 1934,-78 1661,-78"/>
</g>
<g id="clust29" class="cluster">
<title>cluster_CoreModule</title>
<polygon fill="none" stroke="#000000" stroke-dasharray="1,5" points="170,-214 170,-282 797,-282 797,-214 170,-214"/>
</g>
<g id="clust30" class="cluster">
<title>cluster_CoreModule_declarations</title>
<polygon fill="none" stroke="#000000" points="474,-222 474,-274 789,-274 789,-222 474,-222"/>
</g>
<g id="clust33" class="cluster">
<title>cluster_CoreModule_imports</title>
<polygon fill="none" stroke="#000000" points="328,-222 328,-274 466,-274 466,-222 328,-222"/>
</g>
<g id="clust34" class="cluster">
<title>cluster_CoreModule_exports</title>
<polygon fill="none" stroke="#000000" points="178,-222 178,-274 320,-274 320,-222 178,-222"/>
</g>
<g id="clust37" class="cluster">
<title>cluster_DialogModule</title>
<polygon fill="none" stroke="#000000" stroke-dasharray="1,5" points="3748,-70 3748,-282 3902,-282 3902,-70 3748,-70"/>
</g>
<g id="clust38" class="cluster">
<title>cluster_DialogModule_declarations</title>
<polygon fill="none" stroke="#000000" points="3756,-78 3756,-130 3892,-130 3892,-78 3756,-78"/>
</g>
<g id="clust41" class="cluster">
<title>cluster_DialogModule_exports</title>
<polygon fill="none" stroke="#000000" points="3756,-222 3756,-274 3894,-274 3894,-222 3756,-222"/>
</g>
<g id="clust44" class="cluster">
<title>cluster_EmailModule</title>
<polygon fill="none" stroke="#000000" stroke-dasharray="1,5" points="3910,-70 3910,-198 4440,-198 4440,-70 3910,-70"/>
</g>
<g id="clust45" class="cluster">
<title>cluster_EmailModule_declarations</title>
<polygon fill="none" stroke="#000000" points="4080,-78 4080,-130 4432,-130 4432,-78 4080,-78"/>
</g>
<g id="clust48" class="cluster">
<title>cluster_EmailModule_imports</title>
<polygon fill="none" stroke="#000000" points="3918,-78 3918,-130 4072,-130 4072,-78 3918,-78"/>
</g>
<g id="clust58" class="cluster">
<title>cluster_FooterModule</title>
<polygon fill="none" stroke="#000000" stroke-dasharray="1,5" points="8,-70 8,-282 162,-282 162,-70 8,-70"/>
</g>
<g id="clust59" class="cluster">
<title>cluster_FooterModule_declarations</title>
<polygon fill="none" stroke="#000000" points="20,-78 20,-130 154,-130 154,-78 20,-78"/>
</g>
<g id="clust62" class="cluster">
<title>cluster_FooterModule_exports</title>
<polygon fill="none" stroke="#000000" points="16,-222 16,-274 154,-274 154,-222 16,-222"/>
</g>
<g id="clust71" class="cluster">
<title>cluster_ModalModule</title>
<polygon fill="none" stroke="#000000" stroke-dasharray="1,5" points="1349,-214 1349,-282 1645,-282 1645,-214 1349,-214"/>
</g>
<g id="clust72" class="cluster">
<title>cluster_ModalModule_declarations</title>
<polygon fill="none" stroke="#000000" points="1503,-222 1503,-274 1637,-274 1637,-222 1503,-222"/>
</g>
<g id="clust75" class="cluster">
<title>cluster_ModalModule_exports</title>
<polygon fill="none" stroke="#000000" points="1357,-222 1357,-274 1495,-274 1495,-222 1357,-222"/>
</g>
<g id="clust78" class="cluster">
<title>cluster_NavigationModule</title>
<polygon fill="none" stroke="#000000" stroke-dasharray="1,5" points="170,-138 170,-206 624,-206 624,-138 170,-138"/>
</g>
<g id="clust79" class="cluster">
<title>cluster_NavigationModule_declarations</title>
<polygon fill="none" stroke="#000000" points="332,-146 332,-198 616,-198 616,-146 332,-146"/>
</g>
<g id="clust83" class="cluster">
<title>cluster_NavigationModule_exports</title>
<polygon fill="none" stroke="#000000" points="178,-146 178,-198 324,-198 324,-146 178,-146"/>
</g>
<g id="clust86" class="cluster">
<title>cluster_PipesModule</title>
<polygon fill="none" stroke="#000000" stroke-dasharray="1,5" points="4448,-70 4448,-282 4642,-282 4642,-70 4448,-70"/>
</g>
<g id="clust87" class="cluster">
<title>cluster_PipesModule_declarations</title>
<polygon fill="none" stroke="#000000" points="4457,-78 4457,-130 4633,-130 4633,-78 4457,-78"/>
</g>
<g id="clust90" class="cluster">
<title>cluster_PipesModule_exports</title>
<polygon fill="none" stroke="#000000" points="4456,-222 4456,-274 4634,-274 4634,-222 4456,-222"/>
</g>
<g id="clust93" class="cluster">
<title>cluster_ProjectsModule</title>
<polygon fill="none" stroke="#000000" stroke-dasharray="1,5" points="833,-138 833,-274 1341,-274 1341,-138 833,-138"/>
</g>
<g id="clust94" class="cluster">
<title>cluster_ProjectsModule_declarations</title>
<polygon fill="none" stroke="#000000" points="1015,-146 1015,-198 1333,-198 1333,-146 1015,-146"/>
</g>
<g id="clust97" class="cluster">
<title>cluster_ProjectsModule_imports</title>
<polygon fill="none" stroke="#000000" points="841,-146 841,-198 1007,-198 1007,-146 841,-146"/>
</g>
<g id="clust107" class="cluster">
<title>cluster_TasksModule</title>
<polygon fill="none" stroke="#000000" stroke-dasharray="1,5" points="2455,-138 2455,-274 3107,-274 3107,-138 2455,-138"/>
</g>
<g id="clust108" class="cluster">
<title>cluster_TasksModule_declarations</title>
<polygon fill="none" stroke="#000000" points="2625,-146 2625,-198 3099,-198 3099,-146 2625,-146"/>
</g>
<g id="clust112" class="cluster">
<title>cluster_TasksModule_imports</title>
<polygon fill="none" stroke="#000000" points="2463,-146 2463,-198 2617,-198 2617,-146 2463,-146"/>
</g>
<!-- AppComponent -->
<g id="node1" class="node">
<title>AppComponent</title>
<polygon fill="#ffffb3" stroke="#000000" points="3723.9399,-334 3618.0601,-334 3618.0601,-298 3723.9399,-298 3723.9399,-334"/>
<text text-anchor="middle" x="3671" y="-311.8" font-family="Times,serif" font-size="14.00" fill="#000000">AppComponent</text>
</g>
<!-- AppModule -->
<g id="node2" class="node">
<title>AppModule</title>
<polygon fill="#8dd3c7" stroke="#000000" points="3550.6571,-399 3547.6571,-403 3526.6571,-403 3523.6571,-399 3467.3429,-399 3467.3429,-363 3550.6571,-363 3550.6571,-399"/>
<text text-anchor="middle" x="3509" y="-376.8" font-family="Times,serif" font-size="14.00" fill="#000000">AppModule</text>
</g>
<!-- AppComponent&#45;&gt;AppModule -->
<g id="edge1" class="edge">
<title>AppComponent&#45;&gt;AppModule</title>
<path fill="none" stroke="#000000" d="M3671,-334.2843C3671,-355.3211 3671,-387 3671,-387 3671,-387 3560.719,-387 3560.719,-387"/>
<polygon fill="#000000" stroke="#000000" points="3560.7191,-383.5001 3550.719,-387 3560.719,-390.5001 3560.7191,-383.5001"/>
</g>
<!-- AppComponent  -->
<g id="node5" class="node">
<title>AppComponent </title>
<polygon fill="#80b1d3" stroke="#000000" points="3563.439,-464 3454.561,-464 3454.561,-428 3563.439,-428 3563.439,-464"/>
<text text-anchor="middle" x="3509" y="-441.8" font-family="Times,serif" font-size="14.00" fill="#000000">AppComponent </text>
</g>
<!-- AppModule&#45;&gt;AppComponent  -->
<g id="edge4" class="edge">
<title>AppModule&#45;&gt;AppComponent </title>
<path fill="none" stroke="#000000" stroke-dasharray="1,5" d="M3509,-399.1061C3509,-399.1061 3509,-417.991 3509,-417.991"/>
<polygon fill="#000000" stroke="#000000" points="3505.5001,-417.9909 3509,-427.991 3512.5001,-417.991 3505.5001,-417.9909"/>
</g>
<!-- AppRoutingModule -->
<g id="node3" class="node">
<title>AppRoutingModule</title>
<polygon fill="#8dd3c7" stroke="#000000" points="3594.2744,-266 3591.2744,-270 3570.2744,-270 3567.2744,-266 3465.7256,-266 3465.7256,-230 3594.2744,-230 3594.2744,-266"/>
<text text-anchor="middle" x="3530" y="-243.8" font-family="Times,serif" font-size="14.00" fill="#000000">AppRoutingModule</text>
</g>
<!-- AppRoutingModule&#45;&gt;AppModule -->
<g id="edge2" class="edge">
<title>AppRoutingModule&#45;&gt;AppModule</title>
<path fill="none" stroke="#000000" d="M3557.9252,-266.196C3557.9252,-301.3126 3557.9252,-375 3557.9252,-375 3557.9252,-375 3557.2032,-375 3557.2032,-375"/>
<polygon fill="#000000" stroke="#000000" points="3560.7061,-371.5002 3550.7061,-375 3560.706,-378.5002 3560.7061,-371.5002"/>
</g>
<!-- CoreModule -->
<g id="node4" class="node">
<title>CoreModule</title>
<polygon fill="#8dd3c7" stroke="#000000" points="3552.2619,-334 3549.2619,-338 3528.2619,-338 3525.2619,-334 3465.7381,-334 3465.7381,-298 3552.2619,-298 3552.2619,-334"/>
<text text-anchor="middle" x="3509" y="-311.8" font-family="Times,serif" font-size="14.00" fill="#000000">CoreModule</text>
</g>
<!-- AppRoutingModule&#45;&gt;CoreModule -->
<g id="edge15" class="edge">
<title>AppRoutingModule&#45;&gt;CoreModule</title>
<path fill="none" stroke="#000000" d="M3541.5356,-266.2228C3541.5356,-266.2228 3541.5356,-287.7269 3541.5356,-287.7269"/>
<polygon fill="#000000" stroke="#000000" points="3538.0357,-287.7269 3541.5356,-297.7269 3545.0357,-287.727 3538.0357,-287.7269"/>
</g>
<!-- NavigationModule -->
<g id="node17" class="node">
<title>NavigationModule</title>
<polygon fill="#8dd3c7" stroke="#000000" points="457.7576,-266 454.7576,-270 433.7576,-270 430.7576,-266 336.2424,-266 336.2424,-230 457.7576,-230 457.7576,-266"/>
<text text-anchor="middle" x="397" y="-243.8" font-family="Times,serif" font-size="14.00" fill="#000000">NavigationModule</text>
</g>
<!-- AppRoutingModule&#45;&gt;NavigationModule -->
<g id="edge34" class="edge">
<title>AppRoutingModule&#45;&gt;NavigationModule</title>
<path fill="none" stroke="#000000" d="M3476.4644,-266.0664C3476.4644,-275.4587 3476.4644,-285 3476.4644,-285 3476.4644,-285 376.7071,-285 376.7071,-285 376.7071,-285 376.7071,-276.0664 376.7071,-276.0664"/>
<polygon fill="#000000" stroke="#000000" points="380.2072,-276.0664 376.7071,-266.0664 373.2072,-276.0665 380.2072,-276.0664"/>
</g>
<!-- CoreModule&#45;&gt;AppModule -->
<g id="edge3" class="edge">
<title>CoreModule&#45;&gt;AppModule</title>
<path fill="none" stroke="#000000" d="M3509,-334.1061C3509,-334.1061 3509,-352.991 3509,-352.991"/>
<polygon fill="#000000" stroke="#000000" points="3505.5001,-352.9909 3509,-362.991 3512.5001,-352.991 3505.5001,-352.9909"/>
</g>
<!-- NavigationModule  -->
<g id="node18" class="node">
<title>NavigationModule </title>
<polygon fill="#fb8072" stroke="#000000" points="311.7577,-266 186.2423,-266 186.2423,-230 311.7577,-230 311.7577,-266"/>
<text text-anchor="middle" x="249" y="-243.8" font-family="Times,serif" font-size="14.00" fill="#000000">NavigationModule </text>
</g>
<!-- CoreModule&#45;&gt;NavigationModule  -->
<g id="edge18" class="edge">
<title>CoreModule&#45;&gt;NavigationModule </title>
<path fill="none" stroke="#000000" stroke-dasharray="5,2" d="M3487.3096,-297.8321C3487.3096,-295.5522 3487.3096,-294 3487.3096,-294 3487.3096,-294 249,-294 249,-294 249,-294 249,-276.1804 249,-276.1804"/>
<polygon fill="#000000" stroke="#000000" points="252.5001,-276.1804 249,-266.1804 245.5001,-276.1805 252.5001,-276.1804"/>
</g>
<!-- AuthInterceptor -->
<g id="node6" class="node">
<title>AuthInterceptor</title>
<ellipse fill="#fdb462" stroke="#000000" cx="3369" cy="-316" rx="72.9121" ry="18"/>
<text text-anchor="middle" x="3369" y="-311.8" font-family="Times,serif" font-size="14.00" fill="#000000">AuthInterceptor</text>
</g>
<!-- AuthInterceptor&#45;&gt;AppModule -->
<g id="edge5" class="edge">
<title>AuthInterceptor&#45;&gt;AppModule</title>
<path fill="none" stroke="#000000" d="M3369,-334.0225C3369,-351.3734 3369,-375 3369,-375 3369,-375 3456.9954,-375 3456.9954,-375"/>
<polygon fill="#000000" stroke="#000000" points="3456.9954,-378.5001 3466.9954,-375 3456.9953,-371.5001 3456.9954,-378.5001"/>
</g>
<!-- ErrorInterceptor -->
<g id="node7" class="node">
<title>ErrorInterceptor</title>
<ellipse fill="#fdb462" stroke="#000000" cx="3205" cy="-316" rx="73.5329" ry="18"/>
<text text-anchor="middle" x="3205" y="-311.8" font-family="Times,serif" font-size="14.00" fill="#000000">ErrorInterceptor</text>
</g>
<!-- ErrorInterceptor&#45;&gt;AppModule -->
<g id="edge6" class="edge">
<title>ErrorInterceptor&#45;&gt;AppModule</title>
<path fill="none" stroke="#000000" d="M3205,-334.2843C3205,-355.3211 3205,-387 3205,-387 3205,-387 3457.0493,-387 3457.0493,-387"/>
<polygon fill="#000000" stroke="#000000" points="3457.0493,-390.5001 3467.0493,-387 3457.0492,-383.5001 3457.0493,-390.5001"/>
</g>
<!-- ForgotPasswordComponent -->
<g id="node8" class="node">
<title>ForgotPasswordComponent</title>
<polygon fill="#ffffb3" stroke="#000000" points="2395.3201,-190 2222.6799,-190 2222.6799,-154 2395.3201,-154 2395.3201,-190"/>
<text text-anchor="middle" x="2309" y="-167.8" font-family="Times,serif" font-size="14.00" fill="#000000">ForgotPasswordComponent</text>
</g>
<!-- AuthModule -->
<g id="node11" class="node">
<title>AuthModule</title>
<polygon fill="#8dd3c7" stroke="#000000" points="2122.5482,-266 2119.5482,-270 2098.5482,-270 2095.5482,-266 2035.4518,-266 2035.4518,-230 2122.5482,-230 2122.5482,-266"/>
<text text-anchor="middle" x="2079" y="-243.8" font-family="Times,serif" font-size="14.00" fill="#000000">AuthModule</text>
</g>
<!-- ForgotPasswordComponent&#45;&gt;AuthModule -->
<g id="edge7" class="edge">
<title>ForgotPasswordComponent&#45;&gt;AuthModule</title>
<path fill="none" stroke="#000000" d="M2309,-190.0267C2309,-210.7672 2309,-242 2309,-242 2309,-242 2132.8026,-242 2132.8026,-242"/>
<polygon fill="#000000" stroke="#000000" points="2132.8027,-238.5001 2122.8026,-242 2132.8026,-245.5001 2132.8027,-238.5001"/>
</g>
<!-- LoginComponent -->
<g id="node9" class="node">
<title>LoginComponent</title>
<polygon fill="#ffffb3" stroke="#000000" points="2204.2758,-190 2089.7242,-190 2089.7242,-154 2204.2758,-154 2204.2758,-190"/>
<text text-anchor="middle" x="2147" y="-167.8" font-family="Times,serif" font-size="14.00" fill="#000000">LoginComponent</text>
</g>
<!-- LoginComponent&#45;&gt;AuthModule -->
<g id="edge8" class="edge">
<title>LoginComponent&#45;&gt;AuthModule</title>
<path fill="none" stroke="#000000" d="M2106.1929,-190.0109C2106.1929,-190.0109 2106.1929,-219.855 2106.1929,-219.855"/>
<polygon fill="#000000" stroke="#000000" points="2102.6929,-219.8549 2106.1929,-229.855 2109.6929,-219.855 2102.6929,-219.8549"/>
</g>
<!-- SignupComponent -->
<g id="node10" class="node">
<title>SignupComponent</title>
<polygon fill="#ffffb3" stroke="#000000" points="2071.5056,-190 1950.4944,-190 1950.4944,-154 2071.5056,-154 2071.5056,-190"/>
<text text-anchor="middle" x="2011" y="-167.8" font-family="Times,serif" font-size="14.00" fill="#000000">SignupComponent</text>
</g>
<!-- SignupComponent&#45;&gt;AuthModule -->
<g id="edge9" class="edge">
<title>SignupComponent&#45;&gt;AuthModule</title>
<path fill="none" stroke="#000000" d="M2053.3647,-190.0109C2053.3647,-190.0109 2053.3647,-219.855 2053.3647,-219.855"/>
<polygon fill="#000000" stroke="#000000" points="2049.8647,-219.8549 2053.3647,-229.855 2056.8647,-219.855 2049.8647,-219.8549"/>
</g>
<!-- AuthRoutingModule -->
<g id="node12" class="node">
<title>AuthRoutingModule</title>
<polygon fill="#8dd3c7" stroke="#000000" points="1926.1652,-122 1923.1652,-126 1902.1652,-126 1899.1652,-122 1793.8348,-122 1793.8348,-86 1926.1652,-86 1926.1652,-122"/>
<text text-anchor="middle" x="1860" y="-99.8" font-family="Times,serif" font-size="14.00" fill="#000000">AuthRoutingModule</text>
</g>
<!-- AuthRoutingModule&#45;&gt;AuthModule -->
<g id="edge10" class="edge">
<title>AuthRoutingModule&#45;&gt;AuthModule</title>
<path fill="none" stroke="#000000" d="M1926.1745,-104C1991.1411,-104 2080.5575,-104 2080.5575,-104 2080.5575,-104 2080.5575,-219.7623 2080.5575,-219.7623"/>
<polygon fill="#000000" stroke="#000000" points="2077.0576,-219.7623 2080.5575,-229.7623 2084.0576,-219.7623 2077.0576,-219.7623"/>
</g>
<!-- MaterialModule -->
<g id="node13" class="node">
<title>MaterialModule</title>
<polygon fill="#8dd3c7" stroke="#000000" points="1775.4706,-122 1772.4706,-126 1751.4706,-126 1748.4706,-122 1668.5294,-122 1668.5294,-86 1775.4706,-86 1775.4706,-122"/>
<text text-anchor="middle" x="1722" y="-99.8" font-family="Times,serif" font-size="14.00" fill="#000000">MaterialModule</text>
</g>
<!-- MaterialModule&#45;&gt;CoreModule -->
<g id="edge16" class="edge">
<title>MaterialModule&#45;&gt;CoreModule</title>
<path fill="none" stroke="#000000" d="M1769.9087,-122.1898C1769.9087,-165.4726 1769.9087,-271 1769.9087,-271 1769.9087,-271 3530.6904,-271 3530.6904,-271 3530.6904,-271 3530.6904,-287.9561 3530.6904,-287.9561"/>
<polygon fill="#000000" stroke="#000000" points="3527.1905,-287.956 3530.6904,-297.9561 3534.1905,-287.9561 3527.1905,-287.956"/>
</g>
<!-- MaterialModule&#45;&gt;AuthModule -->
<g id="edge11" class="edge">
<title>MaterialModule&#45;&gt;AuthModule</title>
<path fill="none" stroke="#000000" d="M1771.7676,-122.2067C1771.7676,-159.0559 1771.7676,-239 1771.7676,-239 1771.7676,-239 2025.3074,-239 2025.3074,-239"/>
<polygon fill="#000000" stroke="#000000" points="2025.3074,-242.5001 2035.3074,-239 2025.3073,-235.5001 2025.3074,-242.5001"/>
</g>
<!-- ModalModule -->
<g id="node14" class="node">
<title>ModalModule</title>
<polygon fill="#8dd3c7" stroke="#000000" points="1768.0997,-190 1765.0997,-194 1744.0997,-194 1741.0997,-190 1671.9003,-190 1671.9003,-154 1768.0997,-154 1768.0997,-190"/>
<text text-anchor="middle" x="1720" y="-167.8" font-family="Times,serif" font-size="14.00" fill="#000000">ModalModule</text>
</g>
<!-- MaterialModule&#45;&gt;ModalModule -->
<g id="edge30" class="edge">
<title>MaterialModule&#45;&gt;ModalModule</title>
<path fill="none" stroke="#000000" d="M1695.9751,-122.2228C1695.9751,-122.2228 1695.9751,-143.7269 1695.9751,-143.7269"/>
<polygon fill="#000000" stroke="#000000" points="1692.4752,-143.7269 1695.9751,-153.7269 1699.4752,-143.727 1692.4752,-143.7269"/>
</g>
<!-- MaterialModule&#45;&gt;NavigationModule -->
<g id="edge36" class="edge">
<title>MaterialModule&#45;&gt;NavigationModule</title>
<path fill="none" stroke="#000000" d="M1668.2014,-104C1428.5533,-104 469.9607,-104 469.9607,-104 469.9607,-104 469.9607,-242 469.9607,-242 469.9607,-242 467.9128,-242 467.9128,-242"/>
<polygon fill="#000000" stroke="#000000" points="467.9128,-238.5001 457.9128,-242 467.9127,-245.5001 467.9128,-238.5001"/>
</g>
<!-- DialogModule -->
<g id="node20" class="node">
<title>DialogModule</title>
<polygon fill="#8dd3c7" stroke="#000000" points="3853.6528,-190 3850.6528,-194 3829.6528,-194 3826.6528,-190 3756.3472,-190 3756.3472,-154 3853.6528,-154 3853.6528,-190"/>
<text text-anchor="middle" x="3805" y="-167.8" font-family="Times,serif" font-size="14.00" fill="#000000">DialogModule</text>
</g>
<!-- MaterialModule&#45;&gt;DialogModule -->
<g id="edge20" class="edge">
<title>MaterialModule&#45;&gt;DialogModule</title>
<path fill="none" stroke="#000000" d="M1720,-122.1274C1720,-132.7109 1720,-144 1720,-144 1720,-144 3760.2283,-144 3760.2283,-144 3760.2283,-144 3760.2283,-144.9793 3760.2283,-144.9793"/>
<polygon fill="#000000" stroke="#000000" points="3756.7284,-143.793 3760.2283,-153.793 3763.7284,-143.7931 3756.7284,-143.793"/>
</g>
<!-- EmailModule -->
<g id="node24" class="node">
<title>EmailModule</title>
<polygon fill="#8dd3c7" stroke="#000000" points="4125.4888,-190 4122.4888,-194 4101.4888,-194 4098.4888,-190 4032.5112,-190 4032.5112,-154 4125.4888,-154 4125.4888,-190"/>
<text text-anchor="middle" x="4079" y="-167.8" font-family="Times,serif" font-size="14.00" fill="#000000">EmailModule</text>
</g>
<!-- MaterialModule&#45;&gt;EmailModule -->
<g id="edge25" class="edge">
<title>MaterialModule&#45;&gt;EmailModule</title>
<path fill="none" stroke="#000000" d="M1744.0249,-122.2015C1744.0249,-128.028 1744.0249,-133 1744.0249,-133 1744.0249,-133 4043.0215,-133 4043.0215,-133 4043.0215,-133 4043.0215,-143.8701 4043.0215,-143.8701"/>
<polygon fill="#000000" stroke="#000000" points="4039.5216,-143.8701 4043.0215,-153.8701 4046.5216,-143.8701 4039.5216,-143.8701"/>
</g>
<!-- FooterModule -->
<g id="node27" class="node">
<title>FooterModule</title>
<polygon fill="#8dd3c7" stroke="#000000" points="144.0983,-190 141.0983,-194 120.0983,-194 117.0983,-190 47.9017,-190 47.9017,-154 144.0983,-154 144.0983,-190"/>
<text text-anchor="middle" x="96" y="-167.8" font-family="Times,serif" font-size="14.00" fill="#000000">FooterModule</text>
</g>
<!-- MaterialModule&#45;&gt;FooterModule -->
<g id="edge27" class="edge">
<title>MaterialModule&#45;&gt;FooterModule</title>
<path fill="none" stroke="#000000" d="M1668.4385,-95C1394.829,-95 165.9865,-95 165.9865,-95 165.9865,-95 165.9865,-172 165.9865,-172 165.9865,-172 154.226,-172 154.226,-172"/>
<polygon fill="#000000" stroke="#000000" points="154.226,-168.5001 144.226,-172 154.2259,-175.5001 154.226,-168.5001"/>
</g>
<!-- ProjectsModule -->
<g id="node39" class="node">
<title>ProjectsModule</title>
<polygon fill="#8dd3c7" stroke="#000000" points="1315.1486,-266 1312.1486,-270 1291.1486,-270 1288.1486,-266 1210.8514,-266 1210.8514,-230 1315.1486,-230 1315.1486,-266"/>
<text text-anchor="middle" x="1263" y="-243.8" font-family="Times,serif" font-size="14.00" fill="#000000">ProjectsModule</text>
</g>
<!-- MaterialModule&#45;&gt;ProjectsModule -->
<g id="edge43" class="edge">
<title>MaterialModule&#45;&gt;ProjectsModule</title>
<path fill="none" stroke="#000000" d="M1668.2407,-113C1562.6343,-113 1338.2755,-113 1338.2755,-113 1338.2755,-113 1338.2755,-242 1338.2755,-242 1338.2755,-242 1325.2813,-242 1325.2813,-242"/>
<polygon fill="#000000" stroke="#000000" points="1325.2814,-238.5001 1315.2813,-242 1325.2813,-245.5001 1325.2814,-238.5001"/>
</g>
<!-- TasksModule -->
<g id="node44" class="node">
<title>TasksModule</title>
<polygon fill="#8dd3c7" stroke="#000000" points="2736.2064,-266 2733.2064,-270 2712.2064,-270 2709.2064,-266 2643.7936,-266 2643.7936,-230 2736.2064,-230 2736.2064,-266"/>
<text text-anchor="middle" x="2690" y="-243.8" font-family="Times,serif" font-size="14.00" fill="#000000">TasksModule</text>
</g>
<!-- MaterialModule&#45;&gt;TasksModule -->
<g id="edge50" class="edge">
<title>MaterialModule&#45;&gt;TasksModule</title>
<path fill="none" stroke="#000000" d="M1773.6264,-122.2356C1773.6264,-151.5744 1773.6264,-206 1773.6264,-206 1773.6264,-206 2690,-206 2690,-206 2690,-206 2690,-219.9445 2690,-219.9445"/>
<polygon fill="#000000" stroke="#000000" points="2686.5001,-219.9444 2690,-229.9445 2693.5001,-219.9445 2686.5001,-219.9444"/>
</g>
<!-- ModalModule&#45;&gt;AuthModule -->
<g id="edge12" class="edge">
<title>ModalModule&#45;&gt;AuthModule</title>
<path fill="none" stroke="#000000" d="M1744.0249,-190.0109C1744.0249,-212.4852 1744.0249,-248 1744.0249,-248 1744.0249,-248 2025.2079,-248 2025.2079,-248"/>
<polygon fill="#000000" stroke="#000000" points="2025.2079,-251.5001 2035.2079,-248 2025.2078,-244.5001 2025.2079,-251.5001"/>
</g>
<!-- ModalComponent  -->
<g id="node30" class="node">
<title>ModalComponent </title>
<polygon fill="#fb8072" stroke="#000000" points="1486.8828,-266 1365.1172,-266 1365.1172,-230 1486.8828,-230 1486.8828,-266"/>
<text text-anchor="middle" x="1426" y="-243.8" font-family="Times,serif" font-size="14.00" fill="#000000">ModalComponent </text>
</g>
<!-- ModalModule&#45;&gt;ModalComponent  -->
<g id="edge31" class="edge">
<title>ModalModule&#45;&gt;ModalComponent </title>
<path fill="none" stroke="#000000" stroke-dasharray="5,2" d="M1671.7811,-178C1588.3741,-178 1426,-178 1426,-178 1426,-178 1426,-219.9733 1426,-219.9733"/>
<polygon fill="#000000" stroke="#000000" points="1422.5001,-219.9732 1426,-229.9733 1429.5001,-219.9733 1422.5001,-219.9732"/>
</g>
<!-- ModalModule&#45;&gt;ProjectsModule -->
<g id="edge44" class="edge">
<title>ModalModule&#45;&gt;ProjectsModule</title>
<path fill="none" stroke="#000000" d="M1671.8633,-166C1572.0562,-166 1351.7922,-166 1351.7922,-166 1351.7922,-166 1351.7922,-254 1351.7922,-254 1351.7922,-254 1325.1644,-254 1325.1644,-254"/>
<polygon fill="#000000" stroke="#000000" points="1325.1644,-250.5001 1315.1644,-254 1325.1643,-257.5001 1325.1644,-250.5001"/>
</g>
<!-- ModalModule&#45;&gt;TasksModule -->
<g id="edge51" class="edge">
<title>ModalModule&#45;&gt;TasksModule</title>
<path fill="none" stroke="#000000" d="M1695.9751,-190.0555C1695.9751,-201.439 1695.9751,-214 1695.9751,-214 1695.9751,-214 2666.9485,-214 2666.9485,-214 2666.9485,-214 2666.9485,-219.8056 2666.9485,-219.8056"/>
<polygon fill="#000000" stroke="#000000" points="2663.4485,-219.8055 2666.9485,-229.8056 2670.4485,-219.8056 2663.4485,-219.8055"/>
</g>
<!-- HomeComponent -->
<g id="node15" class="node">
<title>HomeComponent</title>
<polygon fill="#ffffb3" stroke="#000000" points="780.5451,-266 665.4549,-266 665.4549,-230 780.5451,-230 780.5451,-266"/>
<text text-anchor="middle" x="723" y="-243.8" font-family="Times,serif" font-size="14.00" fill="#000000">HomeComponent</text>
</g>
<!-- HomeComponent&#45;&gt;CoreModule -->
<g id="edge13" class="edge">
<title>HomeComponent&#45;&gt;CoreModule</title>
<path fill="none" stroke="#000000" d="M723,-266.207C723,-271.5549 723,-276 723,-276 723,-276 3519.8452,-276 3519.8452,-276 3519.8452,-276 3519.8452,-287.8726 3519.8452,-287.8726"/>
<polygon fill="#000000" stroke="#000000" points="3516.3453,-287.8725 3519.8452,-297.8726 3523.3453,-287.8726 3516.3453,-287.8725"/>
</g>
<!-- PageNotFoundComponent -->
<g id="node16" class="node">
<title>PageNotFoundComponent</title>
<polygon fill="#ffffb3" stroke="#000000" points="647.8243,-266 482.1757,-266 482.1757,-230 647.8243,-230 647.8243,-266"/>
<text text-anchor="middle" x="565" y="-243.8" font-family="Times,serif" font-size="14.00" fill="#000000">PageNotFoundComponent</text>
</g>
<!-- PageNotFoundComponent&#45;&gt;CoreModule -->
<g id="edge14" class="edge">
<title>PageNotFoundComponent&#45;&gt;CoreModule</title>
<path fill="none" stroke="#000000" d="M565,-266.2434C565,-273.4297 565,-280 565,-280 565,-280 3509,-280 3509,-280 3509,-280 3509,-287.5782 3509,-287.5782"/>
<polygon fill="#000000" stroke="#000000" points="3505.5001,-287.5781 3509,-297.5782 3512.5001,-287.5782 3505.5001,-287.5781"/>
</g>
<!-- NavigationModule&#45;&gt;CoreModule -->
<g id="edge17" class="edge">
<title>NavigationModule&#45;&gt;CoreModule</title>
<path fill="none" stroke="#000000" d="M417.2929,-266.1025C417.2929,-277.0859 417.2929,-289 417.2929,-289 417.2929,-289 3498.1548,-289 3498.1548,-289 3498.1548,-289 3498.1548,-289.8841 3498.1548,-289.8841"/>
<polygon fill="#000000" stroke="#000000" points="3494.6549,-287.8408 3498.1548,-297.8408 3501.6549,-287.8409 3494.6549,-287.8408"/>
</g>
<!-- SidenavComponent  -->
<g id="node33" class="node">
<title>SidenavComponent </title>
<polygon fill="#fb8072" stroke="#000000" points="315.9348,-190 186.0652,-190 186.0652,-154 315.9348,-154 315.9348,-190"/>
<text text-anchor="middle" x="251" y="-167.8" font-family="Times,serif" font-size="14.00" fill="#000000">SidenavComponent </text>
</g>
<!-- NavigationModule&#45;&gt;SidenavComponent  -->
<g id="edge37" class="edge">
<title>NavigationModule&#45;&gt;SidenavComponent </title>
<path fill="none" stroke="#000000" stroke-dasharray="5,2" d="M336.2106,-248C330.0731,-248 326.0444,-248 326.0444,-248 326.0444,-248 326.0444,-172 326.0444,-172 326.0444,-172 325.0633,-172 325.0633,-172"/>
<polygon fill="#000000" stroke="#000000" points="326.2337,-168.5001 316.2336,-172 326.2336,-175.5001 326.2337,-168.5001"/>
</g>
<!-- DialogComponent -->
<g id="node19" class="node">
<title>DialogComponent</title>
<polygon fill="#ffffb3" stroke="#000000" points="3883.9356,-122 3764.0644,-122 3764.0644,-86 3883.9356,-86 3883.9356,-122"/>
<text text-anchor="middle" x="3824" y="-99.8" font-family="Times,serif" font-size="14.00" fill="#000000">DialogComponent</text>
</g>
<!-- DialogComponent&#45;&gt;DialogModule -->
<g id="edge19" class="edge">
<title>DialogComponent&#45;&gt;DialogModule</title>
<path fill="none" stroke="#000000" d="M3809.0544,-122.2228C3809.0544,-122.2228 3809.0544,-143.7269 3809.0544,-143.7269"/>
<polygon fill="#000000" stroke="#000000" points="3805.5544,-143.7269 3809.0544,-153.7269 3812.5544,-143.727 3805.5544,-143.7269"/>
</g>
<!-- DialogComponent  -->
<g id="node21" class="node">
<title>DialogComponent </title>
<polygon fill="#fb8072" stroke="#000000" points="3886.4348,-266 3763.5652,-266 3763.5652,-230 3886.4348,-230 3886.4348,-266"/>
<text text-anchor="middle" x="3825" y="-243.8" font-family="Times,serif" font-size="14.00" fill="#000000">DialogComponent </text>
</g>
<!-- DialogModule&#45;&gt;DialogComponent  -->
<g id="edge21" class="edge">
<title>DialogModule&#45;&gt;DialogComponent </title>
<path fill="none" stroke="#000000" stroke-dasharray="5,2" d="M3808.6794,-190.0109C3808.6794,-190.0109 3808.6794,-219.855 3808.6794,-219.855"/>
<polygon fill="#000000" stroke="#000000" points="3805.1794,-219.8549 3808.6794,-229.855 3812.1794,-219.855 3805.1794,-219.8549"/>
</g>
<!-- DialogModule&#45;&gt;ProjectsModule -->
<g id="edge42" class="edge">
<title>DialogModule&#45;&gt;ProjectsModule</title>
<path fill="none" stroke="#000000" d="M3759.8533,-190.0579C3759.8533,-194.4945 3759.8533,-198 3759.8533,-198 3759.8533,-198 1280.4413,-198 1280.4413,-198 1280.4413,-198 1280.4413,-219.9489 1280.4413,-219.9489"/>
<polygon fill="#000000" stroke="#000000" points="1276.9414,-219.9488 1280.4413,-229.9489 1283.9414,-219.9489 1276.9414,-219.9488"/>
</g>
<!-- DialogModule&#45;&gt;TasksModule -->
<g id="edge49" class="edge">
<title>DialogModule&#45;&gt;TasksModule</title>
<path fill="none" stroke="#000000" d="M3756.3118,-172C3661.2321,-172 3460.0717,-172 3460.0717,-172 3460.0717,-172 3460.0717,-257 3460.0717,-257 3460.0717,-257 2746.1509,-257 2746.1509,-257"/>
<polygon fill="#000000" stroke="#000000" points="2746.1509,-253.5001 2736.1509,-257 2746.1509,-260.5001 2746.1509,-253.5001"/>
</g>
<!-- ResetPasswordComponent -->
<g id="node22" class="node">
<title>ResetPasswordComponent</title>
<polygon fill="#ffffb3" stroke="#000000" points="4424.087,-122 4257.913,-122 4257.913,-86 4424.087,-86 4424.087,-122"/>
<text text-anchor="middle" x="4341" y="-99.8" font-family="Times,serif" font-size="14.00" fill="#000000">ResetPasswordComponent</text>
</g>
<!-- ResetPasswordComponent&#45;&gt;EmailModule -->
<g id="edge22" class="edge">
<title>ResetPasswordComponent&#45;&gt;EmailModule</title>
<path fill="none" stroke="#000000" d="M4341,-122.2228C4341,-142.3652 4341,-172 4341,-172 4341,-172 4135.5384,-172 4135.5384,-172"/>
<polygon fill="#000000" stroke="#000000" points="4135.5385,-168.5001 4125.5384,-172 4135.5384,-175.5001 4135.5385,-168.5001"/>
</g>
<!-- VerifyEmailComponent -->
<g id="node23" class="node">
<title>VerifyEmailComponent</title>
<polygon fill="#ffffb3" stroke="#000000" points="4239.8047,-122 4088.1953,-122 4088.1953,-86 4239.8047,-86 4239.8047,-122"/>
<text text-anchor="middle" x="4164" y="-99.8" font-family="Times,serif" font-size="14.00" fill="#000000">VerifyEmailComponent</text>
</g>
<!-- VerifyEmailComponent&#45;&gt;EmailModule -->
<g id="edge23" class="edge">
<title>VerifyEmailComponent&#45;&gt;EmailModule</title>
<path fill="none" stroke="#000000" d="M4106.9211,-122.2228C4106.9211,-122.2228 4106.9211,-143.7269 4106.9211,-143.7269"/>
<polygon fill="#000000" stroke="#000000" points="4103.4212,-143.7269 4106.9211,-153.7269 4110.4212,-143.727 4103.4212,-143.7269"/>
</g>
<!-- EmailRoutingModule -->
<g id="node25" class="node">
<title>EmailRoutingModule</title>
<polygon fill="#8dd3c7" stroke="#000000" points="4064.1066,-122 4061.1066,-126 4040.1066,-126 4037.1066,-122 3925.8934,-122 3925.8934,-86 4064.1066,-86 4064.1066,-122"/>
<text text-anchor="middle" x="3995" y="-99.8" font-family="Times,serif" font-size="14.00" fill="#000000">EmailRoutingModule</text>
</g>
<!-- EmailRoutingModule&#45;&gt;EmailModule -->
<g id="edge24" class="edge">
<title>EmailRoutingModule&#45;&gt;EmailModule</title>
<path fill="none" stroke="#000000" d="M4053.5374,-122.2228C4053.5374,-122.2228 4053.5374,-143.7269 4053.5374,-143.7269"/>
<polygon fill="#000000" stroke="#000000" points="4050.0375,-143.7269 4053.5374,-153.7269 4057.0375,-143.727 4050.0375,-143.7269"/>
</g>
<!-- FooterComponent -->
<g id="node26" class="node">
<title>FooterComponent</title>
<polygon fill="#ffffb3" stroke="#000000" points="145.8809,-122 28.1191,-122 28.1191,-86 145.8809,-86 145.8809,-122"/>
<text text-anchor="middle" x="87" y="-99.8" font-family="Times,serif" font-size="14.00" fill="#000000">FooterComponent</text>
</g>
<!-- FooterComponent&#45;&gt;FooterModule -->
<g id="edge26" class="edge">
<title>FooterComponent&#45;&gt;FooterModule</title>
<path fill="none" stroke="#000000" d="M96,-122.2228C96,-122.2228 96,-143.7269 96,-143.7269"/>
<polygon fill="#000000" stroke="#000000" points="92.5001,-143.7269 96,-153.7269 99.5001,-143.727 92.5001,-143.7269"/>
</g>
<!-- FooterModule&#45;&gt;NavigationModule -->
<g id="edge35" class="edge">
<title>FooterModule&#45;&gt;NavigationModule</title>
<path fill="none" stroke="#000000" d="M112.0164,-190.0511C112.0164,-204.373 112.0164,-222 112.0164,-222 112.0164,-222 379.2597,-222 379.2597,-222 379.2597,-222 379.2597,-222.7942 379.2597,-222.7942"/>
<polygon fill="#000000" stroke="#000000" points="375.7598,-219.9421 379.2597,-229.9421 382.7598,-219.9422 375.7598,-219.9421"/>
</g>
<!-- FooterComponent  -->
<g id="node28" class="node">
<title>FooterComponent </title>
<polygon fill="#fb8072" stroke="#000000" points="145.8814,-266 24.1186,-266 24.1186,-230 145.8814,-230 145.8814,-266"/>
<text text-anchor="middle" x="85" y="-243.8" font-family="Times,serif" font-size="14.00" fill="#000000">FooterComponent </text>
</g>
<!-- FooterModule&#45;&gt;FooterComponent  -->
<g id="edge28" class="edge">
<title>FooterModule&#45;&gt;FooterComponent </title>
<path fill="none" stroke="#000000" stroke-dasharray="5,2" d="M79.9836,-190.0109C79.9836,-190.0109 79.9836,-219.855 79.9836,-219.855"/>
<polygon fill="#000000" stroke="#000000" points="76.4837,-219.8549 79.9836,-229.855 83.4837,-219.855 76.4837,-219.8549"/>
</g>
<!-- ModalComponent -->
<g id="node29" class="node">
<title>ModalComponent</title>
<polygon fill="#ffffb3" stroke="#000000" points="1628.8823,-266 1511.1177,-266 1511.1177,-230 1628.8823,-230 1628.8823,-266"/>
<text text-anchor="middle" x="1570" y="-243.8" font-family="Times,serif" font-size="14.00" fill="#000000">ModalComponent</text>
</g>
<!-- ModalComponent&#45;&gt;ModalModule -->
<g id="edge29" class="edge">
<title>ModalComponent&#45;&gt;ModalModule</title>
<path fill="none" stroke="#000000" d="M1629.284,-257C1671.2115,-257 1720,-257 1720,-257 1720,-257 1720,-200.0263 1720,-200.0263"/>
<polygon fill="#000000" stroke="#000000" points="1723.5001,-200.0263 1720,-190.0263 1716.5001,-200.0263 1723.5001,-200.0263"/>
</g>
<!-- SidenavComponent -->
<g id="node31" class="node">
<title>SidenavComponent</title>
<polygon fill="#ffffb3" stroke="#000000" points="608.4356,-190 481.5644,-190 481.5644,-154 608.4356,-154 608.4356,-190"/>
<text text-anchor="middle" x="545" y="-167.8" font-family="Times,serif" font-size="14.00" fill="#000000">SidenavComponent</text>
</g>
<!-- SidenavComponent&#45;&gt;NavigationModule -->
<g id="edge32" class="edge">
<title>SidenavComponent&#45;&gt;NavigationModule</title>
<path fill="none" stroke="#000000" d="M481.7655,-172C478.1037,-172 475.8717,-172 475.8717,-172 475.8717,-172 475.8717,-254 475.8717,-254 475.8717,-254 467.9745,-254 467.9745,-254"/>
<polygon fill="#000000" stroke="#000000" points="467.9745,-250.5001 457.9745,-254 467.9744,-257.5001 467.9745,-250.5001"/>
</g>
<!-- TopnavComponent -->
<g id="node32" class="node">
<title>TopnavComponent</title>
<polygon fill="#ffffb3" stroke="#000000" points="464.0996,-190 339.9004,-190 339.9004,-154 464.0996,-154 464.0996,-190"/>
<text text-anchor="middle" x="402" y="-167.8" font-family="Times,serif" font-size="14.00" fill="#000000">TopnavComponent</text>
</g>
<!-- TopnavComponent&#45;&gt;NavigationModule -->
<g id="edge33" class="edge">
<title>TopnavComponent&#45;&gt;NavigationModule</title>
<path fill="none" stroke="#000000" d="M418.5692,-190.0109C418.5692,-190.0109 418.5692,-219.855 418.5692,-219.855"/>
<polygon fill="#000000" stroke="#000000" points="415.0693,-219.8549 418.5692,-229.855 422.0693,-219.855 415.0693,-219.8549"/>
</g>
<!-- UppercaseFirstLetterPipe -->
<g id="node34" class="node">
<title>UppercaseFirstLetterPipe</title>
<polygon fill="#ffffb3" stroke="#000000" points="4624.5506,-122 4465.4494,-122 4465.4494,-86 4624.5506,-86 4624.5506,-122"/>
<text text-anchor="middle" x="4545" y="-99.8" font-family="Times,serif" font-size="14.00" fill="#000000">UppercaseFirstLetterPipe</text>
</g>
<!-- PipesModule -->
<g id="node35" class="node">
<title>PipesModule</title>
<polygon fill="#8dd3c7" stroke="#000000" points="4589.8823,-190 4586.8823,-194 4565.8823,-194 4562.8823,-190 4500.1177,-190 4500.1177,-154 4589.8823,-154 4589.8823,-190"/>
<text text-anchor="middle" x="4545" y="-167.8" font-family="Times,serif" font-size="14.00" fill="#000000">PipesModule</text>
</g>
<!-- UppercaseFirstLetterPipe&#45;&gt;PipesModule -->
<g id="edge38" class="edge">
<title>UppercaseFirstLetterPipe&#45;&gt;PipesModule</title>
<path fill="none" stroke="#000000" d="M4545,-122.2228C4545,-122.2228 4545,-143.7269 4545,-143.7269"/>
<polygon fill="#000000" stroke="#000000" points="4541.5001,-143.7269 4545,-153.7269 4548.5001,-143.727 4541.5001,-143.7269"/>
</g>
<!-- UppercaseFirstLetterPipe  -->
<g id="node36" class="node">
<title>UppercaseFirstLetterPipe </title>
<polygon fill="#fb8072" stroke="#000000" points="4626.0512,-266 4463.9488,-266 4463.9488,-230 4626.0512,-230 4626.0512,-266"/>
<text text-anchor="middle" x="4545" y="-243.8" font-family="Times,serif" font-size="14.00" fill="#000000">UppercaseFirstLetterPipe </text>
</g>
<!-- PipesModule&#45;&gt;UppercaseFirstLetterPipe  -->
<g id="edge39" class="edge">
<title>PipesModule&#45;&gt;UppercaseFirstLetterPipe </title>
<path fill="none" stroke="#000000" stroke-dasharray="5,2" d="M4545,-190.0109C4545,-190.0109 4545,-219.855 4545,-219.855"/>
<polygon fill="#000000" stroke="#000000" points="4541.5001,-219.8549 4545,-229.855 4548.5001,-219.855 4541.5001,-219.8549"/>
</g>
<!-- CreateProjectComponent -->
<g id="node37" class="node">
<title>CreateProjectComponent</title>
<polygon fill="#ffffb3" stroke="#000000" points="1324.5183,-190 1167.4817,-190 1167.4817,-154 1324.5183,-154 1324.5183,-190"/>
<text text-anchor="middle" x="1246" y="-167.8" font-family="Times,serif" font-size="14.00" fill="#000000">CreateProjectComponent</text>
</g>
<!-- CreateProjectComponent&#45;&gt;ProjectsModule -->
<g id="edge40" class="edge">
<title>CreateProjectComponent&#45;&gt;ProjectsModule</title>
<path fill="none" stroke="#000000" d="M1245.5587,-190.0109C1245.5587,-190.0109 1245.5587,-219.855 1245.5587,-219.855"/>
<polygon fill="#000000" stroke="#000000" points="1242.0588,-219.8549 1245.5587,-229.855 1249.0588,-219.855 1242.0588,-219.8549"/>
</g>
<!-- ProjectsComponent -->
<g id="node38" class="node">
<title>ProjectsComponent</title>
<polygon fill="#ffffb3" stroke="#000000" points="1149.4313,-190 1022.5687,-190 1022.5687,-154 1149.4313,-154 1149.4313,-190"/>
<text text-anchor="middle" x="1086" y="-167.8" font-family="Times,serif" font-size="14.00" fill="#000000">ProjectsComponent</text>
</g>
<!-- ProjectsComponent&#45;&gt;ProjectsModule -->
<g id="edge41" class="edge">
<title>ProjectsComponent&#45;&gt;ProjectsModule</title>
<path fill="none" stroke="#000000" d="M1086,-190.0267C1086,-210.7672 1086,-242 1086,-242 1086,-242 1200.3734,-242 1200.3734,-242"/>
<polygon fill="#000000" stroke="#000000" points="1200.3734,-245.5001 1210.3734,-242 1200.3734,-238.5001 1200.3734,-245.5001"/>
</g>
<!-- ProjectsRoutingModule -->
<g id="node40" class="node">
<title>ProjectsRoutingModule</title>
<polygon fill="#8dd3c7" stroke="#000000" points="998.766,-190 995.766,-194 974.766,-194 971.766,-190 849.234,-190 849.234,-154 998.766,-154 998.766,-190"/>
<text text-anchor="middle" x="924" y="-167.8" font-family="Times,serif" font-size="14.00" fill="#000000">ProjectsRoutingModule</text>
</g>
<!-- ProjectsRoutingModule&#45;&gt;ProjectsModule -->
<g id="edge45" class="edge">
<title>ProjectsRoutingModule&#45;&gt;ProjectsModule</title>
<path fill="none" stroke="#000000" d="M924,-190.1985C924,-214.3563 924,-254 924,-254 924,-254 1200.7742,-254 1200.7742,-254"/>
<polygon fill="#000000" stroke="#000000" points="1200.7742,-257.5001 1210.7742,-254 1200.7741,-250.5001 1200.7742,-257.5001"/>
</g>
<!-- CreateTaskComponent -->
<g id="node41" class="node">
<title>CreateTaskComponent</title>
<polygon fill="#ffffb3" stroke="#000000" points="3090.5758,-190 2945.4242,-190 2945.4242,-154 3090.5758,-154 3090.5758,-190"/>
<text text-anchor="middle" x="3018" y="-167.8" font-family="Times,serif" font-size="14.00" fill="#000000">CreateTaskComponent</text>
</g>
<!-- CreateTaskComponent&#45;&gt;TasksModule -->
<g id="edge46" class="edge">
<title>CreateTaskComponent&#45;&gt;TasksModule</title>
<path fill="none" stroke="#000000" d="M3018,-190.0109C3018,-212.4852 3018,-248 3018,-248 3018,-248 2746.2987,-248 2746.2987,-248"/>
<polygon fill="#000000" stroke="#000000" points="2746.2988,-244.5001 2736.2987,-248 2746.2987,-251.5001 2746.2988,-244.5001"/>
</g>
<!-- TasksCardListComponent -->
<g id="node42" class="node">
<title>TasksCardListComponent</title>
<polygon fill="#ffffb3" stroke="#000000" points="2927.479,-190 2764.521,-190 2764.521,-154 2927.479,-154 2927.479,-190"/>
<text text-anchor="middle" x="2846" y="-167.8" font-family="Times,serif" font-size="14.00" fill="#000000">TasksCardListComponent</text>
</g>
<!-- TasksCardListComponent&#45;&gt;TasksModule -->
<g id="edge47" class="edge">
<title>TasksCardListComponent&#45;&gt;TasksModule</title>
<path fill="none" stroke="#000000" d="M2846,-190.308C2846,-210.1455 2846,-239 2846,-239 2846,-239 2746.3828,-239 2746.3828,-239"/>
<polygon fill="#000000" stroke="#000000" points="2746.3828,-235.5001 2736.3828,-239 2746.3827,-242.5001 2746.3828,-235.5001"/>
</g>
<!-- TasksComponent -->
<g id="node43" class="node">
<title>TasksComponent</title>
<polygon fill="#ffffb3" stroke="#000000" points="2746.9888,-190 2633.0112,-190 2633.0112,-154 2746.9888,-154 2746.9888,-190"/>
<text text-anchor="middle" x="2690" y="-167.8" font-family="Times,serif" font-size="14.00" fill="#000000">TasksComponent</text>
</g>
<!-- TasksComponent&#45;&gt;TasksModule -->
<g id="edge48" class="edge">
<title>TasksComponent&#45;&gt;TasksModule</title>
<path fill="none" stroke="#000000" d="M2713.0516,-190.0109C2713.0516,-190.0109 2713.0516,-219.855 2713.0516,-219.855"/>
<polygon fill="#000000" stroke="#000000" points="2709.5516,-219.8549 2713.0516,-229.855 2716.5516,-219.855 2709.5516,-219.8549"/>
</g>
<!-- TasksRoutingModule -->
<g id="node45" class="node">
<title>TasksRoutingModule</title>
<polygon fill="#8dd3c7" stroke="#000000" points="2608.8244,-190 2605.8244,-194 2584.8244,-194 2581.8244,-190 2471.1756,-190 2471.1756,-154 2608.8244,-154 2608.8244,-190"/>
<text text-anchor="middle" x="2540" y="-167.8" font-family="Times,serif" font-size="14.00" fill="#000000">TasksRoutingModule</text>
</g>
<!-- TasksRoutingModule&#45;&gt;TasksModule -->
<g id="edge52" class="edge">
<title>TasksRoutingModule&#45;&gt;TasksModule</title>
<path fill="none" stroke="#000000" d="M2540,-190.1985C2540,-214.3563 2540,-254 2540,-254 2540,-254 2633.7711,-254 2633.7711,-254"/>
<polygon fill="#000000" stroke="#000000" points="2633.7711,-257.5001 2643.7711,-254 2633.7711,-250.5001 2633.7711,-257.5001"/>
</g>
</g>
</svg>
