<?xml version="1.0" encoding="UTF-8" standalone="no"?>
<!DOCTYPE svg PUBLIC "-//W3C//DTD SVG 1.1//EN"
 "http://www.w3.org/Graphics/SVG/1.1/DTD/svg11.dtd">
<!-- Generated by graphviz version 2.40.1 (20161225.0304)
 -->
<!-- Title: dependencies Pages: 1 -->
<svg width="4040pt" height="436pt"
 viewBox="0.00 0.00 4040.00 436.00" xmlns="http://www.w3.org/2000/svg" xmlns:xlink="http://www.w3.org/1999/xlink">
<g id="graph0" class="graph" transform="scale(1 1) rotate(0) translate(4 432)">
<title>dependencies</title>
<polygon fill="#ffffff" stroke="transparent" points="-4,4 -4,-432 4036,-432 4036,4 -4,4"/>
<text text-anchor="start" x="1995.0091" y="-42.4" font-family="sans-serif" font-weight="bold" font-size="14.00" fill="#000000">Legend</text>
<polygon fill="#ffffb3" stroke="transparent" points="1782,-10 1782,-30 1802,-30 1802,-10 1782,-10"/>
<text text-anchor="start" x="1805.629" y="-15.4" font-family="sans-serif" font-size="14.00" fill="#000000"> &#160;Declarations</text>
<polygon fill="#8dd3c7" stroke="transparent" points="1895,-10 1895,-30 1915,-30 1915,-10 1895,-10"/>
<text text-anchor="start" x="1918.7251" y="-15.4" font-family="sans-serif" font-size="14.00" fill="#000000"> &#160;Module</text>
<polygon fill="#80b1d3" stroke="transparent" points="1981,-10 1981,-30 2001,-30 2001,-10 1981,-10"/>
<text text-anchor="start" x="2004.7812" y="-15.4" font-family="sans-serif" font-size="14.00" fill="#000000"> &#160;Bootstrap</text>
<polygon fill="#fdb462" stroke="transparent" points="2078,-10 2078,-30 2098,-30 2098,-10 2078,-10"/>
<text text-anchor="start" x="2101.6732" y="-15.4" font-family="sans-serif" font-size="14.00" fill="#000000"> &#160;Providers</text>
<polygon fill="#fb8072" stroke="transparent" points="2174,-10 2174,-30 2194,-30 2194,-10 2174,-10"/>
<text text-anchor="start" x="2197.7258" y="-15.4" font-family="sans-serif" font-size="14.00" fill="#000000"> &#160;Exports</text>
<g id="clust1" class="cluster">
<title>cluster_AppModule</title>
<polygon fill="none" stroke="#000000" stroke-dasharray="1,5" points="8,-146 8,-420 633,-420 633,-146 8,-146"/>
</g>
<g id="clust2" class="cluster">
<title>cluster_AppModule_declarations</title>
<polygon fill="none" stroke="#000000" points="503,-230 503,-282 625,-282 625,-230 503,-230"/>
</g>
<g id="clust4" class="cluster">
<title>cluster_AppModule_imports</title>
<polygon fill="none" stroke="#000000" points="351,-154 351,-282 495,-282 495,-154 351,-154"/>
</g>
<g id="clust6" class="cluster">
<title>cluster_AppModule_bootstrap</title>
<polygon fill="none" stroke="#000000" points="320,-360 320,-412 444,-412 444,-360 320,-360"/>
</g>
<g id="clust7" class="cluster">
<title>cluster_AppModule_providers</title>
<polygon fill="none" stroke="#000000" points="16,-230 16,-282 343,-282 343,-230 16,-230"/>
</g>
<g id="clust14" class="cluster">
<title>cluster_AuthModule</title>
<polygon fill="none" stroke="#000000" stroke-dasharray="1,5" points="1306,-70 1306,-282 2096,-282 2096,-70 1306,-70"/>
</g>
<g id="clust15" class="cluster">
<title>cluster_AuthModule_declarations</title>
<polygon fill="none" stroke="#000000" points="1346,-154 1346,-206 1807,-206 1807,-154 1346,-154"/>
</g>
<g id="clust19" class="cluster">
<title>cluster_AuthModule_imports</title>
<polygon fill="none" stroke="#000000" points="1815,-78 1815,-206 2088,-206 2088,-78 1815,-78"/>
</g>
<g id="clust29" class="cluster">
<title>cluster_BoardModule</title>
<polygon fill="none" stroke="#000000" stroke-dasharray="1,5" points="2408,-146 2408,-282 3486,-282 3486,-146 2408,-146"/>
</g>
<g id="clust30" class="cluster">
<title>cluster_BoardModule_declarations</title>
<polygon fill="none" stroke="#000000" points="2416,-154 2416,-206 3200,-206 3200,-154 2416,-154"/>
</g>
<g id="clust36" class="cluster">
<title>cluster_BoardModule_imports</title>
<polygon fill="none" stroke="#000000" points="3208,-154 3208,-206 3478,-206 3478,-154 3208,-154"/>
</g>
<g id="clust46" class="cluster">
<title>cluster_CoreModule</title>
<polygon fill="none" stroke="#000000" stroke-dasharray="1,5" points="641,-146 641,-214 1268,-214 1268,-146 641,-146"/>
</g>
<g id="clust47" class="cluster">
<title>cluster_CoreModule_declarations</title>
<polygon fill="none" stroke="#000000" points="945,-154 945,-206 1260,-206 1260,-154 945,-154"/>
</g>
<g id="clust50" class="cluster">
<title>cluster_CoreModule_imports</title>
<polygon fill="none" stroke="#000000" points="799,-154 799,-206 937,-206 937,-154 799,-154"/>
</g>
<g id="clust51" class="cluster">
<title>cluster_CoreModule_exports</title>
<polygon fill="none" stroke="#000000" points="649,-154 649,-206 791,-206 791,-154 649,-154"/>
</g>
<g id="clust54" class="cluster">
<title>cluster_DialogModule</title>
<polygon fill="none" stroke="#000000" stroke-dasharray="1,5" points="3494,-222 3494,-290 3792,-290 3792,-222 3494,-222"/>
</g>
<g id="clust55" class="cluster">
<title>cluster_DialogModule_declarations</title>
<polygon fill="none" stroke="#000000" points="3648,-230 3648,-282 3784,-282 3784,-230 3648,-230"/>
</g>
<g id="clust58" class="cluster">
<title>cluster_DialogModule_exports</title>
<polygon fill="none" stroke="#000000" points="3502,-230 3502,-282 3640,-282 3640,-230 3502,-230"/>
</g>
<g id="clust61" class="cluster">
<title>cluster_EmailModule</title>
<polygon fill="none" stroke="#000000" stroke-dasharray="1,5" points="3494,-70 3494,-206 4024,-206 4024,-70 3494,-70"/>
</g>
<g id="clust62" class="cluster">
<title>cluster_EmailModule_declarations</title>
<polygon fill="none" stroke="#000000" points="3664,-78 3664,-130 4016,-130 4016,-78 3664,-78"/>
</g>
<g id="clust65" class="cluster">
<title>cluster_EmailModule_imports</title>
<polygon fill="none" stroke="#000000" points="3502,-78 3502,-130 3656,-130 3656,-78 3502,-78"/>
</g>
<g id="clust81" class="cluster">
<title>cluster_ModalModule</title>
<polygon fill="none" stroke="#000000" stroke-dasharray="1,5" points="2104,-222 2104,-290 2400,-290 2400,-222 2104,-222"/>
</g>
<g id="clust82" class="cluster">
<title>cluster_ModalModule_declarations</title>
<polygon fill="none" stroke="#000000" points="2258,-230 2258,-282 2392,-282 2392,-230 2258,-230"/>
</g>
<g id="clust85" class="cluster">
<title>cluster_ModalModule_exports</title>
<polygon fill="none" stroke="#000000" points="2112,-230 2112,-282 2250,-282 2250,-230 2112,-230"/>
</g>
<g id="clust88" class="cluster">
<title>cluster_NavigationModule</title>
<polygon fill="none" stroke="#000000" stroke-dasharray="1,5" points="636,-70 636,-138 1090,-138 1090,-70 636,-70"/>
</g>
<g id="clust89" class="cluster">
<title>cluster_NavigationModule_declarations</title>
<polygon fill="none" stroke="#000000" points="798,-78 798,-130 1082,-130 1082,-78 798,-78"/>
</g>
<g id="clust93" class="cluster">
<title>cluster_NavigationModule_exports</title>
<polygon fill="none" stroke="#000000" points="644,-78 644,-130 790,-130 790,-78 644,-78"/>
</g>
<!-- AppComponent -->
<g id="node1" class="node">
<title>AppComponent</title>
<polygon fill="#ffffb3" stroke="#000000" points="616.9399,-274 511.0601,-274 511.0601,-238 616.9399,-238 616.9399,-274"/>
<text text-anchor="middle" x="564" y="-251.8" font-family="Times,serif" font-size="14.00" fill="#000000">AppComponent</text>
</g>
<!-- AppModule -->
<g id="node2" class="node">
<title>AppModule</title>
<polygon fill="#8dd3c7" stroke="#000000" points="423.6571,-339 420.6571,-343 399.6571,-343 396.6571,-339 340.3429,-339 340.3429,-303 423.6571,-303 423.6571,-339"/>
<text text-anchor="middle" x="382" y="-316.8" font-family="Times,serif" font-size="14.00" fill="#000000">AppModule</text>
</g>
<!-- AppComponent&#45;&gt;AppModule -->
<g id="edge1" class="edge">
<title>AppComponent&#45;&gt;AppModule</title>
<path fill="none" stroke="#000000" d="M564,-274.1061C564,-293.3391 564,-321 564,-321 564,-321 433.7545,-321 433.7545,-321"/>
<polygon fill="#000000" stroke="#000000" points="433.7545,-317.5001 423.7545,-321 433.7544,-324.5001 433.7545,-317.5001"/>
</g>
<!-- AppComponent  -->
<g id="node5" class="node">
<title>AppComponent </title>
<polygon fill="#80b1d3" stroke="#000000" points="436.439,-404 327.561,-404 327.561,-368 436.439,-368 436.439,-404"/>
<text text-anchor="middle" x="382" y="-381.8" font-family="Times,serif" font-size="14.00" fill="#000000">AppComponent </text>
</g>
<!-- AppModule&#45;&gt;AppComponent  -->
<g id="edge4" class="edge">
<title>AppModule&#45;&gt;AppComponent </title>
<path fill="none" stroke="#000000" stroke-dasharray="1,5" d="M382,-339.1061C382,-339.1061 382,-357.991 382,-357.991"/>
<polygon fill="#000000" stroke="#000000" points="378.5001,-357.9909 382,-367.991 385.5001,-357.991 378.5001,-357.9909"/>
</g>
<!-- AppRoutingModule -->
<g id="node3" class="node">
<title>AppRoutingModule</title>
<polygon fill="#8dd3c7" stroke="#000000" points="487.2744,-198 484.2744,-202 463.2744,-202 460.2744,-198 358.7256,-198 358.7256,-162 487.2744,-162 487.2744,-198"/>
<text text-anchor="middle" x="423" y="-175.8" font-family="Times,serif" font-size="14.00" fill="#000000">AppRoutingModule</text>
</g>
<!-- AppRoutingModule&#45;&gt;AppModule -->
<g id="edge2" class="edge">
<title>AppRoutingModule&#45;&gt;AppModule</title>
<path fill="none" stroke="#000000" d="M379.6161,-198.1446C379.6161,-198.1446 379.6161,-292.925 379.6161,-292.925"/>
<polygon fill="#000000" stroke="#000000" points="376.1161,-292.925 379.6161,-302.925 383.1161,-292.925 376.1161,-292.925"/>
</g>
<!-- CoreModule -->
<g id="node4" class="node">
<title>CoreModule</title>
<polygon fill="#8dd3c7" stroke="#000000" points="487.2619,-274 484.2619,-278 463.2619,-278 460.2619,-274 400.7381,-274 400.7381,-238 487.2619,-238 487.2619,-274"/>
<text text-anchor="middle" x="444" y="-251.8" font-family="Times,serif" font-size="14.00" fill="#000000">CoreModule</text>
</g>
<!-- AppRoutingModule&#45;&gt;CoreModule -->
<g id="edge24" class="edge">
<title>AppRoutingModule&#45;&gt;CoreModule</title>
<path fill="none" stroke="#000000" d="M413.0137,-198.0109C413.0137,-198.0109 413.0137,-227.855 413.0137,-227.855"/>
<polygon fill="#000000" stroke="#000000" points="409.5138,-227.8549 413.0137,-237.855 416.5138,-227.855 409.5138,-227.8549"/>
</g>
<!-- NavigationModule -->
<g id="node25" class="node">
<title>NavigationModule</title>
<polygon fill="#8dd3c7" stroke="#000000" points="928.7576,-198 925.7576,-202 904.7576,-202 901.7576,-198 807.2424,-198 807.2424,-162 928.7576,-162 928.7576,-198"/>
<text text-anchor="middle" x="868" y="-175.8" font-family="Times,serif" font-size="14.00" fill="#000000">NavigationModule</text>
</g>
<!-- AppRoutingModule&#45;&gt;NavigationModule -->
<g id="edge40" class="edge">
<title>AppRoutingModule&#45;&gt;NavigationModule</title>
<path fill="none" stroke="#000000" d="M425.4082,-198.1903C425.4082,-201.5376 425.4082,-204 425.4082,-204 425.4082,-204 847.7071,-204 847.7071,-204 847.7071,-204 847.7071,-203.419 847.7071,-203.419"/>
<polygon fill="#000000" stroke="#000000" points="851.2073,-208.1902 847.7071,-198.1903 844.2073,-208.1903 851.2073,-208.1902"/>
</g>
<!-- CoreModule&#45;&gt;AppModule -->
<g id="edge3" class="edge">
<title>CoreModule&#45;&gt;AppModule</title>
<path fill="none" stroke="#000000" d="M412.2237,-274.1061C412.2237,-274.1061 412.2237,-292.991 412.2237,-292.991"/>
<polygon fill="#000000" stroke="#000000" points="408.7238,-292.9909 412.2237,-302.991 415.7238,-292.991 408.7238,-292.9909"/>
</g>
<!-- NavigationModule  -->
<g id="node26" class="node">
<title>NavigationModule </title>
<polygon fill="#fb8072" stroke="#000000" points="782.7577,-198 657.2423,-198 657.2423,-162 782.7577,-162 782.7577,-198"/>
<text text-anchor="middle" x="720" y="-175.8" font-family="Times,serif" font-size="14.00" fill="#000000">NavigationModule </text>
</g>
<!-- CoreModule&#45;&gt;NavigationModule  -->
<g id="edge27" class="edge">
<title>CoreModule&#45;&gt;NavigationModule </title>
<path fill="none" stroke="#000000" stroke-dasharray="5,2" d="M487.3272,-256C494.3278,-256 499.3338,-256 499.3338,-256 499.3338,-256 499.3338,-180 499.3338,-180 499.3338,-180 647.3562,-180 647.3562,-180"/>
<polygon fill="#000000" stroke="#000000" points="647.3562,-183.5001 657.3562,-180 647.3561,-176.5001 647.3562,-183.5001"/>
</g>
<!-- AuthInterceptor -->
<g id="node6" class="node">
<title>AuthInterceptor</title>
<ellipse fill="#fdb462" stroke="#000000" cx="262" cy="-256" rx="72.9121" ry="18"/>
<text text-anchor="middle" x="262" y="-251.8" font-family="Times,serif" font-size="14.00" fill="#000000">AuthInterceptor</text>
</g>
<!-- AuthInterceptor&#45;&gt;AppModule -->
<g id="edge5" class="edge">
<title>AuthInterceptor&#45;&gt;AppModule</title>
<path fill="none" stroke="#000000" d="M331.1181,-261.8728C331.1181,-276.7962 331.1181,-315 331.1181,-315 331.1181,-315 332.0044,-315 332.0044,-315"/>
<polygon fill="#000000" stroke="#000000" points="329.9811,-318.5001 339.9811,-315 329.981,-311.5001 329.9811,-318.5001"/>
</g>
<!-- ErrorInterceptor -->
<g id="node7" class="node">
<title>ErrorInterceptor</title>
<ellipse fill="#fdb462" stroke="#000000" cx="98" cy="-256" rx="73.5329" ry="18"/>
<text text-anchor="middle" x="98" y="-251.8" font-family="Times,serif" font-size="14.00" fill="#000000">ErrorInterceptor</text>
</g>
<!-- ErrorInterceptor&#45;&gt;AppModule -->
<g id="edge6" class="edge">
<title>ErrorInterceptor&#45;&gt;AppModule</title>
<path fill="none" stroke="#000000" d="M98,-274.2843C98,-295.3211 98,-327 98,-327 98,-327 330.0948,-327 330.0948,-327"/>
<polygon fill="#000000" stroke="#000000" points="330.0949,-330.5001 340.0948,-327 330.0948,-323.5001 330.0949,-330.5001"/>
</g>
<!-- ForgotPasswordComponent -->
<g id="node8" class="node">
<title>ForgotPasswordComponent</title>
<polygon fill="#ffffb3" stroke="#000000" points="1799.3201,-198 1626.6799,-198 1626.6799,-162 1799.3201,-162 1799.3201,-198"/>
<text text-anchor="middle" x="1713" y="-175.8" font-family="Times,serif" font-size="14.00" fill="#000000">ForgotPasswordComponent</text>
</g>
<!-- AuthModule -->
<g id="node11" class="node">
<title>AuthModule</title>
<polygon fill="#8dd3c7" stroke="#000000" points="1526.5482,-274 1523.5482,-278 1502.5482,-278 1499.5482,-274 1439.4518,-274 1439.4518,-238 1526.5482,-238 1526.5482,-274"/>
<text text-anchor="middle" x="1483" y="-251.8" font-family="Times,serif" font-size="14.00" fill="#000000">AuthModule</text>
</g>
<!-- ForgotPasswordComponent&#45;&gt;AuthModule -->
<g id="edge7" class="edge">
<title>ForgotPasswordComponent&#45;&gt;AuthModule</title>
<path fill="none" stroke="#000000" d="M1713,-198.0348C1713,-217.5762 1713,-246 1713,-246 1713,-246 1536.8026,-246 1536.8026,-246"/>
<polygon fill="#000000" stroke="#000000" points="1536.8027,-242.5001 1526.8026,-246 1536.8026,-249.5001 1536.8027,-242.5001"/>
</g>
<!-- LoginComponent -->
<g id="node9" class="node">
<title>LoginComponent</title>
<polygon fill="#ffffb3" stroke="#000000" points="1608.2758,-198 1493.7242,-198 1493.7242,-162 1608.2758,-162 1608.2758,-198"/>
<text text-anchor="middle" x="1551" y="-175.8" font-family="Times,serif" font-size="14.00" fill="#000000">LoginComponent</text>
</g>
<!-- LoginComponent&#45;&gt;AuthModule -->
<g id="edge8" class="edge">
<title>LoginComponent&#45;&gt;AuthModule</title>
<path fill="none" stroke="#000000" d="M1510.1929,-198.0109C1510.1929,-198.0109 1510.1929,-227.855 1510.1929,-227.855"/>
<polygon fill="#000000" stroke="#000000" points="1506.6929,-227.8549 1510.1929,-237.855 1513.6929,-227.855 1506.6929,-227.8549"/>
</g>
<!-- SignupComponent -->
<g id="node10" class="node">
<title>SignupComponent</title>
<polygon fill="#ffffb3" stroke="#000000" points="1475.5056,-198 1354.4944,-198 1354.4944,-162 1475.5056,-162 1475.5056,-198"/>
<text text-anchor="middle" x="1415" y="-175.8" font-family="Times,serif" font-size="14.00" fill="#000000">SignupComponent</text>
</g>
<!-- SignupComponent&#45;&gt;AuthModule -->
<g id="edge9" class="edge">
<title>SignupComponent&#45;&gt;AuthModule</title>
<path fill="none" stroke="#000000" d="M1457.3647,-198.0109C1457.3647,-198.0109 1457.3647,-227.855 1457.3647,-227.855"/>
<polygon fill="#000000" stroke="#000000" points="1453.8647,-227.8549 1457.3647,-237.855 1460.8647,-227.855 1453.8647,-227.8549"/>
</g>
<!-- AuthRoutingModule -->
<g id="node12" class="node">
<title>AuthRoutingModule</title>
<polygon fill="#8dd3c7" stroke="#000000" points="1955.1652,-122 1952.1652,-126 1931.1652,-126 1928.1652,-122 1822.8348,-122 1822.8348,-86 1955.1652,-86 1955.1652,-122"/>
<text text-anchor="middle" x="1889" y="-99.8" font-family="Times,serif" font-size="14.00" fill="#000000">AuthRoutingModule</text>
</g>
<!-- AuthRoutingModule&#45;&gt;AuthModule -->
<g id="edge10" class="edge">
<title>AuthRoutingModule&#45;&gt;AuthModule</title>
<path fill="none" stroke="#000000" d="M1822.6674,-104C1707.9282,-104 1484.5575,-104 1484.5575,-104 1484.5575,-104 1484.5575,-227.9667 1484.5575,-227.9667"/>
<polygon fill="#000000" stroke="#000000" points="1481.0576,-227.9667 1484.5575,-237.9667 1488.0576,-227.9667 1481.0576,-227.9667"/>
</g>
<!-- MaterialModule -->
<g id="node13" class="node">
<title>MaterialModule</title>
<polygon fill="#8dd3c7" stroke="#000000" points="2080.4706,-122 2077.4706,-126 2056.4706,-126 2053.4706,-122 1973.5294,-122 1973.5294,-86 2080.4706,-86 2080.4706,-122"/>
<text text-anchor="middle" x="2027" y="-99.8" font-family="Times,serif" font-size="14.00" fill="#000000">MaterialModule</text>
</g>
<!-- MaterialModule&#45;&gt;CoreModule -->
<g id="edge25" class="edge">
<title>MaterialModule&#45;&gt;CoreModule</title>
<path fill="none" stroke="#000000" d="M1978.7325,-122.1491C1978.7325,-156.3636 1978.7325,-227 1978.7325,-227 1978.7325,-227 474.9863,-227 474.9863,-227 474.9863,-227 474.9863,-228.0799 474.9863,-228.0799"/>
<polygon fill="#000000" stroke="#000000" points="471.4864,-227.7985 474.9863,-237.7985 478.4864,-227.7986 471.4864,-227.7985"/>
</g>
<!-- MaterialModule&#45;&gt;AuthModule -->
<g id="edge11" class="edge">
<title>MaterialModule&#45;&gt;AuthModule</title>
<path fill="none" stroke="#000000" d="M1981.3413,-122.2703C1981.3413,-162.0576 1981.3413,-253 1981.3413,-253 1981.3413,-253 1536.7877,-253 1536.7877,-253"/>
<polygon fill="#000000" stroke="#000000" points="1536.7877,-249.5001 1526.7877,-253 1536.7877,-256.5001 1536.7877,-249.5001"/>
</g>
<!-- ModalModule -->
<g id="node14" class="node">
<title>ModalModule</title>
<polygon fill="#8dd3c7" stroke="#000000" points="2080.0997,-198 2077.0997,-202 2056.0997,-202 2053.0997,-198 1983.9003,-198 1983.9003,-162 2080.0997,-162 2080.0997,-198"/>
<text text-anchor="middle" x="2032" y="-175.8" font-family="Times,serif" font-size="14.00" fill="#000000">ModalModule</text>
</g>
<!-- MaterialModule&#45;&gt;ModalModule -->
<g id="edge36" class="edge">
<title>MaterialModule&#45;&gt;ModalModule</title>
<path fill="none" stroke="#000000" d="M2032,-122.0109C2032,-122.0109 2032,-151.855 2032,-151.855"/>
<polygon fill="#000000" stroke="#000000" points="2028.5001,-151.8549 2032,-161.855 2035.5001,-151.855 2028.5001,-151.8549"/>
</g>
<!-- BoardModule -->
<g id="node20" class="node">
<title>BoardModule</title>
<polygon fill="#8dd3c7" stroke="#000000" points="2871.7619,-274 2868.7619,-278 2847.7619,-278 2844.7619,-274 2778.2381,-274 2778.2381,-238 2871.7619,-238 2871.7619,-274"/>
<text text-anchor="middle" x="2825" y="-251.8" font-family="Times,serif" font-size="14.00" fill="#000000">BoardModule</text>
</g>
<!-- MaterialModule&#45;&gt;BoardModule -->
<g id="edge20" class="edge">
<title>MaterialModule&#45;&gt;BoardModule</title>
<path fill="none" stroke="#000000" d="M2080.7027,-113C2186.198,-113 2410.3207,-113 2410.3207,-113 2410.3207,-113 2410.3207,-260 2410.3207,-260 2410.3207,-260 2768.2371,-260 2768.2371,-260"/>
<polygon fill="#000000" stroke="#000000" points="2768.2371,-263.5001 2778.2371,-260 2768.2371,-256.5001 2768.2371,-263.5001"/>
</g>
<!-- DialogModule -->
<g id="node22" class="node">
<title>DialogModule</title>
<polygon fill="#8dd3c7" stroke="#000000" points="3469.6528,-198 3466.6528,-202 3445.6528,-202 3442.6528,-198 3372.3472,-198 3372.3472,-162 3469.6528,-162 3469.6528,-198"/>
<text text-anchor="middle" x="3421" y="-175.8" font-family="Times,serif" font-size="14.00" fill="#000000">DialogModule</text>
</g>
<!-- MaterialModule&#45;&gt;DialogModule -->
<g id="edge29" class="edge">
<title>MaterialModule&#45;&gt;DialogModule</title>
<path fill="none" stroke="#000000" d="M2080.7923,-104C2336.9773,-104 3421,-104 3421,-104 3421,-104 3421,-151.9891 3421,-151.9891"/>
<polygon fill="#000000" stroke="#000000" points="3417.5001,-151.989 3421,-161.9891 3424.5001,-151.9891 3417.5001,-151.989"/>
</g>
<!-- MaterialModule&#45;&gt;NavigationModule -->
<g id="edge41" class="edge">
<title>MaterialModule&#45;&gt;NavigationModule</title>
<path fill="none" stroke="#000000" d="M1976.1236,-122.1097C1976.1236,-131.897 1976.1236,-142 1976.1236,-142 1976.1236,-142 888.2929,-142 888.2929,-142 888.2929,-142 888.2929,-151.8903 888.2929,-151.8903"/>
<polygon fill="#000000" stroke="#000000" points="884.793,-151.8903 888.2929,-161.8903 891.793,-151.8904 884.793,-151.8903"/>
</g>
<!-- EmailModule -->
<g id="node31" class="node">
<title>EmailModule</title>
<polygon fill="#8dd3c7" stroke="#000000" points="3709.4888,-198 3706.4888,-202 3685.4888,-202 3682.4888,-198 3616.5112,-198 3616.5112,-162 3709.4888,-162 3709.4888,-198"/>
<text text-anchor="middle" x="3663" y="-175.8" font-family="Times,serif" font-size="14.00" fill="#000000">EmailModule</text>
</g>
<!-- MaterialModule&#45;&gt;EmailModule -->
<g id="edge34" class="edge">
<title>MaterialModule&#45;&gt;EmailModule</title>
<path fill="none" stroke="#000000" d="M2080.7922,-95C2344.679,-95 3489.6794,-95 3489.6794,-95 3489.6794,-95 3489.6794,-180 3489.6794,-180 3489.6794,-180 3606.0969,-180 3606.0969,-180"/>
<polygon fill="#000000" stroke="#000000" points="3606.097,-183.5001 3616.0969,-180 3606.0969,-176.5001 3606.097,-183.5001"/>
</g>
<!-- ModalModule&#45;&gt;AuthModule -->
<g id="edge12" class="edge">
<title>ModalModule&#45;&gt;AuthModule</title>
<path fill="none" stroke="#000000" d="M2015.9834,-198.1532C2015.9834,-221.7566 2015.9834,-260 2015.9834,-260 2015.9834,-260 1536.6163,-260 1536.6163,-260"/>
<polygon fill="#000000" stroke="#000000" points="1536.6163,-256.5001 1526.6163,-260 1536.6162,-263.5001 1536.6163,-256.5001"/>
</g>
<!-- ModalModule&#45;&gt;BoardModule -->
<g id="edge21" class="edge">
<title>ModalModule&#45;&gt;BoardModule</title>
<path fill="none" stroke="#000000" d="M2080.11,-174C2179.2588,-174 2397.1309,-174 2397.1309,-174 2397.1309,-174 2397.1309,-267 2397.1309,-267 2397.1309,-267 2767.9866,-267 2767.9866,-267"/>
<polygon fill="#000000" stroke="#000000" points="2767.9866,-270.5001 2777.9866,-267 2767.9865,-263.5001 2767.9866,-270.5001"/>
</g>
<!-- ModalComponent  -->
<g id="node34" class="node">
<title>ModalComponent </title>
<polygon fill="#fb8072" stroke="#000000" points="2241.8828,-274 2120.1172,-274 2120.1172,-238 2241.8828,-238 2241.8828,-274"/>
<text text-anchor="middle" x="2181" y="-251.8" font-family="Times,serif" font-size="14.00" fill="#000000">ModalComponent </text>
</g>
<!-- ModalModule&#45;&gt;ModalComponent  -->
<g id="edge37" class="edge">
<title>ModalModule&#45;&gt;ModalComponent </title>
<path fill="none" stroke="#000000" stroke-dasharray="5,2" d="M2048.0166,-198.0265C2048.0166,-223.5093 2048.0166,-267 2048.0166,-267 2048.0166,-267 2109.9573,-267 2109.9573,-267"/>
<polygon fill="#000000" stroke="#000000" points="2109.9573,-270.5001 2119.9573,-267 2109.9572,-263.5001 2109.9573,-270.5001"/>
</g>
<!-- BoardComponent -->
<g id="node15" class="node">
<title>BoardComponent</title>
<polygon fill="#ffffb3" stroke="#000000" points="2882.5451,-198 2767.4549,-198 2767.4549,-162 2882.5451,-162 2882.5451,-198"/>
<text text-anchor="middle" x="2825" y="-175.8" font-family="Times,serif" font-size="14.00" fill="#000000">BoardComponent</text>
</g>
<!-- BoardComponent&#45;&gt;BoardModule -->
<g id="edge13" class="edge">
<title>BoardComponent&#45;&gt;BoardModule</title>
<path fill="none" stroke="#000000" d="M2825,-198.0109C2825,-198.0109 2825,-227.855 2825,-227.855"/>
<polygon fill="#000000" stroke="#000000" points="2821.5001,-227.8549 2825,-237.855 2828.5001,-227.855 2821.5001,-227.8549"/>
</g>
<!-- CreateTaskComponent -->
<g id="node16" class="node">
<title>CreateTaskComponent</title>
<polygon fill="#ffffb3" stroke="#000000" points="2749.5758,-198 2604.4242,-198 2604.4242,-162 2749.5758,-162 2749.5758,-198"/>
<text text-anchor="middle" x="2677" y="-175.8" font-family="Times,serif" font-size="14.00" fill="#000000">CreateTaskComponent</text>
</g>
<!-- CreateTaskComponent&#45;&gt;BoardModule -->
<g id="edge14" class="edge">
<title>CreateTaskComponent&#45;&gt;BoardModule</title>
<path fill="none" stroke="#000000" d="M2677,-198.0348C2677,-217.5762 2677,-246 2677,-246 2677,-246 2768.1719,-246 2768.1719,-246"/>
<polygon fill="#000000" stroke="#000000" points="2768.1719,-249.5001 2778.1719,-246 2768.1718,-242.5001 2768.1719,-249.5001"/>
</g>
<!-- TasksCardListComponent -->
<g id="node17" class="node">
<title>TasksCardListComponent</title>
<polygon fill="#ffffb3" stroke="#000000" points="2586.479,-198 2423.521,-198 2423.521,-162 2586.479,-162 2586.479,-198"/>
<text text-anchor="middle" x="2505" y="-175.8" font-family="Times,serif" font-size="14.00" fill="#000000">TasksCardListComponent</text>
</g>
<!-- TasksCardListComponent&#45;&gt;BoardModule -->
<g id="edge15" class="edge">
<title>TasksCardListComponent&#45;&gt;BoardModule</title>
<path fill="none" stroke="#000000" d="M2505,-198.0449C2505,-219.6623 2505,-253 2505,-253 2505,-253 2768.1265,-253 2768.1265,-253"/>
<polygon fill="#000000" stroke="#000000" points="2768.1266,-256.5001 2778.1265,-253 2768.1265,-249.5001 2768.1266,-256.5001"/>
</g>
<!-- TasksComponent -->
<g id="node18" class="node">
<title>TasksComponent</title>
<polygon fill="#ffffb3" stroke="#000000" points="3191.9888,-198 3078.0112,-198 3078.0112,-162 3191.9888,-162 3191.9888,-198"/>
<text text-anchor="middle" x="3135" y="-175.8" font-family="Times,serif" font-size="14.00" fill="#000000">TasksComponent</text>
</g>
<!-- TasksComponent&#45;&gt;BoardModule -->
<g id="edge16" class="edge">
<title>TasksComponent&#45;&gt;BoardModule</title>
<path fill="none" stroke="#000000" d="M3135,-198.0267C3135,-218.7672 3135,-250 3135,-250 3135,-250 2882.0823,-250 2882.0823,-250"/>
<polygon fill="#000000" stroke="#000000" points="2882.0824,-246.5001 2872.0823,-250 2882.0823,-253.5001 2882.0824,-246.5001"/>
</g>
<!-- UppercaseFirstLetterPipe -->
<g id="node19" class="node">
<title>UppercaseFirstLetterPipe</title>
<polygon fill="#ffffb3" stroke="#000000" points="3059.5506,-198 2900.4494,-198 2900.4494,-162 3059.5506,-162 3059.5506,-198"/>
<text text-anchor="middle" x="2980" y="-175.8" font-family="Times,serif" font-size="14.00" fill="#000000">UppercaseFirstLetterPipe</text>
</g>
<!-- UppercaseFirstLetterPipe&#45;&gt;BoardModule -->
<g id="edge17" class="edge">
<title>UppercaseFirstLetterPipe&#45;&gt;BoardModule</title>
<path fill="none" stroke="#000000" d="M2980,-198.1686C2980,-217.0898 2980,-244 2980,-244 2980,-244 2881.9257,-244 2881.9257,-244"/>
<polygon fill="#000000" stroke="#000000" points="2881.9258,-240.5001 2871.9257,-244 2881.9257,-247.5001 2881.9258,-240.5001"/>
</g>
<!-- BoardRoutingModule -->
<g id="node21" class="node">
<title>BoardRoutingModule</title>
<polygon fill="#8dd3c7" stroke="#000000" points="3354.3795,-198 3351.3795,-202 3330.3795,-202 3327.3795,-198 3215.6205,-198 3215.6205,-162 3354.3795,-162 3354.3795,-198"/>
<text text-anchor="middle" x="3285" y="-175.8" font-family="Times,serif" font-size="14.00" fill="#000000">BoardRoutingModule</text>
</g>
<!-- BoardRoutingModule&#45;&gt;BoardModule -->
<g id="edge18" class="edge">
<title>BoardRoutingModule&#45;&gt;BoardModule</title>
<path fill="none" stroke="#000000" d="M3285,-198.0109C3285,-220.4852 3285,-256 3285,-256 3285,-256 2882.0663,-256 2882.0663,-256"/>
<polygon fill="#000000" stroke="#000000" points="2882.0663,-252.5001 2872.0663,-256 2882.0663,-259.5001 2882.0663,-252.5001"/>
</g>
<!-- DialogModule&#45;&gt;BoardModule -->
<g id="edge19" class="edge">
<title>DialogModule&#45;&gt;BoardModule</title>
<path fill="none" stroke="#000000" d="M3396.587,-198.1985C3396.587,-222.3563 3396.587,-262 3396.587,-262 3396.587,-262 2881.7754,-262 2881.7754,-262"/>
<polygon fill="#000000" stroke="#000000" points="2881.7754,-258.5001 2871.7754,-262 2881.7753,-265.5001 2881.7754,-258.5001"/>
</g>
<!-- DialogComponent  -->
<g id="node28" class="node">
<title>DialogComponent </title>
<polygon fill="#fb8072" stroke="#000000" points="3632.4348,-274 3509.5652,-274 3509.5652,-238 3632.4348,-238 3632.4348,-274"/>
<text text-anchor="middle" x="3571" y="-251.8" font-family="Times,serif" font-size="14.00" fill="#000000">DialogComponent </text>
</g>
<!-- DialogModule&#45;&gt;DialogComponent  -->
<g id="edge30" class="edge">
<title>DialogModule&#45;&gt;DialogComponent </title>
<path fill="none" stroke="#000000" stroke-dasharray="5,2" d="M3445.4131,-198.2337C3445.4131,-224.0094 3445.4131,-268 3445.4131,-268 3445.4131,-268 3499.3103,-268 3499.3103,-268"/>
<polygon fill="#000000" stroke="#000000" points="3499.3103,-271.5001 3509.3103,-268 3499.3102,-264.5001 3499.3103,-271.5001"/>
</g>
<!-- HomeComponent -->
<g id="node23" class="node">
<title>HomeComponent</title>
<polygon fill="#ffffb3" stroke="#000000" points="1251.5451,-198 1136.4549,-198 1136.4549,-162 1251.5451,-162 1251.5451,-198"/>
<text text-anchor="middle" x="1194" y="-175.8" font-family="Times,serif" font-size="14.00" fill="#000000">HomeComponent</text>
</g>
<!-- HomeComponent&#45;&gt;CoreModule -->
<g id="edge22" class="edge">
<title>HomeComponent&#45;&gt;CoreModule</title>
<path fill="none" stroke="#000000" d="M1194,-198.1025C1194,-209.0859 1194,-221 1194,-221 1194,-221 462.5918,-221 462.5918,-221 462.5918,-221 462.5918,-227.68 462.5918,-227.68"/>
<polygon fill="#000000" stroke="#000000" points="459.0919,-227.6799 462.5918,-237.68 466.0919,-227.68 459.0919,-227.6799"/>
</g>
<!-- PageNotFoundComponent -->
<g id="node24" class="node">
<title>PageNotFoundComponent</title>
<polygon fill="#ffffb3" stroke="#000000" points="1118.8243,-198 953.1757,-198 953.1757,-162 1118.8243,-162 1118.8243,-198"/>
<text text-anchor="middle" x="1036" y="-175.8" font-family="Times,serif" font-size="14.00" fill="#000000">PageNotFoundComponent</text>
</g>
<!-- PageNotFoundComponent&#45;&gt;CoreModule -->
<g id="edge23" class="edge">
<title>PageNotFoundComponent&#45;&gt;CoreModule</title>
<path fill="none" stroke="#000000" d="M1036,-198.4218C1036,-207.2791 1036,-216 1036,-216 1036,-216 450.1973,-216 450.1973,-216 450.1973,-216 450.1973,-227.8726 450.1973,-227.8726"/>
<polygon fill="#000000" stroke="#000000" points="446.6974,-227.8725 450.1973,-237.8726 453.6974,-227.8726 446.6974,-227.8725"/>
</g>
<!-- NavigationModule&#45;&gt;CoreModule -->
<g id="edge26" class="edge">
<title>NavigationModule&#45;&gt;CoreModule</title>
<path fill="none" stroke="#000000" d="M888.2929,-198.1432C888.2929,-204.4611 888.2929,-210 888.2929,-210 888.2929,-210 437.8027,-210 437.8027,-210 437.8027,-210 437.8027,-227.8196 437.8027,-227.8196"/>
<polygon fill="#000000" stroke="#000000" points="434.3028,-227.8195 437.8027,-237.8196 441.3028,-227.8196 434.3028,-227.8195"/>
</g>
<!-- SidenavComponent  -->
<g id="node37" class="node">
<title>SidenavComponent </title>
<polygon fill="#fb8072" stroke="#000000" points="781.9348,-122 652.0652,-122 652.0652,-86 781.9348,-86 781.9348,-122"/>
<text text-anchor="middle" x="717" y="-99.8" font-family="Times,serif" font-size="14.00" fill="#000000">SidenavComponent </text>
</g>
<!-- NavigationModule&#45;&gt;SidenavComponent  -->
<g id="edge42" class="edge">
<title>NavigationModule&#45;&gt;SidenavComponent </title>
<path fill="none" stroke="#000000" stroke-dasharray="5,2" d="M807.1288,-180C799.4902,-180 794.2895,-180 794.2895,-180 794.2895,-180 794.2895,-104 794.2895,-104 794.2895,-104 792.213,-104 792.213,-104"/>
<polygon fill="#000000" stroke="#000000" points="792.213,-100.5001 782.213,-104 792.2129,-107.5001 792.213,-100.5001"/>
</g>
<!-- DialogComponent -->
<g id="node27" class="node">
<title>DialogComponent</title>
<polygon fill="#ffffb3" stroke="#000000" points="3775.9356,-274 3656.0644,-274 3656.0644,-238 3775.9356,-238 3775.9356,-274"/>
<text text-anchor="middle" x="3716" y="-251.8" font-family="Times,serif" font-size="14.00" fill="#000000">DialogComponent</text>
</g>
<!-- DialogComponent&#45;&gt;DialogModule -->
<g id="edge28" class="edge">
<title>DialogComponent&#45;&gt;DialogModule</title>
<path fill="none" stroke="#000000" d="M3682.8885,-237.8777C3682.8885,-235.0271 3682.8885,-233 3682.8885,-233 3682.8885,-233 3421,-233 3421,-233 3421,-233 3421,-208.2396 3421,-208.2396"/>
<polygon fill="#000000" stroke="#000000" points="3424.5001,-208.2396 3421,-198.2396 3417.5001,-208.2396 3424.5001,-208.2396"/>
</g>
<!-- ResetPasswordComponent -->
<g id="node29" class="node">
<title>ResetPasswordComponent</title>
<polygon fill="#ffffb3" stroke="#000000" points="4008.087,-122 3841.913,-122 3841.913,-86 4008.087,-86 4008.087,-122"/>
<text text-anchor="middle" x="3925" y="-99.8" font-family="Times,serif" font-size="14.00" fill="#000000">ResetPasswordComponent</text>
</g>
<!-- ResetPasswordComponent&#45;&gt;EmailModule -->
<g id="edge31" class="edge">
<title>ResetPasswordComponent&#45;&gt;EmailModule</title>
<path fill="none" stroke="#000000" d="M3925,-122.0109C3925,-144.4852 3925,-180 3925,-180 3925,-180 3719.5384,-180 3719.5384,-180"/>
<polygon fill="#000000" stroke="#000000" points="3719.5385,-176.5001 3709.5384,-180 3719.5384,-183.5001 3719.5385,-176.5001"/>
</g>
<!-- VerifyEmailComponent -->
<g id="node30" class="node">
<title>VerifyEmailComponent</title>
<polygon fill="#ffffb3" stroke="#000000" points="3823.8047,-122 3672.1953,-122 3672.1953,-86 3823.8047,-86 3823.8047,-122"/>
<text text-anchor="middle" x="3748" y="-99.8" font-family="Times,serif" font-size="14.00" fill="#000000">VerifyEmailComponent</text>
</g>
<!-- VerifyEmailComponent&#45;&gt;EmailModule -->
<g id="edge32" class="edge">
<title>VerifyEmailComponent&#45;&gt;EmailModule</title>
<path fill="none" stroke="#000000" d="M3690.9211,-122.0109C3690.9211,-122.0109 3690.9211,-151.855 3690.9211,-151.855"/>
<polygon fill="#000000" stroke="#000000" points="3687.4212,-151.8549 3690.9211,-161.855 3694.4212,-151.855 3687.4212,-151.8549"/>
</g>
<!-- EmailRoutingModule -->
<g id="node32" class="node">
<title>EmailRoutingModule</title>
<polygon fill="#8dd3c7" stroke="#000000" points="3648.1066,-122 3645.1066,-126 3624.1066,-126 3621.1066,-122 3509.8934,-122 3509.8934,-86 3648.1066,-86 3648.1066,-122"/>
<text text-anchor="middle" x="3579" y="-99.8" font-family="Times,serif" font-size="14.00" fill="#000000">EmailRoutingModule</text>
</g>
<!-- EmailRoutingModule&#45;&gt;EmailModule -->
<g id="edge33" class="edge">
<title>EmailRoutingModule&#45;&gt;EmailModule</title>
<path fill="none" stroke="#000000" d="M3632.2795,-122.0109C3632.2795,-122.0109 3632.2795,-151.855 3632.2795,-151.855"/>
<polygon fill="#000000" stroke="#000000" points="3628.7795,-151.8549 3632.2795,-161.855 3635.7795,-151.855 3628.7795,-151.8549"/>
</g>
<!-- ModalComponent -->
<g id="node33" class="node">
<title>ModalComponent</title>
<polygon fill="#ffffb3" stroke="#000000" points="2383.8823,-274 2266.1177,-274 2266.1177,-238 2383.8823,-238 2383.8823,-274"/>
<text text-anchor="middle" x="2325" y="-251.8" font-family="Times,serif" font-size="14.00" fill="#000000">ModalComponent</text>
</g>
<!-- ModalComponent&#45;&gt;ModalModule -->
<g id="edge35" class="edge">
<title>ModalComponent&#45;&gt;ModalModule</title>
<path fill="none" stroke="#000000" d="M2325,-237.9733C2325,-217.2328 2325,-186 2325,-186 2325,-186 2090.0549,-186 2090.0549,-186"/>
<polygon fill="#000000" stroke="#000000" points="2090.0549,-182.5001 2080.0549,-186 2090.0549,-189.5001 2090.0549,-182.5001"/>
</g>
<!-- SidenavComponent -->
<g id="node35" class="node">
<title>SidenavComponent</title>
<polygon fill="#ffffb3" stroke="#000000" points="1074.4356,-122 947.5644,-122 947.5644,-86 1074.4356,-86 1074.4356,-122"/>
<text text-anchor="middle" x="1011" y="-99.8" font-family="Times,serif" font-size="14.00" fill="#000000">SidenavComponent</text>
</g>
<!-- SidenavComponent&#45;&gt;NavigationModule -->
<g id="edge38" class="edge">
<title>SidenavComponent&#45;&gt;NavigationModule</title>
<path fill="none" stroke="#000000" d="M947.7551,-104C942.3655,-104 938.9162,-104 938.9162,-104 938.9162,-104 938.9162,-180 938.9162,-180 938.9162,-180 937.9301,-180 937.9301,-180"/>
<polygon fill="#000000" stroke="#000000" points="939.0556,-176.5001 929.0556,-180 939.0556,-183.5001 939.0556,-176.5001"/>
</g>
<!-- TopnavComponent -->
<g id="node36" class="node">
<title>TopnavComponent</title>
<polygon fill="#ffffb3" stroke="#000000" points="930.0996,-122 805.9004,-122 805.9004,-86 930.0996,-86 930.0996,-122"/>
<text text-anchor="middle" x="868" y="-99.8" font-family="Times,serif" font-size="14.00" fill="#000000">TopnavComponent</text>
</g>
<!-- TopnavComponent&#45;&gt;NavigationModule -->
<g id="edge39" class="edge">
<title>TopnavComponent&#45;&gt;NavigationModule</title>
<path fill="none" stroke="#000000" d="M847.7071,-122.0109C847.7071,-122.0109 847.7071,-151.855 847.7071,-151.855"/>
<polygon fill="#000000" stroke="#000000" points="844.2072,-151.8549 847.7071,-161.855 851.2072,-151.855 844.2072,-151.8549"/>
</g>
</g>
</svg>
