<?xml version="1.0" encoding="UTF-8" standalone="no"?>
<!DOCTYPE svg PUBLIC "-//W3C//DTD SVG 1.1//EN"
 "http://www.w3.org/Graphics/SVG/1.1/DTD/svg11.dtd">
<!-- Generated by graphviz version 2.40.1 (20161225.0304)
 -->
<!-- Title: dependencies Pages: 1 -->
<svg width="3299pt" height="436pt"
 viewBox="0.00 0.00 3299.00 436.00" xmlns="http://www.w3.org/2000/svg" xmlns:xlink="http://www.w3.org/1999/xlink">
<g id="graph0" class="graph" transform="scale(1 1) rotate(0) translate(4 432)">
<title>dependencies</title>
<polygon fill="#ffffff" stroke="transparent" points="-4,4 -4,-432 3295,-432 3295,4 -4,4"/>
<text text-anchor="start" x="1624.5091" y="-42.4" font-family="sans-serif" font-weight="bold" font-size="14.00" fill="#000000">Legend</text>
<polygon fill="#ffffb3" stroke="transparent" points="1411.5,-10 1411.5,-30 1431.5,-30 1431.5,-10 1411.5,-10"/>
<text text-anchor="start" x="1435.129" y="-15.4" font-family="sans-serif" font-size="14.00" fill="#000000"> &#160;Declarations</text>
<polygon fill="#8dd3c7" stroke="transparent" points="1524.5,-10 1524.5,-30 1544.5,-30 1544.5,-10 1524.5,-10"/>
<text text-anchor="start" x="1548.2251" y="-15.4" font-family="sans-serif" font-size="14.00" fill="#000000"> &#160;Module</text>
<polygon fill="#80b1d3" stroke="transparent" points="1610.5,-10 1610.5,-30 1630.5,-30 1630.5,-10 1610.5,-10"/>
<text text-anchor="start" x="1634.2812" y="-15.4" font-family="sans-serif" font-size="14.00" fill="#000000"> &#160;Bootstrap</text>
<polygon fill="#fdb462" stroke="transparent" points="1707.5,-10 1707.5,-30 1727.5,-30 1727.5,-10 1707.5,-10"/>
<text text-anchor="start" x="1731.1732" y="-15.4" font-family="sans-serif" font-size="14.00" fill="#000000"> &#160;Providers</text>
<polygon fill="#fb8072" stroke="transparent" points="1803.5,-10 1803.5,-30 1823.5,-30 1823.5,-10 1803.5,-10"/>
<text text-anchor="start" x="1827.2258" y="-15.4" font-family="sans-serif" font-size="14.00" fill="#000000"> &#160;Exports</text>
<g id="clust1" class="cluster">
<title>cluster_AppModule</title>
<polygon fill="none" stroke="#000000" stroke-dasharray="1,5" points="8,-146 8,-420 633,-420 633,-146 8,-146"/>
</g>
<g id="clust2" class="cluster">
<title>cluster_AppModule_declarations</title>
<polygon fill="none" stroke="#000000" points="503,-230 503,-282 625,-282 625,-230 503,-230"/>
</g>
<g id="clust4" class="cluster">
<title>cluster_AppModule_imports</title>
<polygon fill="none" stroke="#000000" points="351,-154 351,-282 495,-282 495,-154 351,-154"/>
</g>
<g id="clust6" class="cluster">
<title>cluster_AppModule_bootstrap</title>
<polygon fill="none" stroke="#000000" points="320,-360 320,-412 444,-412 444,-360 320,-360"/>
</g>
<g id="clust7" class="cluster">
<title>cluster_AppModule_providers</title>
<polygon fill="none" stroke="#000000" points="16,-230 16,-282 343,-282 343,-230 16,-230"/>
</g>
<g id="clust14" class="cluster">
<title>cluster_AuthModule</title>
<polygon fill="none" stroke="#000000" stroke-dasharray="1,5" points="1276,-70 1276,-206 1843,-206 1843,-70 1276,-70"/>
</g>
<g id="clust15" class="cluster">
<title>cluster_AuthModule_declarations</title>
<polygon fill="none" stroke="#000000" points="1284,-78 1284,-130 1554,-130 1554,-78 1284,-78"/>
</g>
<g id="clust18" class="cluster">
<title>cluster_AuthModule_imports</title>
<polygon fill="none" stroke="#000000" points="1562,-78 1562,-130 1835,-130 1835,-78 1562,-78"/>
</g>
<g id="clust28" class="cluster">
<title>cluster_BoardModule</title>
<polygon fill="none" stroke="#000000" stroke-dasharray="1,5" points="1851,-146 1851,-282 2929,-282 2929,-146 1851,-146"/>
</g>
<g id="clust29" class="cluster">
<title>cluster_BoardModule_declarations</title>
<polygon fill="none" stroke="#000000" points="1859,-154 1859,-206 2643,-206 2643,-154 1859,-154"/>
</g>
<g id="clust35" class="cluster">
<title>cluster_BoardModule_imports</title>
<polygon fill="none" stroke="#000000" points="2651,-154 2651,-206 2921,-206 2921,-154 2651,-154"/>
</g>
<g id="clust45" class="cluster">
<title>cluster_CoreModule</title>
<polygon fill="none" stroke="#000000" stroke-dasharray="1,5" points="641,-146 641,-214 1268,-214 1268,-146 641,-146"/>
</g>
<g id="clust46" class="cluster">
<title>cluster_CoreModule_declarations</title>
<polygon fill="none" stroke="#000000" points="945,-154 945,-206 1260,-206 1260,-154 945,-154"/>
</g>
<g id="clust49" class="cluster">
<title>cluster_CoreModule_imports</title>
<polygon fill="none" stroke="#000000" points="799,-154 799,-206 937,-206 937,-154 799,-154"/>
</g>
<g id="clust50" class="cluster">
<title>cluster_CoreModule_exports</title>
<polygon fill="none" stroke="#000000" points="649,-154 649,-206 791,-206 791,-154 649,-154"/>
</g>
<g id="clust53" class="cluster">
<title>cluster_DialogModule</title>
<polygon fill="none" stroke="#000000" stroke-dasharray="1,5" points="2937,-222 2937,-290 3235,-290 3235,-222 2937,-222"/>
</g>
<g id="clust54" class="cluster">
<title>cluster_DialogModule_declarations</title>
<polygon fill="none" stroke="#000000" points="3091,-230 3091,-282 3227,-282 3227,-230 3091,-230"/>
</g>
<g id="clust57" class="cluster">
<title>cluster_DialogModule_exports</title>
<polygon fill="none" stroke="#000000" points="2945,-230 2945,-282 3083,-282 3083,-230 2945,-230"/>
</g>
<g id="clust60" class="cluster">
<title>cluster_EmailModule</title>
<polygon fill="none" stroke="#000000" stroke-dasharray="1,5" points="2937,-70 2937,-206 3283,-206 3283,-70 2937,-70"/>
</g>
<g id="clust61" class="cluster">
<title>cluster_EmailModule_declarations</title>
<polygon fill="none" stroke="#000000" points="3107,-78 3107,-130 3275,-130 3275,-78 3107,-78"/>
</g>
<g id="clust63" class="cluster">
<title>cluster_EmailModule_imports</title>
<polygon fill="none" stroke="#000000" points="2945,-78 2945,-130 3099,-130 3099,-78 2945,-78"/>
</g>
<g id="clust79" class="cluster">
<title>cluster_NavigationModule</title>
<polygon fill="none" stroke="#000000" stroke-dasharray="1,5" points="636,-70 636,-138 1090,-138 1090,-70 636,-70"/>
</g>
<g id="clust80" class="cluster">
<title>cluster_NavigationModule_declarations</title>
<polygon fill="none" stroke="#000000" points="798,-78 798,-130 1082,-130 1082,-78 798,-78"/>
</g>
<g id="clust84" class="cluster">
<title>cluster_NavigationModule_exports</title>
<polygon fill="none" stroke="#000000" points="644,-78 644,-130 790,-130 790,-78 644,-78"/>
</g>
<!-- AppComponent -->
<g id="node1" class="node">
<title>AppComponent</title>
<polygon fill="#ffffb3" stroke="#000000" points="616.9399,-274 511.0601,-274 511.0601,-238 616.9399,-238 616.9399,-274"/>
<text text-anchor="middle" x="564" y="-251.8" font-family="Times,serif" font-size="14.00" fill="#000000">AppComponent</text>
</g>
<!-- AppModule -->
<g id="node2" class="node">
<title>AppModule</title>
<polygon fill="#8dd3c7" stroke="#000000" points="423.6571,-339 420.6571,-343 399.6571,-343 396.6571,-339 340.3429,-339 340.3429,-303 423.6571,-303 423.6571,-339"/>
<text text-anchor="middle" x="382" y="-316.8" font-family="Times,serif" font-size="14.00" fill="#000000">AppModule</text>
</g>
<!-- AppComponent&#45;&gt;AppModule -->
<g id="edge1" class="edge">
<title>AppComponent&#45;&gt;AppModule</title>
<path fill="none" stroke="#000000" d="M564,-274.1061C564,-293.3391 564,-321 564,-321 564,-321 433.7545,-321 433.7545,-321"/>
<polygon fill="#000000" stroke="#000000" points="433.7545,-317.5001 423.7545,-321 433.7544,-324.5001 433.7545,-317.5001"/>
</g>
<!-- AppComponent  -->
<g id="node5" class="node">
<title>AppComponent </title>
<polygon fill="#80b1d3" stroke="#000000" points="436.439,-404 327.561,-404 327.561,-368 436.439,-368 436.439,-404"/>
<text text-anchor="middle" x="382" y="-381.8" font-family="Times,serif" font-size="14.00" fill="#000000">AppComponent </text>
</g>
<!-- AppModule&#45;&gt;AppComponent  -->
<g id="edge4" class="edge">
<title>AppModule&#45;&gt;AppComponent </title>
<path fill="none" stroke="#000000" stroke-dasharray="1,5" d="M382,-339.1061C382,-339.1061 382,-357.991 382,-357.991"/>
<polygon fill="#000000" stroke="#000000" points="378.5001,-357.9909 382,-367.991 385.5001,-357.991 378.5001,-357.9909"/>
</g>
<!-- AppRoutingModule -->
<g id="node3" class="node">
<title>AppRoutingModule</title>
<polygon fill="#8dd3c7" stroke="#000000" points="487.2744,-198 484.2744,-202 463.2744,-202 460.2744,-198 358.7256,-198 358.7256,-162 487.2744,-162 487.2744,-198"/>
<text text-anchor="middle" x="423" y="-175.8" font-family="Times,serif" font-size="14.00" fill="#000000">AppRoutingModule</text>
</g>
<!-- AppRoutingModule&#45;&gt;AppModule -->
<g id="edge2" class="edge">
<title>AppRoutingModule&#45;&gt;AppModule</title>
<path fill="none" stroke="#000000" d="M379.6161,-198.1446C379.6161,-198.1446 379.6161,-292.925 379.6161,-292.925"/>
<polygon fill="#000000" stroke="#000000" points="376.1161,-292.925 379.6161,-302.925 383.1161,-292.925 376.1161,-292.925"/>
</g>
<!-- CoreModule -->
<g id="node4" class="node">
<title>CoreModule</title>
<polygon fill="#8dd3c7" stroke="#000000" points="487.2619,-274 484.2619,-278 463.2619,-278 460.2619,-274 400.7381,-274 400.7381,-238 487.2619,-238 487.2619,-274"/>
<text text-anchor="middle" x="444" y="-251.8" font-family="Times,serif" font-size="14.00" fill="#000000">CoreModule</text>
</g>
<!-- AppRoutingModule&#45;&gt;CoreModule -->
<g id="edge21" class="edge">
<title>AppRoutingModule&#45;&gt;CoreModule</title>
<path fill="none" stroke="#000000" d="M413.0137,-198.0109C413.0137,-198.0109 413.0137,-227.855 413.0137,-227.855"/>
<polygon fill="#000000" stroke="#000000" points="409.5138,-227.8549 413.0137,-237.855 416.5138,-227.855 409.5138,-227.8549"/>
</g>
<!-- NavigationModule -->
<g id="node23" class="node">
<title>NavigationModule</title>
<polygon fill="#8dd3c7" stroke="#000000" points="928.7576,-198 925.7576,-202 904.7576,-202 901.7576,-198 807.2424,-198 807.2424,-162 928.7576,-162 928.7576,-198"/>
<text text-anchor="middle" x="868" y="-175.8" font-family="Times,serif" font-size="14.00" fill="#000000">NavigationModule</text>
</g>
<!-- AppRoutingModule&#45;&gt;NavigationModule -->
<g id="edge33" class="edge">
<title>AppRoutingModule&#45;&gt;NavigationModule</title>
<path fill="none" stroke="#000000" d="M425.4082,-198.1903C425.4082,-201.5376 425.4082,-204 425.4082,-204 425.4082,-204 847.7071,-204 847.7071,-204 847.7071,-204 847.7071,-203.419 847.7071,-203.419"/>
<polygon fill="#000000" stroke="#000000" points="851.2073,-208.1902 847.7071,-198.1903 844.2073,-208.1903 851.2073,-208.1902"/>
</g>
<!-- CoreModule&#45;&gt;AppModule -->
<g id="edge3" class="edge">
<title>CoreModule&#45;&gt;AppModule</title>
<path fill="none" stroke="#000000" d="M412.2237,-274.1061C412.2237,-274.1061 412.2237,-292.991 412.2237,-292.991"/>
<polygon fill="#000000" stroke="#000000" points="408.7238,-292.9909 412.2237,-302.991 415.7238,-292.991 408.7238,-292.9909"/>
</g>
<!-- NavigationModule  -->
<g id="node24" class="node">
<title>NavigationModule </title>
<polygon fill="#fb8072" stroke="#000000" points="782.7577,-198 657.2423,-198 657.2423,-162 782.7577,-162 782.7577,-198"/>
<text text-anchor="middle" x="720" y="-175.8" font-family="Times,serif" font-size="14.00" fill="#000000">NavigationModule </text>
</g>
<!-- CoreModule&#45;&gt;NavigationModule  -->
<g id="edge24" class="edge">
<title>CoreModule&#45;&gt;NavigationModule </title>
<path fill="none" stroke="#000000" stroke-dasharray="5,2" d="M487.3272,-256C494.3278,-256 499.3338,-256 499.3338,-256 499.3338,-256 499.3338,-180 499.3338,-180 499.3338,-180 647.3562,-180 647.3562,-180"/>
<polygon fill="#000000" stroke="#000000" points="647.3562,-183.5001 657.3562,-180 647.3561,-176.5001 647.3562,-183.5001"/>
</g>
<!-- AuthInterceptor -->
<g id="node6" class="node">
<title>AuthInterceptor</title>
<ellipse fill="#fdb462" stroke="#000000" cx="262" cy="-256" rx="72.9121" ry="18"/>
<text text-anchor="middle" x="262" y="-251.8" font-family="Times,serif" font-size="14.00" fill="#000000">AuthInterceptor</text>
</g>
<!-- AuthInterceptor&#45;&gt;AppModule -->
<g id="edge5" class="edge">
<title>AuthInterceptor&#45;&gt;AppModule</title>
<path fill="none" stroke="#000000" d="M331.1181,-261.8728C331.1181,-276.7962 331.1181,-315 331.1181,-315 331.1181,-315 332.0044,-315 332.0044,-315"/>
<polygon fill="#000000" stroke="#000000" points="329.9811,-318.5001 339.9811,-315 329.981,-311.5001 329.9811,-318.5001"/>
</g>
<!-- ErrorInterceptor -->
<g id="node7" class="node">
<title>ErrorInterceptor</title>
<ellipse fill="#fdb462" stroke="#000000" cx="98" cy="-256" rx="73.5329" ry="18"/>
<text text-anchor="middle" x="98" y="-251.8" font-family="Times,serif" font-size="14.00" fill="#000000">ErrorInterceptor</text>
</g>
<!-- ErrorInterceptor&#45;&gt;AppModule -->
<g id="edge6" class="edge">
<title>ErrorInterceptor&#45;&gt;AppModule</title>
<path fill="none" stroke="#000000" d="M98,-274.2843C98,-295.3211 98,-327 98,-327 98,-327 330.0948,-327 330.0948,-327"/>
<polygon fill="#000000" stroke="#000000" points="330.0949,-330.5001 340.0948,-327 330.0948,-323.5001 330.0949,-330.5001"/>
</g>
<!-- LoginComponent -->
<g id="node8" class="node">
<title>LoginComponent</title>
<polygon fill="#ffffb3" stroke="#000000" points="1546.2758,-122 1431.7242,-122 1431.7242,-86 1546.2758,-86 1546.2758,-122"/>
<text text-anchor="middle" x="1489" y="-99.8" font-family="Times,serif" font-size="14.00" fill="#000000">LoginComponent</text>
</g>
<!-- AuthModule -->
<g id="node10" class="node">
<title>AuthModule</title>
<polygon fill="#8dd3c7" stroke="#000000" points="1605.5482,-198 1602.5482,-202 1581.5482,-202 1578.5482,-198 1518.4518,-198 1518.4518,-162 1605.5482,-162 1605.5482,-198"/>
<text text-anchor="middle" x="1562" y="-175.8" font-family="Times,serif" font-size="14.00" fill="#000000">AuthModule</text>
</g>
<!-- LoginComponent&#45;&gt;AuthModule -->
<g id="edge7" class="edge">
<title>LoginComponent&#45;&gt;AuthModule</title>
<path fill="none" stroke="#000000" d="M1532.3072,-122.0109C1532.3072,-122.0109 1532.3072,-151.855 1532.3072,-151.855"/>
<polygon fill="#000000" stroke="#000000" points="1528.8072,-151.8549 1532.3072,-161.855 1535.8072,-151.855 1528.8072,-151.8549"/>
</g>
<!-- SignupComponent -->
<g id="node9" class="node">
<title>SignupComponent</title>
<polygon fill="#ffffb3" stroke="#000000" points="1413.5056,-122 1292.4944,-122 1292.4944,-86 1413.5056,-86 1413.5056,-122"/>
<text text-anchor="middle" x="1353" y="-99.8" font-family="Times,serif" font-size="14.00" fill="#000000">SignupComponent</text>
</g>
<!-- SignupComponent&#45;&gt;AuthModule -->
<g id="edge8" class="edge">
<title>SignupComponent&#45;&gt;AuthModule</title>
<path fill="none" stroke="#000000" d="M1353,-122.0109C1353,-144.4852 1353,-180 1353,-180 1353,-180 1508.4412,-180 1508.4412,-180"/>
<polygon fill="#000000" stroke="#000000" points="1508.4412,-183.5001 1518.4412,-180 1508.4411,-176.5001 1508.4412,-183.5001"/>
</g>
<!-- AuthRoutingModule -->
<g id="node11" class="node">
<title>AuthRoutingModule</title>
<polygon fill="#8dd3c7" stroke="#000000" points="1702.1652,-122 1699.1652,-126 1678.1652,-126 1675.1652,-122 1569.8348,-122 1569.8348,-86 1702.1652,-86 1702.1652,-122"/>
<text text-anchor="middle" x="1636" y="-99.8" font-family="Times,serif" font-size="14.00" fill="#000000">AuthRoutingModule</text>
</g>
<!-- AuthRoutingModule&#45;&gt;AuthModule -->
<g id="edge9" class="edge">
<title>AuthRoutingModule&#45;&gt;AuthModule</title>
<path fill="none" stroke="#000000" d="M1587.7206,-122.0109C1587.7206,-122.0109 1587.7206,-151.855 1587.7206,-151.855"/>
<polygon fill="#000000" stroke="#000000" points="1584.2206,-151.8549 1587.7206,-161.855 1591.2206,-151.855 1584.2206,-151.8549"/>
</g>
<!-- MaterialModule -->
<g id="node12" class="node">
<title>MaterialModule</title>
<polygon fill="#8dd3c7" stroke="#000000" points="1827.4706,-122 1824.4706,-126 1803.4706,-126 1800.4706,-122 1720.5294,-122 1720.5294,-86 1827.4706,-86 1827.4706,-122"/>
<text text-anchor="middle" x="1774" y="-99.8" font-family="Times,serif" font-size="14.00" fill="#000000">MaterialModule</text>
</g>
<!-- MaterialModule&#45;&gt;CoreModule -->
<g id="edge22" class="edge">
<title>MaterialModule&#45;&gt;CoreModule</title>
<path fill="none" stroke="#000000" d="M1800.7427,-122.1491C1800.7427,-156.3636 1800.7427,-227 1800.7427,-227 1800.7427,-227 474.9863,-227 474.9863,-227 474.9863,-227 474.9863,-228.0799 474.9863,-228.0799"/>
<polygon fill="#000000" stroke="#000000" points="471.4864,-227.7985 474.9863,-237.7985 478.4864,-227.7986 471.4864,-227.7985"/>
</g>
<!-- MaterialModule&#45;&gt;AuthModule -->
<g id="edge10" class="edge">
<title>MaterialModule&#45;&gt;AuthModule</title>
<path fill="none" stroke="#000000" d="M1774,-122.0109C1774,-144.4852 1774,-180 1774,-180 1774,-180 1615.6695,-180 1615.6695,-180"/>
<polygon fill="#000000" stroke="#000000" points="1615.6695,-176.5001 1605.6695,-180 1615.6694,-183.5001 1615.6695,-176.5001"/>
</g>
<!-- BoardModule -->
<g id="node18" class="node">
<title>BoardModule</title>
<polygon fill="#8dd3c7" stroke="#000000" points="2391.7619,-274 2388.7619,-278 2367.7619,-278 2364.7619,-274 2298.2381,-274 2298.2381,-238 2391.7619,-238 2391.7619,-274"/>
<text text-anchor="middle" x="2345" y="-251.8" font-family="Times,serif" font-size="14.00" fill="#000000">BoardModule</text>
</g>
<!-- MaterialModule&#45;&gt;BoardModule -->
<g id="edge18" class="edge">
<title>MaterialModule&#45;&gt;BoardModule</title>
<path fill="none" stroke="#000000" d="M1827.501,-113C1967.6316,-113 2334.6234,-113 2334.6234,-113 2334.6234,-113 2334.6234,-227.889 2334.6234,-227.889"/>
<polygon fill="#000000" stroke="#000000" points="2331.1235,-227.8889 2334.6234,-237.889 2338.1235,-227.889 2331.1235,-227.8889"/>
</g>
<!-- DialogModule -->
<g id="node20" class="node">
<title>DialogModule</title>
<polygon fill="#8dd3c7" stroke="#000000" points="2912.6528,-198 2909.6528,-202 2888.6528,-202 2885.6528,-198 2815.3472,-198 2815.3472,-162 2912.6528,-162 2912.6528,-198"/>
<text text-anchor="middle" x="2864" y="-175.8" font-family="Times,serif" font-size="14.00" fill="#000000">DialogModule</text>
</g>
<!-- MaterialModule&#45;&gt;DialogModule -->
<g id="edge26" class="edge">
<title>MaterialModule&#45;&gt;DialogModule</title>
<path fill="none" stroke="#000000" d="M1827.6815,-104C2047.0715,-104 2864,-104 2864,-104 2864,-104 2864,-151.9891 2864,-151.9891"/>
<polygon fill="#000000" stroke="#000000" points="2860.5001,-151.989 2864,-161.9891 2867.5001,-151.9891 2860.5001,-151.989"/>
</g>
<!-- MaterialModule&#45;&gt;NavigationModule -->
<g id="edge34" class="edge">
<title>MaterialModule&#45;&gt;NavigationModule</title>
<path fill="none" stroke="#000000" d="M1747.2574,-122.1097C1747.2574,-131.897 1747.2574,-142 1747.2574,-142 1747.2574,-142 888.2929,-142 888.2929,-142 888.2929,-142 888.2929,-151.8903 888.2929,-151.8903"/>
<polygon fill="#000000" stroke="#000000" points="884.793,-151.8903 888.2929,-161.8903 891.793,-151.8904 884.793,-151.8903"/>
</g>
<!-- EmailModule -->
<g id="node28" class="node">
<title>EmailModule</title>
<polygon fill="#8dd3c7" stroke="#000000" points="3068.4888,-198 3065.4888,-202 3044.4888,-202 3041.4888,-198 2975.5112,-198 2975.5112,-162 3068.4888,-162 3068.4888,-198"/>
<text text-anchor="middle" x="3022" y="-175.8" font-family="Times,serif" font-size="14.00" fill="#000000">EmailModule</text>
</g>
<!-- MaterialModule&#45;&gt;EmailModule -->
<g id="edge30" class="edge">
<title>MaterialModule&#45;&gt;EmailModule</title>
<path fill="none" stroke="#000000" d="M1827.5617,-95C2055.4387,-95 2932.6794,-95 2932.6794,-95 2932.6794,-95 2932.6794,-174 2932.6794,-174 2932.6794,-174 2965.5084,-174 2965.5084,-174"/>
<polygon fill="#000000" stroke="#000000" points="2965.5084,-177.5001 2975.5084,-174 2965.5083,-170.5001 2965.5084,-177.5001"/>
</g>
<!-- BoardComponent -->
<g id="node13" class="node">
<title>BoardComponent</title>
<polygon fill="#ffffb3" stroke="#000000" points="2325.5451,-198 2210.4549,-198 2210.4549,-162 2325.5451,-162 2325.5451,-198"/>
<text text-anchor="middle" x="2268" y="-175.8" font-family="Times,serif" font-size="14.00" fill="#000000">BoardComponent</text>
</g>
<!-- BoardComponent&#45;&gt;BoardModule -->
<g id="edge11" class="edge">
<title>BoardComponent&#45;&gt;BoardModule</title>
<path fill="none" stroke="#000000" d="M2311.9457,-198.0109C2311.9457,-198.0109 2311.9457,-227.855 2311.9457,-227.855"/>
<polygon fill="#000000" stroke="#000000" points="2308.4457,-227.8549 2311.9457,-237.855 2315.4457,-227.855 2308.4457,-227.8549"/>
</g>
<!-- CreateTaskComponent -->
<g id="node14" class="node">
<title>CreateTaskComponent</title>
<polygon fill="#ffffb3" stroke="#000000" points="2192.5758,-198 2047.4242,-198 2047.4242,-162 2192.5758,-162 2192.5758,-198"/>
<text text-anchor="middle" x="2120" y="-175.8" font-family="Times,serif" font-size="14.00" fill="#000000">CreateTaskComponent</text>
</g>
<!-- CreateTaskComponent&#45;&gt;BoardModule -->
<g id="edge12" class="edge">
<title>CreateTaskComponent&#45;&gt;BoardModule</title>
<path fill="none" stroke="#000000" d="M2120,-198.0267C2120,-218.7672 2120,-250 2120,-250 2120,-250 2288.1065,-250 2288.1065,-250"/>
<polygon fill="#000000" stroke="#000000" points="2288.1065,-253.5001 2298.1065,-250 2288.1065,-246.5001 2288.1065,-253.5001"/>
</g>
<!-- TasksCardListComponent -->
<g id="node15" class="node">
<title>TasksCardListComponent</title>
<polygon fill="#ffffb3" stroke="#000000" points="2029.479,-198 1866.521,-198 1866.521,-162 2029.479,-162 2029.479,-198"/>
<text text-anchor="middle" x="1948" y="-175.8" font-family="Times,serif" font-size="14.00" fill="#000000">TasksCardListComponent</text>
</g>
<!-- TasksCardListComponent&#45;&gt;BoardModule -->
<g id="edge13" class="edge">
<title>TasksCardListComponent&#45;&gt;BoardModule</title>
<path fill="none" stroke="#000000" d="M1948,-198.1985C1948,-222.3563 1948,-262 1948,-262 1948,-262 2287.8999,-262 2287.8999,-262"/>
<polygon fill="#000000" stroke="#000000" points="2287.8999,-265.5001 2297.8999,-262 2287.8999,-258.5001 2287.8999,-265.5001"/>
</g>
<!-- TasksComponent -->
<g id="node16" class="node">
<title>TasksComponent</title>
<polygon fill="#ffffb3" stroke="#000000" points="2634.9888,-198 2521.0112,-198 2521.0112,-162 2634.9888,-162 2634.9888,-198"/>
<text text-anchor="middle" x="2578" y="-175.8" font-family="Times,serif" font-size="14.00" fill="#000000">TasksComponent</text>
</g>
<!-- TasksComponent&#45;&gt;BoardModule -->
<g id="edge14" class="edge">
<title>TasksComponent&#45;&gt;BoardModule</title>
<path fill="none" stroke="#000000" d="M2578,-198.308C2578,-218.1455 2578,-247 2578,-247 2578,-247 2401.8707,-247 2401.8707,-247"/>
<polygon fill="#000000" stroke="#000000" points="2401.8708,-243.5001 2391.8707,-247 2401.8707,-250.5001 2401.8708,-243.5001"/>
</g>
<!-- UppercaseFirstLetterPipe -->
<g id="node17" class="node">
<title>UppercaseFirstLetterPipe</title>
<polygon fill="#ffffb3" stroke="#000000" points="2502.5506,-198 2343.4494,-198 2343.4494,-162 2502.5506,-162 2502.5506,-198"/>
<text text-anchor="middle" x="2423" y="-175.8" font-family="Times,serif" font-size="14.00" fill="#000000">UppercaseFirstLetterPipe</text>
</g>
<!-- UppercaseFirstLetterPipe&#45;&gt;BoardModule -->
<g id="edge15" class="edge">
<title>UppercaseFirstLetterPipe&#45;&gt;BoardModule</title>
<path fill="none" stroke="#000000" d="M2367.6778,-198.0109C2367.6778,-198.0109 2367.6778,-227.855 2367.6778,-227.855"/>
<polygon fill="#000000" stroke="#000000" points="2364.1778,-227.8549 2367.6778,-237.855 2371.1778,-227.855 2364.1778,-227.8549"/>
</g>
<!-- BoardRoutingModule -->
<g id="node19" class="node">
<title>BoardRoutingModule</title>
<polygon fill="#8dd3c7" stroke="#000000" points="2797.3795,-198 2794.3795,-202 2773.3795,-202 2770.3795,-198 2658.6205,-198 2658.6205,-162 2797.3795,-162 2797.3795,-198"/>
<text text-anchor="middle" x="2728" y="-175.8" font-family="Times,serif" font-size="14.00" fill="#000000">BoardRoutingModule</text>
</g>
<!-- BoardRoutingModule&#45;&gt;BoardModule -->
<g id="edge16" class="edge">
<title>BoardRoutingModule&#45;&gt;BoardModule</title>
<path fill="none" stroke="#000000" d="M2728,-198.0109C2728,-220.4852 2728,-256 2728,-256 2728,-256 2401.9633,-256 2401.9633,-256"/>
<polygon fill="#000000" stroke="#000000" points="2401.9634,-252.5001 2391.9633,-256 2401.9633,-259.5001 2401.9634,-252.5001"/>
</g>
<!-- DialogModule&#45;&gt;BoardModule -->
<g id="edge17" class="edge">
<title>DialogModule&#45;&gt;BoardModule</title>
<path fill="none" stroke="#000000" d="M2847.7246,-198.0263C2847.7246,-222.9773 2847.7246,-265 2847.7246,-265 2847.7246,-265 2401.8437,-265 2401.8437,-265"/>
<polygon fill="#000000" stroke="#000000" points="2401.8437,-261.5001 2391.8437,-265 2401.8436,-268.5001 2401.8437,-261.5001"/>
</g>
<!-- DialogComponent  -->
<g id="node26" class="node">
<title>DialogComponent </title>
<polygon fill="#fb8072" stroke="#000000" points="3075.4348,-274 2952.5652,-274 2952.5652,-238 3075.4348,-238 3075.4348,-274"/>
<text text-anchor="middle" x="3014" y="-251.8" font-family="Times,serif" font-size="14.00" fill="#000000">DialogComponent </text>
</g>
<!-- DialogModule&#45;&gt;DialogComponent  -->
<g id="edge27" class="edge">
<title>DialogModule&#45;&gt;DialogComponent </title>
<path fill="none" stroke="#000000" stroke-dasharray="5,2" d="M2912.9386,-186C2938.3805,-186 2964.2262,-186 2964.2262,-186 2964.2262,-186 2964.2262,-227.9733 2964.2262,-227.9733"/>
<polygon fill="#000000" stroke="#000000" points="2960.7262,-227.9732 2964.2262,-237.9733 2967.7262,-227.9733 2960.7262,-227.9732"/>
</g>
<!-- HomeComponent -->
<g id="node21" class="node">
<title>HomeComponent</title>
<polygon fill="#ffffb3" stroke="#000000" points="1251.5451,-198 1136.4549,-198 1136.4549,-162 1251.5451,-162 1251.5451,-198"/>
<text text-anchor="middle" x="1194" y="-175.8" font-family="Times,serif" font-size="14.00" fill="#000000">HomeComponent</text>
</g>
<!-- HomeComponent&#45;&gt;CoreModule -->
<g id="edge19" class="edge">
<title>HomeComponent&#45;&gt;CoreModule</title>
<path fill="none" stroke="#000000" d="M1194,-198.1025C1194,-209.0859 1194,-221 1194,-221 1194,-221 462.5918,-221 462.5918,-221 462.5918,-221 462.5918,-227.68 462.5918,-227.68"/>
<polygon fill="#000000" stroke="#000000" points="459.0919,-227.6799 462.5918,-237.68 466.0919,-227.68 459.0919,-227.6799"/>
</g>
<!-- PageNotFoundComponent -->
<g id="node22" class="node">
<title>PageNotFoundComponent</title>
<polygon fill="#ffffb3" stroke="#000000" points="1118.8243,-198 953.1757,-198 953.1757,-162 1118.8243,-162 1118.8243,-198"/>
<text text-anchor="middle" x="1036" y="-175.8" font-family="Times,serif" font-size="14.00" fill="#000000">PageNotFoundComponent</text>
</g>
<!-- PageNotFoundComponent&#45;&gt;CoreModule -->
<g id="edge20" class="edge">
<title>PageNotFoundComponent&#45;&gt;CoreModule</title>
<path fill="none" stroke="#000000" d="M1036,-198.4218C1036,-207.2791 1036,-216 1036,-216 1036,-216 450.1973,-216 450.1973,-216 450.1973,-216 450.1973,-227.8726 450.1973,-227.8726"/>
<polygon fill="#000000" stroke="#000000" points="446.6974,-227.8725 450.1973,-237.8726 453.6974,-227.8726 446.6974,-227.8725"/>
</g>
<!-- NavigationModule&#45;&gt;CoreModule -->
<g id="edge23" class="edge">
<title>NavigationModule&#45;&gt;CoreModule</title>
<path fill="none" stroke="#000000" d="M888.2929,-198.1432C888.2929,-204.4611 888.2929,-210 888.2929,-210 888.2929,-210 437.8027,-210 437.8027,-210 437.8027,-210 437.8027,-227.8196 437.8027,-227.8196"/>
<polygon fill="#000000" stroke="#000000" points="434.3028,-227.8195 437.8027,-237.8196 441.3028,-227.8196 434.3028,-227.8195"/>
</g>
<!-- SidenavComponent  -->
<g id="node32" class="node">
<title>SidenavComponent </title>
<polygon fill="#fb8072" stroke="#000000" points="781.9348,-122 652.0652,-122 652.0652,-86 781.9348,-86 781.9348,-122"/>
<text text-anchor="middle" x="717" y="-99.8" font-family="Times,serif" font-size="14.00" fill="#000000">SidenavComponent </text>
</g>
<!-- NavigationModule&#45;&gt;SidenavComponent  -->
<g id="edge35" class="edge">
<title>NavigationModule&#45;&gt;SidenavComponent </title>
<path fill="none" stroke="#000000" stroke-dasharray="5,2" d="M807.1288,-180C799.4902,-180 794.2895,-180 794.2895,-180 794.2895,-180 794.2895,-104 794.2895,-104 794.2895,-104 792.213,-104 792.213,-104"/>
<polygon fill="#000000" stroke="#000000" points="792.213,-100.5001 782.213,-104 792.2129,-107.5001 792.213,-100.5001"/>
</g>
<!-- DialogComponent -->
<g id="node25" class="node">
<title>DialogComponent</title>
<polygon fill="#ffffb3" stroke="#000000" points="3218.9356,-274 3099.0644,-274 3099.0644,-238 3218.9356,-238 3218.9356,-274"/>
<text text-anchor="middle" x="3159" y="-251.8" font-family="Times,serif" font-size="14.00" fill="#000000">DialogComponent</text>
</g>
<!-- DialogComponent&#45;&gt;DialogModule -->
<g id="edge25" class="edge">
<title>DialogComponent&#45;&gt;DialogModule</title>
<path fill="none" stroke="#000000" d="M3107.3152,-237.8777C3107.3152,-235.0271 3107.3152,-233 3107.3152,-233 3107.3152,-233 2880.2754,-233 2880.2754,-233 2880.2754,-233 2880.2754,-208.2396 2880.2754,-208.2396"/>
<polygon fill="#000000" stroke="#000000" points="2883.7755,-208.2396 2880.2754,-198.2396 2876.7755,-208.2396 2883.7755,-208.2396"/>
</g>
<!-- VerifyEmailComponent -->
<g id="node27" class="node">
<title>VerifyEmailComponent</title>
<polygon fill="#ffffb3" stroke="#000000" points="3266.8047,-122 3115.1953,-122 3115.1953,-86 3266.8047,-86 3266.8047,-122"/>
<text text-anchor="middle" x="3191" y="-99.8" font-family="Times,serif" font-size="14.00" fill="#000000">VerifyEmailComponent</text>
</g>
<!-- VerifyEmailComponent&#45;&gt;EmailModule -->
<g id="edge28" class="edge">
<title>VerifyEmailComponent&#45;&gt;EmailModule</title>
<path fill="none" stroke="#000000" d="M3167.0326,-122.0109C3167.0326,-144.4852 3167.0326,-180 3167.0326,-180 3167.0326,-180 3078.6876,-180 3078.6876,-180"/>
<polygon fill="#000000" stroke="#000000" points="3078.6876,-176.5001 3068.6876,-180 3078.6875,-183.5001 3078.6876,-176.5001"/>
</g>
<!-- EmailRoutingModule -->
<g id="node29" class="node">
<title>EmailRoutingModule</title>
<polygon fill="#8dd3c7" stroke="#000000" points="3091.1066,-122 3088.1066,-126 3067.1066,-126 3064.1066,-122 2952.8934,-122 2952.8934,-86 3091.1066,-86 3091.1066,-122"/>
<text text-anchor="middle" x="3022" y="-99.8" font-family="Times,serif" font-size="14.00" fill="#000000">EmailRoutingModule</text>
</g>
<!-- EmailRoutingModule&#45;&gt;EmailModule -->
<g id="edge29" class="edge">
<title>EmailRoutingModule&#45;&gt;EmailModule</title>
<path fill="none" stroke="#000000" d="M3022,-122.0109C3022,-122.0109 3022,-151.855 3022,-151.855"/>
<polygon fill="#000000" stroke="#000000" points="3018.5001,-151.8549 3022,-161.855 3025.5001,-151.855 3018.5001,-151.8549"/>
</g>
<!-- SidenavComponent -->
<g id="node30" class="node">
<title>SidenavComponent</title>
<polygon fill="#ffffb3" stroke="#000000" points="1074.4356,-122 947.5644,-122 947.5644,-86 1074.4356,-86 1074.4356,-122"/>
<text text-anchor="middle" x="1011" y="-99.8" font-family="Times,serif" font-size="14.00" fill="#000000">SidenavComponent</text>
</g>
<!-- SidenavComponent&#45;&gt;NavigationModule -->
<g id="edge31" class="edge">
<title>SidenavComponent&#45;&gt;NavigationModule</title>
<path fill="none" stroke="#000000" d="M947.7551,-104C942.3655,-104 938.9162,-104 938.9162,-104 938.9162,-104 938.9162,-180 938.9162,-180 938.9162,-180 937.9301,-180 937.9301,-180"/>
<polygon fill="#000000" stroke="#000000" points="939.0556,-176.5001 929.0556,-180 939.0556,-183.5001 939.0556,-176.5001"/>
</g>
<!-- TopnavComponent -->
<g id="node31" class="node">
<title>TopnavComponent</title>
<polygon fill="#ffffb3" stroke="#000000" points="930.0996,-122 805.9004,-122 805.9004,-86 930.0996,-86 930.0996,-122"/>
<text text-anchor="middle" x="868" y="-99.8" font-family="Times,serif" font-size="14.00" fill="#000000">TopnavComponent</text>
</g>
<!-- TopnavComponent&#45;&gt;NavigationModule -->
<g id="edge32" class="edge">
<title>TopnavComponent&#45;&gt;NavigationModule</title>
<path fill="none" stroke="#000000" d="M847.7071,-122.0109C847.7071,-122.0109 847.7071,-151.855 847.7071,-151.855"/>
<polygon fill="#000000" stroke="#000000" points="844.2072,-151.8549 847.7071,-161.855 851.2072,-151.855 844.2072,-151.8549"/>
</g>
</g>
</svg>
