<?xml version="1.0" encoding="UTF-8" standalone="no"?>
<!DOCTYPE svg PUBLIC "-//W3C//DTD SVG 1.1//EN"
 "http://www.w3.org/Graphics/SVG/1.1/DTD/svg11.dtd">
<!-- Generated by graphviz version 2.40.1 (20161225.0304)
 -->
<!-- Title: dependencies Pages: 1 -->
<svg width="1031pt" height="211pt"
 viewBox="0.00 0.00 1031.00 211.00" xmlns="http://www.w3.org/2000/svg" xmlns:xlink="http://www.w3.org/1999/xlink">
<g id="graph0" class="graph" transform="scale(1 1) rotate(0) translate(4 207)">
<title>dependencies</title>
<polygon fill="#ffffff" stroke="transparent" points="-4,4 -4,-207 1027,-207 1027,4 -4,4"/>
<text text-anchor="start" x="490.5091" y="-42.4" font-family="sans-serif" font-weight="bold" font-size="14.00" fill="#000000">Legend</text>
<polygon fill="#ffffb3" stroke="transparent" points="277.5,-10 277.5,-30 297.5,-30 297.5,-10 277.5,-10"/>
<text text-anchor="start" x="301.129" y="-15.4" font-family="sans-serif" font-size="14.00" fill="#000000"> &#160;Declarations</text>
<polygon fill="#8dd3c7" stroke="transparent" points="390.5,-10 390.5,-30 410.5,-30 410.5,-10 390.5,-10"/>
<text text-anchor="start" x="414.2251" y="-15.4" font-family="sans-serif" font-size="14.00" fill="#000000"> &#160;Module</text>
<polygon fill="#80b1d3" stroke="transparent" points="476.5,-10 476.5,-30 496.5,-30 496.5,-10 476.5,-10"/>
<text text-anchor="start" x="500.2812" y="-15.4" font-family="sans-serif" font-size="14.00" fill="#000000"> &#160;Bootstrap</text>
<polygon fill="#fdb462" stroke="transparent" points="573.5,-10 573.5,-30 593.5,-30 593.5,-10 573.5,-10"/>
<text text-anchor="start" x="597.1732" y="-15.4" font-family="sans-serif" font-size="14.00" fill="#000000"> &#160;Providers</text>
<polygon fill="#fb8072" stroke="transparent" points="669.5,-10 669.5,-30 689.5,-30 689.5,-10 669.5,-10"/>
<text text-anchor="start" x="693.2258" y="-15.4" font-family="sans-serif" font-size="14.00" fill="#000000"> &#160;Exports</text>
<g id="clust1" class="cluster">
<title>cluster_TasksModule</title>
<polygon fill="none" stroke="#000000" stroke-dasharray="1,5" points="8,-70 8,-195 1015,-195 1015,-70 8,-70"/>
</g>
<g id="clust2" class="cluster">
<title>cluster_TasksModule_declarations</title>
<polygon fill="none" stroke="#000000" points="533,-78 533,-130 1007,-130 1007,-78 533,-78"/>
</g>
<g id="clust6" class="cluster">
<title>cluster_TasksModule_imports</title>
<polygon fill="none" stroke="#000000" points="16,-78 16,-130 525,-130 525,-78 16,-78"/>
</g>
<!-- CreateTaskComponent -->
<g id="node1" class="node">
<title>CreateTaskComponent</title>
<polygon fill="#ffffb3" stroke="#000000" points="998.5758,-122 853.4242,-122 853.4242,-86 998.5758,-86 998.5758,-122"/>
<text text-anchor="middle" x="926" y="-99.8" font-family="Times,serif" font-size="14.00" fill="#000000">CreateTaskComponent</text>
</g>
<!-- TasksModule -->
<g id="node4" class="node">
<title>TasksModule</title>
<polygon fill="#8dd3c7" stroke="#000000" points="514.2064,-187 511.2064,-191 490.2064,-191 487.2064,-187 421.7936,-187 421.7936,-151 514.2064,-151 514.2064,-187"/>
<text text-anchor="middle" x="468" y="-164.8" font-family="Times,serif" font-size="14.00" fill="#000000">TasksModule</text>
</g>
<!-- CreateTaskComponent&#45;&gt;TasksModule -->
<g id="edge1" class="edge">
<title>CreateTaskComponent&#45;&gt;TasksModule</title>
<path fill="none" stroke="#000000" d="M926,-122.2921C926,-144.2057 926,-178 926,-178 926,-178 524.4359,-178 524.4359,-178"/>
<polygon fill="#000000" stroke="#000000" points="524.436,-174.5001 514.4359,-178 524.4359,-181.5001 524.436,-174.5001"/>
</g>
<!-- TasksCardListComponent -->
<g id="node2" class="node">
<title>TasksCardListComponent</title>
<polygon fill="#ffffb3" stroke="#000000" points="835.479,-122 672.521,-122 672.521,-86 835.479,-86 835.479,-122"/>
<text text-anchor="middle" x="754" y="-99.8" font-family="Times,serif" font-size="14.00" fill="#000000">TasksCardListComponent</text>
</g>
<!-- TasksCardListComponent&#45;&gt;TasksModule -->
<g id="edge2" class="edge">
<title>TasksCardListComponent&#45;&gt;TasksModule</title>
<path fill="none" stroke="#000000" d="M754,-122.1061C754,-141.3391 754,-169 754,-169 754,-169 524.2687,-169 524.2687,-169"/>
<polygon fill="#000000" stroke="#000000" points="524.2687,-165.5001 514.2687,-169 524.2687,-172.5001 524.2687,-165.5001"/>
</g>
<!-- TasksComponent -->
<g id="node3" class="node">
<title>TasksComponent</title>
<polygon fill="#ffffb3" stroke="#000000" points="654.9888,-122 541.0112,-122 541.0112,-86 654.9888,-86 654.9888,-122"/>
<text text-anchor="middle" x="598" y="-99.8" font-family="Times,serif" font-size="14.00" fill="#000000">TasksComponent</text>
</g>
<!-- TasksComponent&#45;&gt;TasksModule -->
<g id="edge3" class="edge">
<title>TasksComponent&#45;&gt;TasksModule</title>
<path fill="none" stroke="#000000" d="M598,-122.027C598,-138.3976 598,-160 598,-160 598,-160 524.1992,-160 524.1992,-160"/>
<polygon fill="#000000" stroke="#000000" points="524.1992,-156.5001 514.1992,-160 524.1991,-163.5001 524.1992,-156.5001"/>
</g>
<!-- DialogModule -->
<g id="node5" class="node">
<title>DialogModule</title>
<polygon fill="#8dd3c7" stroke="#000000" points="516.6528,-122 513.6528,-126 492.6528,-126 489.6528,-122 419.3472,-122 419.3472,-86 516.6528,-86 516.6528,-122"/>
<text text-anchor="middle" x="468" y="-99.8" font-family="Times,serif" font-size="14.00" fill="#000000">DialogModule</text>
</g>
<!-- DialogModule&#45;&gt;TasksModule -->
<g id="edge4" class="edge">
<title>DialogModule&#45;&gt;TasksModule</title>
<path fill="none" stroke="#000000" d="M468,-122.1061C468,-122.1061 468,-140.991 468,-140.991"/>
<polygon fill="#000000" stroke="#000000" points="464.5001,-140.9909 468,-150.991 471.5001,-140.991 464.5001,-140.9909"/>
</g>
<!-- MaterialModule -->
<g id="node6" class="node">
<title>MaterialModule</title>
<polygon fill="#8dd3c7" stroke="#000000" points="401.4706,-122 398.4706,-126 377.4706,-126 374.4706,-122 294.5294,-122 294.5294,-86 401.4706,-86 401.4706,-122"/>
<text text-anchor="middle" x="348" y="-99.8" font-family="Times,serif" font-size="14.00" fill="#000000">MaterialModule</text>
</g>
<!-- MaterialModule&#45;&gt;TasksModule -->
<g id="edge5" class="edge">
<title>MaterialModule&#45;&gt;TasksModule</title>
<path fill="none" stroke="#000000" d="M348,-122.027C348,-138.3976 348,-160 348,-160 348,-160 411.6049,-160 411.6049,-160"/>
<polygon fill="#000000" stroke="#000000" points="411.6049,-163.5001 421.6049,-160 411.6048,-156.5001 411.6049,-163.5001"/>
</g>
<!-- ModalModule -->
<g id="node7" class="node">
<title>ModalModule</title>
<polygon fill="#8dd3c7" stroke="#000000" points="276.0997,-122 273.0997,-126 252.0997,-126 249.0997,-122 179.9003,-122 179.9003,-86 276.0997,-86 276.0997,-122"/>
<text text-anchor="middle" x="228" y="-99.8" font-family="Times,serif" font-size="14.00" fill="#000000">ModalModule</text>
</g>
<!-- ModalModule&#45;&gt;TasksModule -->
<g id="edge6" class="edge">
<title>ModalModule&#45;&gt;TasksModule</title>
<path fill="none" stroke="#000000" d="M228,-122.1061C228,-141.3391 228,-169 228,-169 228,-169 411.7256,-169 411.7256,-169"/>
<polygon fill="#000000" stroke="#000000" points="411.7256,-172.5001 421.7256,-169 411.7256,-165.5001 411.7256,-172.5001"/>
</g>
<!-- TasksRoutingModule -->
<g id="node8" class="node">
<title>TasksRoutingModule</title>
<polygon fill="#8dd3c7" stroke="#000000" points="161.8244,-122 158.8244,-126 137.8244,-126 134.8244,-122 24.1756,-122 24.1756,-86 161.8244,-86 161.8244,-122"/>
<text text-anchor="middle" x="93" y="-99.8" font-family="Times,serif" font-size="14.00" fill="#000000">TasksRoutingModule</text>
</g>
<!-- TasksRoutingModule&#45;&gt;TasksModule -->
<g id="edge7" class="edge">
<title>TasksRoutingModule&#45;&gt;TasksModule</title>
<path fill="none" stroke="#000000" d="M93,-122.2921C93,-144.2057 93,-178 93,-178 93,-178 411.6415,-178 411.6415,-178"/>
<polygon fill="#000000" stroke="#000000" points="411.6416,-181.5001 421.6415,-178 411.6415,-174.5001 411.6416,-181.5001"/>
</g>
</g>
</svg>
