<?xml version="1.0" encoding="UTF-8" standalone="no"?>
<!DOCTYPE svg PUBLIC "-//W3C//DTD SVG 1.1//EN"
 "http://www.w3.org/Graphics/SVG/1.1/DTD/svg11.dtd">
<!-- Generated by graphviz version 2.40.1 (20161225.0304)
 -->
<!-- Title: dependencies Pages: 1 -->
<svg width="715pt" height="284pt"
 viewBox="0.00 0.00 715.00 284.00" xmlns="http://www.w3.org/2000/svg" xmlns:xlink="http://www.w3.org/1999/xlink">
<g id="graph0" class="graph" transform="scale(1 1) rotate(0) translate(4 280)">
<title>dependencies</title>
<polygon fill="#ffffff" stroke="transparent" points="-4,4 -4,-280 711,-280 711,4 -4,4"/>
<text text-anchor="start" x="332.5091" y="-42.4" font-family="sans-serif" font-weight="bold" font-size="14.00" fill="#000000">Legend</text>
<polygon fill="#ffffb3" stroke="transparent" points="119.5,-10 119.5,-30 139.5,-30 139.5,-10 119.5,-10"/>
<text text-anchor="start" x="143.129" y="-15.4" font-family="sans-serif" font-size="14.00" fill="#000000"> &#160;Declarations</text>
<polygon fill="#8dd3c7" stroke="transparent" points="232.5,-10 232.5,-30 252.5,-30 252.5,-10 232.5,-10"/>
<text text-anchor="start" x="256.2251" y="-15.4" font-family="sans-serif" font-size="14.00" fill="#000000"> &#160;Module</text>
<polygon fill="#80b1d3" stroke="transparent" points="318.5,-10 318.5,-30 338.5,-30 338.5,-10 318.5,-10"/>
<text text-anchor="start" x="342.2812" y="-15.4" font-family="sans-serif" font-size="14.00" fill="#000000"> &#160;Bootstrap</text>
<polygon fill="#fdb462" stroke="transparent" points="415.5,-10 415.5,-30 435.5,-30 435.5,-10 415.5,-10"/>
<text text-anchor="start" x="439.1732" y="-15.4" font-family="sans-serif" font-size="14.00" fill="#000000"> &#160;Providers</text>
<polygon fill="#fb8072" stroke="transparent" points="511.5,-10 511.5,-30 531.5,-30 531.5,-10 511.5,-10"/>
<text text-anchor="start" x="535.2258" y="-15.4" font-family="sans-serif" font-size="14.00" fill="#000000"> &#160;Exports</text>
<g id="clust1" class="cluster">
<title>cluster_NavigationModule</title>
<polygon fill="none" stroke="#000000" stroke-dasharray="1,5" points="8,-70 8,-268 699,-268 699,-70 8,-70"/>
</g>
<g id="clust2" class="cluster">
<title>cluster_NavigationModule_declarations</title>
<polygon fill="none" stroke="#000000" points="407,-78 407,-130 691,-130 691,-78 407,-78"/>
</g>
<g id="clust5" class="cluster">
<title>cluster_NavigationModule_imports</title>
<polygon fill="none" stroke="#000000" points="16,-78 16,-130 399,-130 399,-78 16,-78"/>
</g>
<g id="clust6" class="cluster">
<title>cluster_NavigationModule_exports</title>
<polygon fill="none" stroke="#000000" points="254,-208 254,-260 400,-260 400,-208 254,-208"/>
</g>
<!-- SidenavComponent -->
<g id="node1" class="node">
<title>SidenavComponent</title>
<polygon fill="#ffffb3" stroke="#000000" points="683.4356,-122 556.5644,-122 556.5644,-86 683.4356,-86 683.4356,-122"/>
<text text-anchor="middle" x="620" y="-99.8" font-family="Times,serif" font-size="14.00" fill="#000000">SidenavComponent</text>
</g>
<!-- NavigationModule -->
<g id="node3" class="node">
<title>NavigationModule</title>
<polygon fill="#8dd3c7" stroke="#000000" points="387.7576,-187 384.7576,-191 363.7576,-191 360.7576,-187 266.2424,-187 266.2424,-151 387.7576,-151 387.7576,-187"/>
<text text-anchor="middle" x="327" y="-164.8" font-family="Times,serif" font-size="14.00" fill="#000000">NavigationModule</text>
</g>
<!-- SidenavComponent&#45;&gt;NavigationModule -->
<g id="edge1" class="edge">
<title>SidenavComponent&#45;&gt;NavigationModule</title>
<path fill="none" stroke="#000000" d="M620,-122.2843C620,-143.3211 620,-175 620,-175 620,-175 398.0657,-175 398.0657,-175"/>
<polygon fill="#000000" stroke="#000000" points="398.0658,-171.5001 388.0657,-175 398.0657,-178.5001 398.0658,-171.5001"/>
</g>
<!-- TopnavComponent -->
<g id="node2" class="node">
<title>TopnavComponent</title>
<polygon fill="#ffffb3" stroke="#000000" points="539.0996,-122 414.9004,-122 414.9004,-86 539.0996,-86 539.0996,-122"/>
<text text-anchor="middle" x="477" y="-99.8" font-family="Times,serif" font-size="14.00" fill="#000000">TopnavComponent</text>
</g>
<!-- TopnavComponent&#45;&gt;NavigationModule -->
<g id="edge2" class="edge">
<title>TopnavComponent&#45;&gt;NavigationModule</title>
<path fill="none" stroke="#000000" d="M477,-122.0225C477,-139.3734 477,-163 477,-163 477,-163 398.0107,-163 398.0107,-163"/>
<polygon fill="#000000" stroke="#000000" points="398.0108,-159.5001 388.0107,-163 398.0107,-166.5001 398.0108,-159.5001"/>
</g>
<!-- SidenavComponent  -->
<g id="node7" class="node">
<title>SidenavComponent </title>
<polygon fill="#fb8072" stroke="#000000" points="391.9348,-252 262.0652,-252 262.0652,-216 391.9348,-216 391.9348,-252"/>
<text text-anchor="middle" x="327" y="-229.8" font-family="Times,serif" font-size="14.00" fill="#000000">SidenavComponent </text>
</g>
<!-- NavigationModule&#45;&gt;SidenavComponent  -->
<g id="edge6" class="edge">
<title>NavigationModule&#45;&gt;SidenavComponent </title>
<path fill="none" stroke="#000000" stroke-dasharray="5,2" d="M327,-187.1061C327,-187.1061 327,-205.991 327,-205.991"/>
<polygon fill="#000000" stroke="#000000" points="323.5001,-205.9909 327,-215.991 330.5001,-205.991 323.5001,-205.9909"/>
</g>
<!-- AppRoutingModule -->
<g id="node4" class="node">
<title>AppRoutingModule</title>
<polygon fill="#8dd3c7" stroke="#000000" points="391.2744,-122 388.2744,-126 367.2744,-126 364.2744,-122 262.7256,-122 262.7256,-86 391.2744,-86 391.2744,-122"/>
<text text-anchor="middle" x="327" y="-99.8" font-family="Times,serif" font-size="14.00" fill="#000000">AppRoutingModule</text>
</g>
<!-- AppRoutingModule&#45;&gt;NavigationModule -->
<g id="edge3" class="edge">
<title>AppRoutingModule&#45;&gt;NavigationModule</title>
<path fill="none" stroke="#000000" d="M327,-122.1061C327,-122.1061 327,-140.991 327,-140.991"/>
<polygon fill="#000000" stroke="#000000" points="323.5001,-140.9909 327,-150.991 330.5001,-140.991 323.5001,-140.9909"/>
</g>
<!-- FooterModule -->
<g id="node5" class="node">
<title>FooterModule</title>
<polygon fill="#8dd3c7" stroke="#000000" points="245.0983,-122 242.0983,-126 221.0983,-126 218.0983,-122 148.9017,-122 148.9017,-86 245.0983,-86 245.0983,-122"/>
<text text-anchor="middle" x="197" y="-99.8" font-family="Times,serif" font-size="14.00" fill="#000000">FooterModule</text>
</g>
<!-- FooterModule&#45;&gt;NavigationModule -->
<g id="edge4" class="edge">
<title>FooterModule&#45;&gt;NavigationModule</title>
<path fill="none" stroke="#000000" d="M197,-122.0225C197,-139.3734 197,-163 197,-163 197,-163 256.1869,-163 256.1869,-163"/>
<polygon fill="#000000" stroke="#000000" points="256.1869,-166.5001 266.1869,-163 256.1868,-159.5001 256.1869,-166.5001"/>
</g>
<!-- MaterialModule -->
<g id="node6" class="node">
<title>MaterialModule</title>
<polygon fill="#8dd3c7" stroke="#000000" points="130.4706,-122 127.4706,-126 106.4706,-126 103.4706,-122 23.5294,-122 23.5294,-86 130.4706,-86 130.4706,-122"/>
<text text-anchor="middle" x="77" y="-99.8" font-family="Times,serif" font-size="14.00" fill="#000000">MaterialModule</text>
</g>
<!-- MaterialModule&#45;&gt;NavigationModule -->
<g id="edge5" class="edge">
<title>MaterialModule&#45;&gt;NavigationModule</title>
<path fill="none" stroke="#000000" d="M77,-122.2843C77,-143.3211 77,-175 77,-175 77,-175 256.1628,-175 256.1628,-175"/>
<polygon fill="#000000" stroke="#000000" points="256.1628,-178.5001 266.1628,-175 256.1628,-171.5001 256.1628,-178.5001"/>
</g>
</g>
</svg>
