<?xml version="1.0" encoding="UTF-8" standalone="no"?>
<!DOCTYPE svg PUBLIC "-//W3C//DTD SVG 1.1//EN"
 "http://www.w3.org/Graphics/SVG/1.1/DTD/svg11.dtd">
<!-- Generated by graphviz version 2.40.1 (20161225.0304)
 -->
<!-- Title: dependencies Pages: 1 -->
<svg width="897pt" height="211pt"
 viewBox="0.00 0.00 897.00 211.00" xmlns="http://www.w3.org/2000/svg" xmlns:xlink="http://www.w3.org/1999/xlink">
<g id="graph0" class="graph" transform="scale(1 1) rotate(0) translate(4 207)">
<title>dependencies</title>
<polygon fill="#ffffff" stroke="transparent" points="-4,4 -4,-207 893,-207 893,4 -4,4"/>
<text text-anchor="start" x="423.5091" y="-42.4" font-family="sans-serif" font-weight="bold" font-size="14.00" fill="#000000">Legend</text>
<polygon fill="#ffffb3" stroke="transparent" points="210.5,-10 210.5,-30 230.5,-30 230.5,-10 210.5,-10"/>
<text text-anchor="start" x="234.129" y="-15.4" font-family="sans-serif" font-size="14.00" fill="#000000"> &#160;Declarations</text>
<polygon fill="#8dd3c7" stroke="transparent" points="323.5,-10 323.5,-30 343.5,-30 343.5,-10 323.5,-10"/>
<text text-anchor="start" x="347.2251" y="-15.4" font-family="sans-serif" font-size="14.00" fill="#000000"> &#160;Module</text>
<polygon fill="#80b1d3" stroke="transparent" points="409.5,-10 409.5,-30 429.5,-30 429.5,-10 409.5,-10"/>
<text text-anchor="start" x="433.2812" y="-15.4" font-family="sans-serif" font-size="14.00" fill="#000000"> &#160;Bootstrap</text>
<polygon fill="#fdb462" stroke="transparent" points="506.5,-10 506.5,-30 526.5,-30 526.5,-10 506.5,-10"/>
<text text-anchor="start" x="530.1732" y="-15.4" font-family="sans-serif" font-size="14.00" fill="#000000"> &#160;Providers</text>
<polygon fill="#fb8072" stroke="transparent" points="602.5,-10 602.5,-30 622.5,-30 622.5,-10 602.5,-10"/>
<text text-anchor="start" x="626.2258" y="-15.4" font-family="sans-serif" font-size="14.00" fill="#000000"> &#160;Exports</text>
<g id="clust1" class="cluster">
<title>cluster_AuthModule</title>
<polygon fill="none" stroke="#000000" stroke-dasharray="1,5" points="8,-70 8,-195 881,-195 881,-70 8,-70"/>
</g>
<g id="clust2" class="cluster">
<title>cluster_AuthModule_declarations</title>
<polygon fill="none" stroke="#000000" points="412,-78 412,-130 873,-130 873,-78 412,-78"/>
</g>
<g id="clust6" class="cluster">
<title>cluster_AuthModule_imports</title>
<polygon fill="none" stroke="#000000" points="16,-78 16,-130 404,-130 404,-78 16,-78"/>
</g>
<!-- ForgotPasswordComponent -->
<g id="node1" class="node">
<title>ForgotPasswordComponent</title>
<polygon fill="#ffffb3" stroke="#000000" points="865.3201,-122 692.6799,-122 692.6799,-86 865.3201,-86 865.3201,-122"/>
<text text-anchor="middle" x="779" y="-99.8" font-family="Times,serif" font-size="14.00" fill="#000000">ForgotPasswordComponent</text>
</g>
<!-- AuthModule -->
<g id="node4" class="node">
<title>AuthModule</title>
<polygon fill="#8dd3c7" stroke="#000000" points="448.5482,-187 445.5482,-191 424.5482,-191 421.5482,-187 361.4518,-187 361.4518,-151 448.5482,-151 448.5482,-187"/>
<text text-anchor="middle" x="405" y="-164.8" font-family="Times,serif" font-size="14.00" fill="#000000">AuthModule</text>
</g>
<!-- ForgotPasswordComponent&#45;&gt;AuthModule -->
<g id="edge1" class="edge">
<title>ForgotPasswordComponent&#45;&gt;AuthModule</title>
<path fill="none" stroke="#000000" d="M779,-122.2843C779,-143.3211 779,-175 779,-175 779,-175 458.6345,-175 458.6345,-175"/>
<polygon fill="#000000" stroke="#000000" points="458.6345,-171.5001 448.6345,-175 458.6345,-178.5001 458.6345,-171.5001"/>
</g>
<!-- LoginComponent -->
<g id="node2" class="node">
<title>LoginComponent</title>
<polygon fill="#ffffb3" stroke="#000000" points="674.2758,-122 559.7242,-122 559.7242,-86 674.2758,-86 674.2758,-122"/>
<text text-anchor="middle" x="617" y="-99.8" font-family="Times,serif" font-size="14.00" fill="#000000">LoginComponent</text>
</g>
<!-- LoginComponent&#45;&gt;AuthModule -->
<g id="edge2" class="edge">
<title>LoginComponent&#45;&gt;AuthModule</title>
<path fill="none" stroke="#000000" d="M617,-122.0225C617,-139.3734 617,-163 617,-163 617,-163 458.6695,-163 458.6695,-163"/>
<polygon fill="#000000" stroke="#000000" points="458.6695,-159.5001 448.6695,-163 458.6694,-166.5001 458.6695,-159.5001"/>
</g>
<!-- SignupComponent -->
<g id="node3" class="node">
<title>SignupComponent</title>
<polygon fill="#ffffb3" stroke="#000000" points="541.5056,-122 420.4944,-122 420.4944,-86 541.5056,-86 541.5056,-122"/>
<text text-anchor="middle" x="481" y="-99.8" font-family="Times,serif" font-size="14.00" fill="#000000">SignupComponent</text>
</g>
<!-- SignupComponent&#45;&gt;AuthModule -->
<g id="edge3" class="edge">
<title>SignupComponent&#45;&gt;AuthModule</title>
<path fill="none" stroke="#000000" d="M434.6354,-122.1061C434.6354,-122.1061 434.6354,-140.991 434.6354,-140.991"/>
<polygon fill="#000000" stroke="#000000" points="431.1354,-140.9909 434.6354,-150.991 438.1354,-140.991 431.1354,-140.9909"/>
</g>
<!-- AuthRoutingModule -->
<g id="node5" class="node">
<title>AuthRoutingModule</title>
<polygon fill="#8dd3c7" stroke="#000000" points="396.1652,-122 393.1652,-126 372.1652,-126 369.1652,-122 263.8348,-122 263.8348,-86 396.1652,-86 396.1652,-122"/>
<text text-anchor="middle" x="330" y="-99.8" font-family="Times,serif" font-size="14.00" fill="#000000">AuthRoutingModule</text>
</g>
<!-- AuthRoutingModule&#45;&gt;AuthModule -->
<g id="edge4" class="edge">
<title>AuthRoutingModule&#45;&gt;AuthModule</title>
<path fill="none" stroke="#000000" d="M378.7795,-122.1061C378.7795,-122.1061 378.7795,-140.991 378.7795,-140.991"/>
<polygon fill="#000000" stroke="#000000" points="375.2795,-140.9909 378.7795,-150.991 382.2795,-140.991 375.2795,-140.9909"/>
</g>
<!-- MaterialModule -->
<g id="node6" class="node">
<title>MaterialModule</title>
<polygon fill="#8dd3c7" stroke="#000000" points="245.4706,-122 242.4706,-126 221.4706,-126 218.4706,-122 138.5294,-122 138.5294,-86 245.4706,-86 245.4706,-122"/>
<text text-anchor="middle" x="192" y="-99.8" font-family="Times,serif" font-size="14.00" fill="#000000">MaterialModule</text>
</g>
<!-- MaterialModule&#45;&gt;AuthModule -->
<g id="edge5" class="edge">
<title>MaterialModule&#45;&gt;AuthModule</title>
<path fill="none" stroke="#000000" d="M192,-122.0225C192,-139.3734 192,-163 192,-163 192,-163 351.3823,-163 351.3823,-163"/>
<polygon fill="#000000" stroke="#000000" points="351.3823,-166.5001 361.3823,-163 351.3823,-159.5001 351.3823,-166.5001"/>
</g>
<!-- ModalModule -->
<g id="node7" class="node">
<title>ModalModule</title>
<polygon fill="#8dd3c7" stroke="#000000" points="120.0997,-122 117.0997,-126 96.0997,-126 93.0997,-122 23.9003,-122 23.9003,-86 120.0997,-86 120.0997,-122"/>
<text text-anchor="middle" x="72" y="-99.8" font-family="Times,serif" font-size="14.00" fill="#000000">ModalModule</text>
</g>
<!-- ModalModule&#45;&gt;AuthModule -->
<g id="edge6" class="edge">
<title>ModalModule&#45;&gt;AuthModule</title>
<path fill="none" stroke="#000000" d="M72,-122.2843C72,-143.3211 72,-175 72,-175 72,-175 351.1236,-175 351.1236,-175"/>
<polygon fill="#000000" stroke="#000000" points="351.1237,-178.5001 361.1236,-175 351.1236,-171.5001 351.1237,-178.5001"/>
</g>
</g>
</svg>
