<?xml version="1.0" encoding="UTF-8" standalone="no"?>
<!DOCTYPE svg PUBLIC "-//W3C//DTD SVG 1.1//EN"
 "http://www.w3.org/Graphics/SVG/1.1/DTD/svg11.dtd">
<!-- Generated by graphviz version 2.40.1 (20161225.0304)
 -->
<!-- Title: dependencies Pages: 1 -->
<svg width="504pt" height="211pt"
 viewBox="0.00 0.00 504.00 211.00" xmlns="http://www.w3.org/2000/svg" xmlns:xlink="http://www.w3.org/1999/xlink">
<g id="graph0" class="graph" transform="scale(1 1) rotate(0) translate(4 207)">
<title>dependencies</title>
<polygon fill="#ffffff" stroke="transparent" points="-4,4 -4,-207 500,-207 500,4 -4,4"/>
<text text-anchor="start" x="227.0091" y="-42.4" font-family="sans-serif" font-weight="bold" font-size="14.00" fill="#000000">Legend</text>
<polygon fill="#ffffb3" stroke="transparent" points="14,-10 14,-30 34,-30 34,-10 14,-10"/>
<text text-anchor="start" x="37.629" y="-15.4" font-family="sans-serif" font-size="14.00" fill="#000000"> &#160;Declarations</text>
<polygon fill="#8dd3c7" stroke="transparent" points="127,-10 127,-30 147,-30 147,-10 127,-10"/>
<text text-anchor="start" x="150.7251" y="-15.4" font-family="sans-serif" font-size="14.00" fill="#000000"> &#160;Module</text>
<polygon fill="#80b1d3" stroke="transparent" points="213,-10 213,-30 233,-30 233,-10 213,-10"/>
<text text-anchor="start" x="236.7812" y="-15.4" font-family="sans-serif" font-size="14.00" fill="#000000"> &#160;Bootstrap</text>
<polygon fill="#fdb462" stroke="transparent" points="310,-10 310,-30 330,-30 330,-10 310,-10"/>
<text text-anchor="start" x="333.6732" y="-15.4" font-family="sans-serif" font-size="14.00" fill="#000000"> &#160;Providers</text>
<polygon fill="#fb8072" stroke="transparent" points="406,-10 406,-30 426,-30 426,-10 406,-10"/>
<text text-anchor="start" x="429.7258" y="-15.4" font-family="sans-serif" font-size="14.00" fill="#000000"> &#160;Exports</text>
<g id="clust1" class="cluster">
<title>cluster_EmailModule</title>
<polygon fill="none" stroke="#000000" stroke-dasharray="1,5" points="12.5,-70 12.5,-195 483.5,-195 483.5,-70 12.5,-70"/>
</g>
<g id="clust2" class="cluster">
<title>cluster_EmailModule_declarations</title>
<polygon fill="none" stroke="#000000" points="307.5,-78 307.5,-130 475.5,-130 475.5,-78 307.5,-78"/>
</g>
<g id="clust4" class="cluster">
<title>cluster_EmailModule_imports</title>
<polygon fill="none" stroke="#000000" points="20.5,-78 20.5,-130 299.5,-130 299.5,-78 20.5,-78"/>
</g>
<!-- VerifyEmailComponent -->
<g id="node1" class="node">
<title>VerifyEmailComponent</title>
<polygon fill="#ffffb3" stroke="#000000" points="467.3047,-122 315.6953,-122 315.6953,-86 467.3047,-86 467.3047,-122"/>
<text text-anchor="middle" x="391.5" y="-99.8" font-family="Times,serif" font-size="14.00" fill="#000000">VerifyEmailComponent</text>
</g>
<!-- EmailModule -->
<g id="node2" class="node">
<title>EmailModule</title>
<polygon fill="#8dd3c7" stroke="#000000" points="268.9888,-187 265.9888,-191 244.9888,-191 241.9888,-187 176.0112,-187 176.0112,-151 268.9888,-151 268.9888,-187"/>
<text text-anchor="middle" x="222.5" y="-164.8" font-family="Times,serif" font-size="14.00" fill="#000000">EmailModule</text>
</g>
<!-- VerifyEmailComponent&#45;&gt;EmailModule -->
<g id="edge1" class="edge">
<title>VerifyEmailComponent&#45;&gt;EmailModule</title>
<path fill="none" stroke="#000000" d="M391.5,-122.1061C391.5,-141.3391 391.5,-169 391.5,-169 391.5,-169 279.1274,-169 279.1274,-169"/>
<polygon fill="#000000" stroke="#000000" points="279.1274,-165.5001 269.1274,-169 279.1273,-172.5001 279.1274,-165.5001"/>
</g>
<!-- EmailRoutingModule -->
<g id="node3" class="node">
<title>EmailRoutingModule</title>
<polygon fill="#8dd3c7" stroke="#000000" points="291.6066,-122 288.6066,-126 267.6066,-126 264.6066,-122 153.3934,-122 153.3934,-86 291.6066,-86 291.6066,-122"/>
<text text-anchor="middle" x="222.5" y="-99.8" font-family="Times,serif" font-size="14.00" fill="#000000">EmailRoutingModule</text>
</g>
<!-- EmailRoutingModule&#45;&gt;EmailModule -->
<g id="edge2" class="edge">
<title>EmailRoutingModule&#45;&gt;EmailModule</title>
<path fill="none" stroke="#000000" d="M222.5,-122.1061C222.5,-122.1061 222.5,-140.991 222.5,-140.991"/>
<polygon fill="#000000" stroke="#000000" points="219.0001,-140.9909 222.5,-150.991 226.0001,-140.991 219.0001,-140.9909"/>
</g>
<!-- MaterialModule -->
<g id="node4" class="node">
<title>MaterialModule</title>
<polygon fill="#8dd3c7" stroke="#000000" points="134.9706,-122 131.9706,-126 110.9706,-126 107.9706,-122 28.0294,-122 28.0294,-86 134.9706,-86 134.9706,-122"/>
<text text-anchor="middle" x="81.5" y="-99.8" font-family="Times,serif" font-size="14.00" fill="#000000">MaterialModule</text>
</g>
<!-- MaterialModule&#45;&gt;EmailModule -->
<g id="edge3" class="edge">
<title>MaterialModule&#45;&gt;EmailModule</title>
<path fill="none" stroke="#000000" d="M81.5,-122.1061C81.5,-141.3391 81.5,-169 81.5,-169 81.5,-169 165.9406,-169 165.9406,-169"/>
<polygon fill="#000000" stroke="#000000" points="165.9406,-172.5001 175.9406,-169 165.9405,-165.5001 165.9406,-172.5001"/>
</g>
</g>
</svg>
