<?xml version="1.0" encoding="UTF-8" standalone="no"?>
<!DOCTYPE svg PUBLIC "-//W3C//DTD SVG 1.1//EN"
 "http://www.w3.org/Graphics/SVG/1.1/DTD/svg11.dtd">
<!-- Generated by graphviz version 2.40.1 (20161225.0304)
 -->
<!-- Title: dependencies Pages: 1 -->
<svg width="679pt" height="211pt"
 viewBox="0.00 0.00 679.00 211.00" xmlns="http://www.w3.org/2000/svg" xmlns:xlink="http://www.w3.org/1999/xlink">
<g id="graph0" class="graph" transform="scale(1 1) rotate(0) translate(4 207)">
<title>dependencies</title>
<polygon fill="#ffffff" stroke="transparent" points="-4,4 -4,-207 675,-207 675,4 -4,4"/>
<text text-anchor="start" x="314.5091" y="-42.4" font-family="sans-serif" font-weight="bold" font-size="14.00" fill="#000000">Legend</text>
<polygon fill="#ffffb3" stroke="transparent" points="101.5,-10 101.5,-30 121.5,-30 121.5,-10 101.5,-10"/>
<text text-anchor="start" x="125.129" y="-15.4" font-family="sans-serif" font-size="14.00" fill="#000000"> &#160;Declarations</text>
<polygon fill="#8dd3c7" stroke="transparent" points="214.5,-10 214.5,-30 234.5,-30 234.5,-10 214.5,-10"/>
<text text-anchor="start" x="238.2251" y="-15.4" font-family="sans-serif" font-size="14.00" fill="#000000"> &#160;Module</text>
<polygon fill="#80b1d3" stroke="transparent" points="300.5,-10 300.5,-30 320.5,-30 320.5,-10 300.5,-10"/>
<text text-anchor="start" x="324.2812" y="-15.4" font-family="sans-serif" font-size="14.00" fill="#000000"> &#160;Bootstrap</text>
<polygon fill="#fdb462" stroke="transparent" points="397.5,-10 397.5,-30 417.5,-30 417.5,-10 397.5,-10"/>
<text text-anchor="start" x="421.1732" y="-15.4" font-family="sans-serif" font-size="14.00" fill="#000000"> &#160;Providers</text>
<polygon fill="#fb8072" stroke="transparent" points="493.5,-10 493.5,-30 513.5,-30 513.5,-10 493.5,-10"/>
<text text-anchor="start" x="517.2258" y="-15.4" font-family="sans-serif" font-size="14.00" fill="#000000"> &#160;Exports</text>
<g id="clust1" class="cluster">
<title>cluster_EmailModule</title>
<polygon fill="none" stroke="#000000" stroke-dasharray="1,5" points="8,-70 8,-195 663,-195 663,-70 8,-70"/>
</g>
<g id="clust2" class="cluster">
<title>cluster_EmailModule_declarations</title>
<polygon fill="none" stroke="#000000" points="303,-78 303,-130 655,-130 655,-78 303,-78"/>
</g>
<g id="clust5" class="cluster">
<title>cluster_EmailModule_imports</title>
<polygon fill="none" stroke="#000000" points="16,-78 16,-130 295,-130 295,-78 16,-78"/>
</g>
<!-- ResetPasswordComponent -->
<g id="node1" class="node">
<title>ResetPasswordComponent</title>
<polygon fill="#ffffb3" stroke="#000000" points="647.087,-122 480.913,-122 480.913,-86 647.087,-86 647.087,-122"/>
<text text-anchor="middle" x="564" y="-99.8" font-family="Times,serif" font-size="14.00" fill="#000000">ResetPasswordComponent</text>
</g>
<!-- EmailModule -->
<g id="node3" class="node">
<title>EmailModule</title>
<polygon fill="#8dd3c7" stroke="#000000" points="348.4888,-187 345.4888,-191 324.4888,-191 321.4888,-187 255.5112,-187 255.5112,-151 348.4888,-151 348.4888,-187"/>
<text text-anchor="middle" x="302" y="-164.8" font-family="Times,serif" font-size="14.00" fill="#000000">EmailModule</text>
</g>
<!-- ResetPasswordComponent&#45;&gt;EmailModule -->
<g id="edge1" class="edge">
<title>ResetPasswordComponent&#45;&gt;EmailModule</title>
<path fill="none" stroke="#000000" d="M564,-122.1061C564,-141.3391 564,-169 564,-169 564,-169 358.5384,-169 358.5384,-169"/>
<polygon fill="#000000" stroke="#000000" points="358.5385,-165.5001 348.5384,-169 358.5384,-172.5001 358.5385,-165.5001"/>
</g>
<!-- VerifyEmailComponent -->
<g id="node2" class="node">
<title>VerifyEmailComponent</title>
<polygon fill="#ffffb3" stroke="#000000" points="462.8047,-122 311.1953,-122 311.1953,-86 462.8047,-86 462.8047,-122"/>
<text text-anchor="middle" x="387" y="-99.8" font-family="Times,serif" font-size="14.00" fill="#000000">VerifyEmailComponent</text>
</g>
<!-- VerifyEmailComponent&#45;&gt;EmailModule -->
<g id="edge2" class="edge">
<title>VerifyEmailComponent&#45;&gt;EmailModule</title>
<path fill="none" stroke="#000000" d="M329.9211,-122.1061C329.9211,-122.1061 329.9211,-140.991 329.9211,-140.991"/>
<polygon fill="#000000" stroke="#000000" points="326.4212,-140.9909 329.9211,-150.991 333.4212,-140.991 326.4212,-140.9909"/>
</g>
<!-- EmailRoutingModule -->
<g id="node4" class="node">
<title>EmailRoutingModule</title>
<polygon fill="#8dd3c7" stroke="#000000" points="287.1066,-122 284.1066,-126 263.1066,-126 260.1066,-122 148.8934,-122 148.8934,-86 287.1066,-86 287.1066,-122"/>
<text text-anchor="middle" x="218" y="-99.8" font-family="Times,serif" font-size="14.00" fill="#000000">EmailRoutingModule</text>
</g>
<!-- EmailRoutingModule&#45;&gt;EmailModule -->
<g id="edge3" class="edge">
<title>EmailRoutingModule&#45;&gt;EmailModule</title>
<path fill="none" stroke="#000000" d="M271.2795,-122.1061C271.2795,-122.1061 271.2795,-140.991 271.2795,-140.991"/>
<polygon fill="#000000" stroke="#000000" points="267.7795,-140.9909 271.2795,-150.991 274.7795,-140.991 267.7795,-140.9909"/>
</g>
<!-- MaterialModule -->
<g id="node5" class="node">
<title>MaterialModule</title>
<polygon fill="#8dd3c7" stroke="#000000" points="130.4706,-122 127.4706,-126 106.4706,-126 103.4706,-122 23.5294,-122 23.5294,-86 130.4706,-86 130.4706,-122"/>
<text text-anchor="middle" x="77" y="-99.8" font-family="Times,serif" font-size="14.00" fill="#000000">MaterialModule</text>
</g>
<!-- MaterialModule&#45;&gt;EmailModule -->
<g id="edge4" class="edge">
<title>MaterialModule&#45;&gt;EmailModule</title>
<path fill="none" stroke="#000000" d="M77,-122.1061C77,-141.3391 77,-169 77,-169 77,-169 245.3799,-169 245.3799,-169"/>
<polygon fill="#000000" stroke="#000000" points="245.3799,-172.5001 255.3799,-169 245.3798,-165.5001 245.3799,-172.5001"/>
</g>
</g>
</svg>
