<?xml version="1.0" encoding="UTF-8" standalone="no"?>
<!DOCTYPE svg PUBLIC "-//W3C//DTD SVG 1.1//EN"
 "http://www.w3.org/Graphics/SVG/1.1/DTD/svg11.dtd">
<!-- Generated by graphviz version 2.40.1 (20161225.0304)
 -->
<!-- Title: dependencies Pages: 1 -->
<svg width="772pt" height="284pt"
 viewBox="0.00 0.00 772.00 284.00" xmlns="http://www.w3.org/2000/svg" xmlns:xlink="http://www.w3.org/1999/xlink">
<g id="graph0" class="graph" transform="scale(1 1) rotate(0) translate(4 280)">
<title>dependencies</title>
<polygon fill="#ffffff" stroke="transparent" points="-4,4 -4,-280 768,-280 768,4 -4,4"/>
<text text-anchor="start" x="361.0091" y="-42.4" font-family="sans-serif" font-weight="bold" font-size="14.00" fill="#000000">Legend</text>
<polygon fill="#ffffb3" stroke="transparent" points="148,-10 148,-30 168,-30 168,-10 148,-10"/>
<text text-anchor="start" x="171.629" y="-15.4" font-family="sans-serif" font-size="14.00" fill="#000000"> &#160;Declarations</text>
<polygon fill="#8dd3c7" stroke="transparent" points="261,-10 261,-30 281,-30 281,-10 261,-10"/>
<text text-anchor="start" x="284.7251" y="-15.4" font-family="sans-serif" font-size="14.00" fill="#000000"> &#160;Module</text>
<polygon fill="#80b1d3" stroke="transparent" points="347,-10 347,-30 367,-30 367,-10 347,-10"/>
<text text-anchor="start" x="370.7812" y="-15.4" font-family="sans-serif" font-size="14.00" fill="#000000"> &#160;Bootstrap</text>
<polygon fill="#fdb462" stroke="transparent" points="444,-10 444,-30 464,-30 464,-10 444,-10"/>
<text text-anchor="start" x="467.6732" y="-15.4" font-family="sans-serif" font-size="14.00" fill="#000000"> &#160;Providers</text>
<polygon fill="#fb8072" stroke="transparent" points="540,-10 540,-30 560,-30 560,-10 540,-10"/>
<text text-anchor="start" x="563.7258" y="-15.4" font-family="sans-serif" font-size="14.00" fill="#000000"> &#160;Exports</text>
<g id="clust1" class="cluster">
<title>cluster_CoreModule</title>
<polygon fill="none" stroke="#000000" stroke-dasharray="1,5" points="8,-70 8,-268 756,-268 756,-70 8,-70"/>
</g>
<g id="clust2" class="cluster">
<title>cluster_CoreModule_declarations</title>
<polygon fill="none" stroke="#000000" points="433,-78 433,-130 748,-130 748,-78 433,-78"/>
</g>
<g id="clust5" class="cluster">
<title>cluster_CoreModule_imports</title>
<polygon fill="none" stroke="#000000" points="16,-78 16,-130 425,-130 425,-78 16,-78"/>
</g>
<g id="clust6" class="cluster">
<title>cluster_CoreModule_exports</title>
<polygon fill="none" stroke="#000000" points="282,-208 282,-260 424,-260 424,-208 282,-208"/>
</g>
<!-- HomeComponent -->
<g id="node1" class="node">
<title>HomeComponent</title>
<polygon fill="#ffffb3" stroke="#000000" points="739.5451,-122 624.4549,-122 624.4549,-86 739.5451,-86 739.5451,-122"/>
<text text-anchor="middle" x="682" y="-99.8" font-family="Times,serif" font-size="14.00" fill="#000000">HomeComponent</text>
</g>
<!-- CoreModule -->
<g id="node3" class="node">
<title>CoreModule</title>
<polygon fill="#8dd3c7" stroke="#000000" points="396.2619,-187 393.2619,-191 372.2619,-191 369.2619,-187 309.7381,-187 309.7381,-151 396.2619,-151 396.2619,-187"/>
<text text-anchor="middle" x="353" y="-164.8" font-family="Times,serif" font-size="14.00" fill="#000000">CoreModule</text>
</g>
<!-- HomeComponent&#45;&gt;CoreModule -->
<g id="edge1" class="edge">
<title>HomeComponent&#45;&gt;CoreModule</title>
<path fill="none" stroke="#000000" d="M682,-122.2843C682,-143.3211 682,-175 682,-175 682,-175 406.3493,-175 406.3493,-175"/>
<polygon fill="#000000" stroke="#000000" points="406.3494,-171.5001 396.3493,-175 406.3493,-178.5001 406.3494,-171.5001"/>
</g>
<!-- PageNotFoundComponent -->
<g id="node2" class="node">
<title>PageNotFoundComponent</title>
<polygon fill="#ffffb3" stroke="#000000" points="606.8243,-122 441.1757,-122 441.1757,-86 606.8243,-86 606.8243,-122"/>
<text text-anchor="middle" x="524" y="-99.8" font-family="Times,serif" font-size="14.00" fill="#000000">PageNotFoundComponent</text>
</g>
<!-- PageNotFoundComponent&#45;&gt;CoreModule -->
<g id="edge2" class="edge">
<title>PageNotFoundComponent&#45;&gt;CoreModule</title>
<path fill="none" stroke="#000000" d="M524,-122.0225C524,-139.3734 524,-163 524,-163 524,-163 406.593,-163 406.593,-163"/>
<polygon fill="#000000" stroke="#000000" points="406.593,-159.5001 396.593,-163 406.5929,-166.5001 406.593,-159.5001"/>
</g>
<!-- NavigationModule  -->
<g id="node7" class="node">
<title>NavigationModule </title>
<polygon fill="#fb8072" stroke="#000000" points="415.7577,-252 290.2423,-252 290.2423,-216 415.7577,-216 415.7577,-252"/>
<text text-anchor="middle" x="353" y="-229.8" font-family="Times,serif" font-size="14.00" fill="#000000">NavigationModule </text>
</g>
<!-- CoreModule&#45;&gt;NavigationModule  -->
<g id="edge6" class="edge">
<title>CoreModule&#45;&gt;NavigationModule </title>
<path fill="none" stroke="#000000" stroke-dasharray="5,2" d="M353,-187.1061C353,-187.1061 353,-205.991 353,-205.991"/>
<polygon fill="#000000" stroke="#000000" points="349.5001,-205.9909 353,-215.991 356.5001,-205.991 349.5001,-205.9909"/>
</g>
<!-- AppRoutingModule -->
<g id="node4" class="node">
<title>AppRoutingModule</title>
<polygon fill="#8dd3c7" stroke="#000000" points="417.2744,-122 414.2744,-126 393.2744,-126 390.2744,-122 288.7256,-122 288.7256,-86 417.2744,-86 417.2744,-122"/>
<text text-anchor="middle" x="353" y="-99.8" font-family="Times,serif" font-size="14.00" fill="#000000">AppRoutingModule</text>
</g>
<!-- AppRoutingModule&#45;&gt;CoreModule -->
<g id="edge3" class="edge">
<title>AppRoutingModule&#45;&gt;CoreModule</title>
<path fill="none" stroke="#000000" d="M353,-122.1061C353,-122.1061 353,-140.991 353,-140.991"/>
<polygon fill="#000000" stroke="#000000" points="349.5001,-140.9909 353,-150.991 356.5001,-140.991 349.5001,-140.9909"/>
</g>
<!-- MaterialModule -->
<g id="node5" class="node">
<title>MaterialModule</title>
<polygon fill="#8dd3c7" stroke="#000000" points="270.4706,-122 267.4706,-126 246.4706,-126 243.4706,-122 163.5294,-122 163.5294,-86 270.4706,-86 270.4706,-122"/>
<text text-anchor="middle" x="217" y="-99.8" font-family="Times,serif" font-size="14.00" fill="#000000">MaterialModule</text>
</g>
<!-- MaterialModule&#45;&gt;CoreModule -->
<g id="edge4" class="edge">
<title>MaterialModule&#45;&gt;CoreModule</title>
<path fill="none" stroke="#000000" d="M217,-122.0225C217,-139.3734 217,-163 217,-163 217,-163 299.5948,-163 299.5948,-163"/>
<polygon fill="#000000" stroke="#000000" points="299.5949,-166.5001 309.5948,-163 299.5948,-159.5001 299.5949,-166.5001"/>
</g>
<!-- NavigationModule -->
<g id="node6" class="node">
<title>NavigationModule</title>
<polygon fill="#8dd3c7" stroke="#000000" points="145.7576,-122 142.7576,-126 121.7576,-126 118.7576,-122 24.2424,-122 24.2424,-86 145.7576,-86 145.7576,-122"/>
<text text-anchor="middle" x="85" y="-99.8" font-family="Times,serif" font-size="14.00" fill="#000000">NavigationModule</text>
</g>
<!-- NavigationModule&#45;&gt;CoreModule -->
<g id="edge5" class="edge">
<title>NavigationModule&#45;&gt;CoreModule</title>
<path fill="none" stroke="#000000" d="M85,-122.2843C85,-143.3211 85,-175 85,-175 85,-175 299.6433,-175 299.6433,-175"/>
<polygon fill="#000000" stroke="#000000" points="299.6433,-178.5001 309.6433,-175 299.6433,-171.5001 299.6433,-178.5001"/>
</g>
</g>
</svg>
